<svg xmlns="http://www.w3.org/2000/svg" width="137" height="156" viewBox="0 0 137 156" fill="none"><circle cx="99.5" cy="22" r="12.5" fill="#F1F9FB" stroke="#189AB4" stroke-width="6"></circle><circle cx="61.5" cy="44" r="12.5" fill="#F1F9FB" stroke="#189AB4" stroke-width="6"></circle><rect x="31" y="59.5" width="100" height="71" rx="6" fill="#F1F9FB"></rect><circle cx="92" cy="94.5" r="3" fill="#189AB4"></circle><path d="M69 132.5H82H123.5C129.023 132.5 133.5 128.023 133.5 122.5V67C133.5 61.4772 129.023 57 123.5 57H38C32.4771 57 28 61.4772 28 67V84M111.5 132.5L116.987 130.114C120.638 128.527 123 124.925 123 120.944V105M111.5 57L115.524 58.0498C119.928 59.1985 123 63.1753 123 67.726V84.5M133.5 84.5H92.25C86.5891 84.5 82 89.0891 82 94.75V94.75C82 100.411 86.5891 105 92.25 105H133.5M74 24V3M61.5 15.5V3" stroke="#189AB4" stroke-width="6" stroke-linecap="round"></path><g clip-path="url(#clip0_199_29)"><path d="M28 142.5L33 144.5L40 141.5L44.5 137L48.5 131L50 124.5L51 117L50.5 108.5L41 106.5L33 102L24.5 106.5L15.5 108.5L15 121L16.5 128.5L21 137L28 142.5Z" fill="#F1F9FB"></path><path d="M52.2748 111.844C52.2512 110.602 52.2287 109.429 52.2287 108.294C52.2287 107.405 51.508 106.684 50.6185 106.684C43.7326 106.684 38.4898 104.705 34.1198 100.456C33.4946 99.8479 32.4998 99.8481 31.8748 100.456C27.5052 104.705 22.2633 106.684 15.3778 106.684C14.4886 106.684 13.7677 107.405 13.7677 108.294C13.7677 109.429 13.7453 110.603 13.7215 111.845C13.5008 123.403 13.1985 139.231 32.4699 145.911C32.6408 145.971 32.819 146 32.9972 146C33.1754 146 33.3538 145.971 33.5245 145.911C52.7973 139.231 52.4955 123.402 52.2748 111.844ZM32.9974 142.681C16.4697 136.677 16.7195 123.525 16.9413 111.906C16.9546 111.209 16.9675 110.533 16.9765 109.871C23.4256 109.599 28.5827 107.644 32.9974 103.799C37.4126 107.644 42.5705 109.599 49.02 109.871C49.029 110.533 49.0419 111.208 49.0552 111.905C49.2768 123.524 49.5264 136.677 32.9974 142.681Z" fill="#189AB4"></path><path d="M38.5391 117.407L30.7678 125.178L27.4516 121.862C26.8228 121.233 25.8033 121.233 25.1747 121.862C24.5459 122.491 24.5459 123.51 25.1747 124.139L29.6294 128.593C29.9437 128.908 30.3559 129.065 30.7678 129.065C31.1798 129.065 31.592 128.908 31.9063 128.593L40.8158 119.684C41.4449 119.055 41.4449 118.036 40.8161 117.407C40.1875 116.778 39.1679 116.778 38.5391 117.407Z" fill="#189AB4"></path></g><g clip-path="url(#clip1_199_29)"><path d="M60.6603 106.994C60.6264 105.212 60.594 103.529 60.594 101.9C60.594 100.624 59.56 99.5899 58.2839 99.5899C48.404 99.5899 40.8818 96.7505 34.6117 90.6541C33.7148 89.7818 32.2874 89.7821 31.3907 90.6541C25.1212 96.7505 17.6002 99.5899 7.72104 99.5899C6.44521 99.5899 5.41087 100.624 5.41087 101.9C5.41087 103.529 5.37884 105.213 5.34464 106.995C5.028 123.578 4.5943 146.289 32.2446 155.873C32.4898 155.958 32.7454 156 33.0011 156C33.2567 156 33.5127 155.958 33.7576 155.873C61.41 146.288 60.9769 123.577 60.6603 106.994ZM33.0014 151.238C9.28764 142.624 9.64618 123.753 9.96437 107.083C9.98346 106.083 10.0019 105.113 10.0149 104.162C19.2679 103.772 26.6672 100.968 33.0014 95.45C39.3362 100.968 46.7367 103.772 55.9903 104.162C56.0033 105.113 56.0217 106.082 56.0408 107.082C56.3587 123.752 56.717 142.624 33.0014 151.238Z" fill="#189AB4"></path></g><defs><clipPath id="clip0_199_29"><rect width="46" height="46" fill="white" transform="translate(10 100)"></rect></clipPath><clipPath id="clip1_199_29"><rect width="66" height="66" fill="white" transform="translate(0 90)"></rect></clipPath></defs></svg>