<svg xmlns="http://www.w3.org/2000/svg" width="134" height="161" viewBox="0 0 134 161" fill="none"><path d="M80.455 31.3214C80.2162 21.3156 71.9726 13.2676 61.8379 13.2676C55.6453 13.2676 50.1698 16.2929 46.8047 20.9397L56.422 23.9058C57.2384 22.8975 58.3934 22.3832 59.7274 22.0865C59.9068 22.0468 60.0659 22.0272 60.245 21.9877C60.285 21.9877 60.3447 21.9679 60.4244 21.948V18.8242H62.6745V21.9287C64.7053 22.1857 66.6569 22.5417 68.1304 24.104C67.334 24.9741 66.5772 25.7849 65.7608 26.6549L80.455 31.3214Z" fill="#189AB4"></path><path d="M112.884 3.59766H10.818C8.0702 3.59766 5.82031 5.83227 5.82031 8.5611V54.912C5.82031 56.7313 6.79586 58.3131 8.2693 59.1634L18.1852 27.3863V20.5837C19.1013 20.4651 19.9771 20.307 20.8135 20.0696V20.05C21.7891 19.793 22.6852 19.437 23.5216 18.9822C24.358 18.5473 25.1147 17.9935 25.7717 17.341C26.4288 16.7081 27.0261 15.9963 27.524 15.1657C28.4598 13.6431 29.0971 11.7645 29.3756 9.49047H94.2673C95.9598 16.886 98.7473 19.6347 105.497 20.5442V37.5104L117.862 41.3269V8.5611C117.862 5.83227 115.632 3.59766 112.884 3.59766Z" fill="#189AB4"></path><path d="M77.5239 45.2389C67.7074 42.2134 57.2939 47.6515 54.2474 57.4C51.2208 67.1289 56.6966 77.4708 66.4931 80.4964C76.3095 83.5217 86.7233 78.0839 89.7696 68.3351C92.8162 58.6064 87.3204 48.2645 77.5239 45.2389ZM71.2916 58.8042C71.9686 59.4567 72.785 59.971 73.5615 60.5443C74.617 61.3551 75.7519 62.0868 76.7475 62.9568C78.2806 64.2817 78.6788 66.0022 78.1612 67.9399C77.2653 71.2421 73.8803 73.3382 70.4952 72.7252C70.2961 72.6858 70.077 72.6659 69.8182 72.6265C69.5196 73.5757 69.2408 74.4852 68.9421 75.4344C68.2253 75.1972 67.5483 74.9995 66.8116 74.7819C67.1301 73.7933 67.4289 72.844 67.7274 71.8554C65.7561 70.7677 63.7253 69.7592 62.8492 67.4655C63.9841 66.9118 65.0993 66.3977 66.1746 65.8837C67.5086 68.1577 69.6193 69.0278 72.0883 69.2057C73.4223 69.3044 74.3782 67.6633 73.7609 66.4769C73.4223 65.8244 72.9245 65.3696 72.3071 64.9937C70.6743 63.9654 69.1014 62.8581 67.7874 61.4541C67.0307 60.6235 66.3737 59.714 66.533 58.5276C66.7322 57.0444 67.2101 55.6603 68.2653 54.5332C69.5196 53.2083 71.1128 52.8523 72.8847 53.0302C73.0439 53.0501 73.2232 53.0697 73.3826 53.0895H73.5817C73.8805 52.1207 74.1791 51.1516 74.4978 50.1235C75.2146 50.3411 75.8916 50.5587 76.6483 50.7958C76.3498 51.7647 76.031 52.7337 75.7324 53.7423C77.6041 54.5726 79.3364 55.5023 80.2922 57.4203C79.2766 58.0135 78.3011 58.5673 77.2656 59.1605C76.3695 57.5984 74.8563 57.0841 73.2435 56.7085C72.8253 56.6098 72.3474 56.5899 71.9292 56.6688C70.8137 56.9057 70.4555 58.013 71.2916 58.8042Z" fill="#189AB4"></path><path d="M129.143 51.0147L31.6758 20.9776C29.0474 20.1668 26.2596 21.6301 25.4435 24.2403L12.2807 68.1163C11.9422 69.1841 11.1641 70.3496 11.1641 70.3496C15.6307 70.3496 23.4547 72.5829 26.8572 60.7635C26.9566 60.7437 27.0563 60.7042 27.1358 60.7042C27.096 60.6645 27.0363 60.6449 26.9966 60.6251L33.6471 39.3678C39.4811 40.4555 44.6382 38.656 47.645 32.071L109.63 51.173C109.032 58.7465 110.884 62.1675 117.076 65.0149L110.426 86.2722C103.795 85.4021 99.4348 87.7751 96.3883 93.6677L59.1935 82.1986C59.2332 82.4951 59.2532 82.8117 59.2732 83.1082C59.3529 84.6704 59.3926 86.2523 59.3926 87.8143C59.7511 88.1111 60.0696 88.4075 60.3484 88.7437L112.357 104.761C114.985 105.571 117.793 104.108 118.609 101.498L132.428 57.2234C133.244 54.6137 131.791 51.8255 129.143 51.0147Z" fill="#189AB4"></path><path d="M25.7536 17.3379C25.1017 17.9854 24.3412 18.5429 23.5078 18.9745C24.16 18.3271 24.9205 17.7695 25.7536 17.3379Z" fill="black"></path><path d="M20.0995 82.6322L15.6328 83.7488V88.2155V92.6822V96.0322L16.7495 100.499L17.8661 103.849L20.0995 106.082L22.3328 109.432L25.6828 111.665L29.0328 113.899H32.3828L35.7328 111.665L40.1995 109.432L42.4328 107.199L44.6661 101.615L45.7828 97.1488L46.8995 91.5655L45.7828 83.7488L44.6661 82.6322H41.3161L36.8495 81.5155L31.2661 77.0488L27.9161 80.3988L24.5661 81.5155L20.0995 82.6322Z" fill="#F1F9FB"></path><path d="M48.2871 86.1877C48.2663 85.0914 48.2464 84.0557 48.2464 83.0538C48.2464 82.2689 47.6102 81.6325 46.8251 81.6325C40.7466 81.6325 36.1186 79.8856 32.261 76.1349C31.7092 75.5982 30.831 75.5984 30.2793 76.1349C26.4221 79.8856 21.7949 81.6325 15.7168 81.6325C14.9319 81.6325 14.2955 82.2689 14.2955 83.0538C14.2955 84.0559 14.2758 85.0919 14.2547 86.1884C14.0599 96.3908 13.7931 110.363 30.8046 116.26C30.9555 116.312 31.1128 116.338 31.2701 116.338C31.4274 116.338 31.5849 116.312 31.7355 116.26C48.7484 110.363 48.4819 96.3902 48.2871 86.1877ZM31.2703 113.409C16.6806 108.109 16.9012 96.4986 17.097 86.2426C17.1087 85.6271 17.1201 85.0305 17.1281 84.4457C22.8209 84.2054 27.3732 82.4803 31.2703 79.0855C35.1677 82.4803 39.7208 84.2056 45.414 84.4457C45.4219 85.0304 45.4333 85.6266 45.4451 86.2417C45.6406 96.498 45.861 108.109 31.2703 113.409Z" fill="#189AB4"></path><path d="M36.1588 91.0978L29.2989 97.9575L26.3715 95.0301C25.8165 94.4753 24.9165 94.4753 24.3616 95.0301C23.8065 95.5854 23.8065 96.4852 24.3616 97.0402L28.2939 100.973C28.5713 101.25 28.9352 101.389 29.2989 101.389C29.6625 101.389 30.0264 101.25 30.3038 100.973L38.1686 93.108C38.7238 92.5529 38.7238 91.6529 38.1688 91.098C37.6139 90.543 36.7139 90.5428 36.1588 91.0978Z" fill="#189AB4"></path><path d="M55.0895 82.2448C55.0603 80.71 55.0324 79.26 55.0324 77.8573C55.0324 76.7584 54.1418 75.8675 53.0426 75.8675C44.5327 75.8675 38.0536 73.4219 32.6529 68.1708C31.8803 67.4195 30.6509 67.4197 29.8786 68.1708C24.4784 73.4219 18.0003 75.8675 9.49102 75.8675C8.3921 75.8675 7.50119 76.7584 7.50119 77.8573C7.50119 79.2603 7.4736 80.7108 7.44415 82.2458C7.17141 96.5291 6.79785 116.091 30.614 124.346C30.8252 124.419 31.0454 124.456 31.2656 124.456C31.4858 124.456 31.7063 124.419 31.9172 124.346C55.7352 116.09 55.3622 96.5283 55.0895 82.2448ZM31.2659 120.354C10.8404 112.934 11.1492 96.6801 11.4233 82.3217C11.4397 81.46 11.4556 80.6248 11.4668 79.806C19.4367 79.4696 25.81 77.0545 31.2659 72.3017C36.7223 77.0545 43.0966 79.4699 51.0671 79.806C51.0782 80.6245 51.0941 81.4592 51.1106 82.3204C51.3844 96.6793 51.6929 112.934 31.2659 120.354Z" fill="#189AB4"></path></svg>