<svg xmlns="http://www.w3.org/2000/svg" width="148" height="149" viewBox="0 0 148 149" fill="none"><g clip-path="url(#clip0_187_26)"><path d="M107.704 2.93555H54.9517C54.1424 2.93555 53.4863 3.59278 53.4863 4.40353V35.5981V48.8099H37.3675C33.7257 48.8099 30.7734 45.8524 30.7734 42.204C30.7734 38.5556 33.7257 35.5981 37.3675 35.5981H53.4863V4.40353C53.4863 3.59278 54.1424 2.93555 54.9517 2.93555H107.704C108.514 2.93555 109.169 3.59278 109.169 4.40353V35.2311H123.823C124.633 35.2311 125.288 35.8883 125.288 36.6991V48.8099H134.08C134.89 48.8099 135.546 49.4671 135.546 50.2779V71.9306H143.971C144.781 71.9306 145.437 72.5878 145.437 73.3986V95.7853C145.437 96.5964 144.781 97.2533 143.971 97.2533H135.546H131.174C128.76 97.2533 126.389 96.6066 124.308 95.3801L124.018 95.2091C122.209 94.1434 120.703 92.6299 119.646 90.8132C117.466 87.0699 117.418 82.4531 119.518 78.665L119.82 78.1218C120.996 76.0013 122.784 74.286 124.95 73.2013C126.618 72.3657 128.457 71.9306 130.322 71.9306H135.546V50.2779C135.546 49.4671 134.89 48.8099 134.08 48.8099H125.288H109.169V35.2311V4.40353C109.169 3.59278 108.514 2.93555 107.704 2.93555Z" fill="#F1F9FB"></path><path d="M53.4863 35.5981H37.3675C33.7257 35.5981 30.7734 38.5556 30.7734 42.204M30.7734 42.204C30.7734 45.8524 33.7257 48.8099 37.3675 48.8099H53.4863V4.40353C53.4863 3.59278 54.1424 2.93555 54.9517 2.93555H107.704C108.514 2.93555 109.169 3.59278 109.169 4.40353V48.8099H134.08C134.89 48.8099 135.546 49.4671 135.546 50.2779V71.9306M30.7734 42.204V70.4626M135.546 71.9306H143.971C144.781 71.9306 145.437 72.5878 145.437 73.3986V95.7853C145.437 96.5964 144.781 97.2533 143.971 97.2533H135.546M135.546 71.9306H130.322C128.457 71.9306 126.618 72.3657 124.95 73.2013C122.784 74.286 120.996 76.0013 119.82 78.1218L119.518 78.665C117.418 82.4531 117.466 87.0699 119.646 90.8132C120.703 92.6299 122.209 94.1434 124.018 95.2091L124.308 95.3801C126.389 96.6066 128.76 97.2533 131.174 97.2533H135.546M64.1101 120.374H134.08C134.89 120.374 135.546 119.717 135.546 118.906V97.2533M125.288 48.8099V36.6991C125.288 35.8883 124.633 35.2311 123.823 35.2311H109.169" stroke="#189AB4" stroke-width="5" stroke-linecap="round"></path><path d="M49.8042 109.892C49.8042 121.204 42.2186 131.798 31.8552 134.898C31.15 135.106 30.3808 135.106 29.6757 134.898C19.3121 131.798 11.7266 121.204 11.7266 109.892V99.7367C11.7266 97.84 13.0514 95.6887 14.6967 94.9716L26.5987 89.6971C29.2697 88.5176 32.2825 88.5176 34.9536 89.6971L46.8555 94.9716C48.4794 95.6887 49.8256 97.84 49.8256 99.7367L49.8042 109.892Z" fill="#F1F9FB" stroke="#189AB4" stroke-width="5" stroke-linecap="round" stroke-linejoin="round"></path><path d="M58.5816 108.919C58.5816 125.618 47.495 141.257 32.3484 145.833C31.3178 146.141 30.1936 146.141 29.163 145.833C14.0163 141.257 2.92969 125.618 2.92969 108.919V93.9283C2.92969 91.1289 4.86597 87.9529 7.27069 86.8945L24.6658 79.1091C28.5696 77.3673 32.973 77.3673 36.8768 79.1091L54.2719 86.8945C56.6453 87.9529 58.6129 91.1289 58.6129 93.9283L58.5816 108.919Z" stroke="#189AB4" stroke-width="5" stroke-linecap="round" stroke-linejoin="round"></path><path d="M21.9766 109.73L27.1119 115.784C27.6886 116.463 28.732 116.475 29.3236 115.809L39.9302 103.859" stroke="#189AB4" stroke-width="5" stroke-linecap="round"></path><path d="M92.9457 12.4785H82.4245H70.8042C70.5184 12.4785 70.2587 12.645 70.139 12.9049L69.5725 14.1345C68.641 16.1563 67.0792 17.8203 65.1222 18.876L63.7603 19.6106C63.523 19.7386 63.375 19.9868 63.375 20.2568V48.811H99.6423V19.8871C99.6423 19.6186 99.4958 19.3714 99.2606 19.2427L98.5917 18.8774C96.6574 17.8203 95.1137 16.167 94.1905 14.1625L93.611 12.9049C93.4915 12.645 93.2314 12.4785 92.9457 12.4785Z" fill="#F1F9FB"></path><path d="M63.3746 48.811V20.2568C63.3746 19.9868 63.5226 19.7386 63.7599 19.6106L65.1218 18.876C67.0789 17.8203 68.6406 16.1563 69.5721 14.1345L70.1386 12.9049C70.2583 12.645 70.518 12.4785 70.8038 12.4785H82.4241H92.9453C93.231 12.4785 93.4911 12.645 93.6106 12.9049L94.1901 14.1625C95.1133 16.167 96.657 17.8203 98.5913 18.8774L99.2602 19.2427C99.4954 19.3714 99.6419 19.6186 99.6419 19.8871V48.811H109.533H53.1172" stroke="#189AB4" stroke-width="5" stroke-linecap="round"></path><mask id="mask0_187_26" style="mask-type:luminance" maskUnits="userSpaceOnUse" x="70" y="37" width="23" height="12"><path d="M92.3161 48.4434C92.3161 45.5235 91.1585 42.723 89.0975 40.6583C87.0365 38.5936 84.2406 37.4336 81.326 37.4336C78.4115 37.4336 75.6156 38.5936 73.5546 40.6583C71.4939 42.723 70.3359 45.5235 70.3359 48.4434H74.9064C74.9064 46.7378 75.5826 45.102 76.7864 43.8959C77.9909 42.6898 79.6233 42.0122 81.326 42.0122C83.0288 42.0122 84.6612 42.6898 85.8657 43.8959C87.0695 45.102 87.7457 46.7378 87.7457 48.4434H92.3161Z" fill="white"></path></mask><g mask="url(#mask0_187_26)"><path d="M92.3161 48.4434C92.3161 45.5235 91.1585 42.723 89.0975 40.6583C87.0365 38.5936 84.2406 37.4336 81.326 37.4336C78.4115 37.4336 75.6156 38.5936 73.5546 40.6583C71.4939 42.723 70.3359 45.5235 70.3359 48.4434H74.9064C74.9064 46.7378 75.5826 45.102 76.7864 43.8959C77.9909 42.6898 79.6233 42.0122 81.326 42.0122C83.0288 42.0122 84.6612 42.6898 85.8657 43.8959C87.0695 45.102 87.7457 46.7378 87.7457 48.4434H92.3161Z" fill="#D9D9D9" stroke="#189AB4" stroke-width="13"></path></g><path d="M131.152 87.8948C133.074 87.8948 134.632 86.3338 134.632 84.4083C134.632 82.4828 133.074 80.9219 131.152 80.9219C129.23 80.9219 127.672 82.4828 127.672 84.4083C127.672 86.3338 129.23 87.8948 131.152 87.8948Z" stroke="#189AB4" stroke-width="5"></path></g><defs><clipPath id="clip0_187_26"><rect width="148" height="149" fill="white"></rect></clipPath></defs></svg>