<svg width="146" height="144" viewBox="0 0 146 144" fill="none" xmlns="http://www.w3.org/2000/svg">
<path d="M79.8091 133.294H16.9653C9.25247 133.294 3 126.813 3 118.817V17.4771C3 9.48162 9.25247 3 16.9653 3H128.688C136.401 3 142.653 9.48162 142.653 17.4771V68.147" fill="#F1F9FB"/>
<path d="M79.8091 133.294H16.9653C9.25247 133.294 3 126.813 3 118.817V17.4771C3 9.48162 9.25247 3 16.9653 3H128.688C136.401 3 142.653 9.48162 142.653 17.4771V68.147" stroke="#189AB4" stroke-width="6" stroke-linecap="round"/>
<path d="M3 31.9543H142.653H3Z" fill="#F1F9FB"/>
<path d="M3 31.9543H142.653" stroke="#189AB4" stroke-width="6" stroke-linecap="round" stroke-linejoin="round"/>
<path d="M23.948 17.549L24.0178 17.469L23.948 17.549Z" fill="#F1F9FB"/>
<path d="M23.948 17.549L24.0178 17.469" stroke="#189AB4" stroke-width="6" stroke-linecap="round" stroke-linejoin="round"/>
<path d="M44.8959 17.549L44.9657 17.469L44.8959 17.549Z" fill="#F1F9FB"/>
<path d="M44.8959 17.549L44.9657 17.469" stroke="#189AB4" stroke-width="6" stroke-linecap="round" stroke-linejoin="round"/>
<path d="M65.8438 17.549L65.9136 17.469L65.8438 17.549Z" fill="#F1F9FB"/>
<path d="M65.8438 17.549L65.9136 17.469" stroke="#189AB4" stroke-width="6" stroke-linecap="round" stroke-linejoin="round"/>
<path d="M121.651 83.5287L139.495 88.2265C141.352 88.7158 142.662 90.4654 142.605 92.4509C141.406 134.133 118.214 140.532 118.214 140.532C118.214 140.532 95.0214 134.133 93.8225 92.4509C93.7652 90.4654 95.0752 88.7158 96.9326 88.2265L114.776 83.5287C117.032 82.9351 119.395 82.9351 121.651 83.5287Z" fill="#F1F9FB" stroke="#189AB4" stroke-width="6" stroke-linecap="round" stroke-linejoin="round"/>
</svg>
