<svg xmlns="http://www.w3.org/2000/svg" width="733" height="527" viewBox="0 0 733 527" fill="none"><path d="M716.385 390.032C716.09 390.032 715.786 390.001 715.477 389.939C713.786 389.657 712.471 388.57 711.795 386.877C710.968 384.815 711.264 382.214 712.512 380.55C713.478 378.6 715.972 376.552 718.652 375.363C718.106 374.663 717.44 374.12 716.653 373.806C714.845 373.082 711.568 372.94 709.06 374.102C707.756 374.707 706.912 375.559 706.555 376.631C706.442 376.969 706.08 377.152 705.74 377.038C705.402 376.925 705.221 376.561 705.333 376.223C705.8 374.821 706.903 373.682 708.521 372.932C711.007 371.778 714.712 371.638 717.131 372.609C718.259 373.06 719.18 373.858 719.895 374.877C720.357 374.724 720.82 374.598 721.274 374.508C724.01 373.592 726.374 373.646 728.219 374.69C730.204 375.814 731.588 378.084 732.333 381.438C732.411 381.786 732.192 382.129 731.844 382.207C731.495 382.283 731.152 382.066 731.075 381.718C730.412 378.735 729.237 376.747 727.584 375.811C726.065 374.951 724.054 374.931 721.603 375.749C721.26 375.817 720.915 375.908 720.566 376.016C721.907 378.726 722.123 382.397 721.236 385.383C720.352 388.356 718.576 390.031 716.385 390.032ZM719.351 376.467C716.853 377.538 714.5 379.43 713.602 381.222C712.564 382.623 712.332 384.757 712.987 386.397C713.344 387.287 714.105 388.405 715.706 388.672C718.454 389.211 719.618 386.298 719.999 385.018C720.817 382.269 720.585 378.861 719.351 376.467Z" fill="#05445E"></path><path d="M181.668 427.238C178.509 427.238 175.566 425.985 173.322 423.671C172.326 422.547 171.573 421.056 171.118 419.441C169.451 419.296 167.85 418.722 166.438 417.744C163.974 416.039 162.311 413.248 161.877 410.09C161.386 406.174 162.736 403.766 164.851 400.535C165.045 400.239 165.446 400.156 165.742 400.35C166.04 400.545 166.122 400.944 165.929 401.241C163.918 404.309 162.709 406.37 163.153 409.92C163.537 412.715 165.003 415.184 167.17 416.684C168.278 417.452 169.52 417.933 170.815 418.11C170.544 416.549 170.549 414.939 170.877 413.481C171.497 410.729 173.131 408.717 175.6 407.663C177.097 407.026 178.672 407.196 179.819 408.117C181.135 409.173 181.691 411.029 181.307 413.079C180.648 415.776 177.602 418.401 174.214 419.223C173.627 419.357 173.037 419.437 172.454 419.466C172.858 420.74 173.475 421.906 174.265 422.797C176.369 424.968 179.208 426.079 182.213 425.937C185.383 425.775 188.327 424.257 190.291 421.769C190.512 421.49 190.917 421.444 191.197 421.663C191.475 421.883 191.523 422.287 191.304 422.567C189.109 425.346 185.821 427.043 182.28 427.223C182.075 427.234 181.87 427.238 181.668 427.238ZM177.409 408.569C176.989 408.569 176.548 408.661 176.107 408.851C173.487 409.967 172.5 412.14 172.133 413.766C171.819 415.161 171.834 416.71 172.128 418.189C172.722 418.178 173.323 418.106 173.922 417.97C176.819 417.268 179.513 415 180.05 412.809C180.339 411.268 179.954 409.877 179.014 409.123C178.555 408.756 178.002 408.569 177.409 408.569Z" fill="#05445E"></path><path d="M186.9 58.14C186.546 58.14 186.257 57.8528 186.256 57.4986C186.232 52.0027 188.354 46.4991 191.794 43.1361C194.226 40.7597 197.254 39.4936 200.581 39.4601C203.188 35.3695 208.631 32.8514 213.41 33.6435C216.212 34.1085 218.666 35.6412 221.039 37.1237C225.425 39.8646 229.216 42.2319 234.09 37.0902C234.333 36.8313 234.742 36.8197 235 37.0657C235.259 37.3092 235.27 37.7175 235.025 37.9764C229.429 43.8844 224.818 41.0045 220.356 38.2159C218.092 36.8004 215.749 35.3373 213.2 34.9148C209.217 34.2566 204.574 36.2659 202.105 39.5284C207.249 40.0385 209.875 43.2868 210.621 46.293C211.317 49.0931 210.489 51.8752 208.656 52.9094C207.597 53.5071 205.329 54.0184 202.047 50.725C199.117 47.7832 198.339 44.1845 199.87 40.7765C197.146 40.9619 194.738 42.0632 192.697 44.0583C189.498 47.1869 187.525 52.335 187.547 57.4947C187.548 57.8502 187.261 58.14 186.905 58.1413C186.903 58.14 186.9 58.14 186.9 58.14ZM201.31 40.761C201.287 40.8048 201.264 40.8486 201.241 40.8937C199.664 43.9527 200.273 47.1199 202.958 49.8144C204.914 51.7786 206.761 52.4973 208.021 51.7863C209.338 51.0431 209.919 48.8149 209.369 46.6034C209.045 45.2909 207.508 41.0418 201.31 40.761Z" fill="#05445E"></path><path d="M716.326 238.678C711.815 238.678 708.307 235.894 707.39 231.589C706.56 227.692 707.833 225.087 709.045 223.587C710.789 221.433 713.598 220.146 716.559 220.146C720.691 220.146 724.16 222.515 725.839 226.482C726.589 228.313 726.472 230.509 725.515 232.673C724.42 235.146 722.36 237.184 720.138 237.991C718.887 238.447 717.604 238.678 716.326 238.678ZM716.559 221.433C713.983 221.433 711.549 222.54 710.046 224.396C708.559 226.234 708.076 228.629 708.65 231.319C709.434 235.007 712.448 237.388 716.326 237.388C717.453 237.388 718.588 237.184 719.698 236.78C721.6 236.088 723.378 234.314 724.336 232.15C725.151 230.31 725.262 228.473 724.649 226.975C723.182 223.508 720.156 221.433 716.559 221.433Z" fill="#189AB4"></path><path d="M71.6806 414.705C67.17 414.705 63.6615 411.921 62.7445 407.614C61.9137 403.718 63.1863 401.112 64.4008 399.613C66.1448 397.457 68.9539 396.17 71.9138 396.17C76.0457 396.17 79.5142 398.539 81.1938 402.506C81.9434 404.34 81.8275 406.536 80.8692 408.701C79.7744 411.174 77.7149 413.211 75.4944 414.018C74.2412 414.473 72.9596 414.705 71.6806 414.705ZM71.9138 397.458C69.3378 397.458 66.9034 398.566 65.4016 400.423C63.914 402.261 63.431 404.655 64.0054 407.345C64.7898 411.033 67.8037 413.417 71.6819 413.417C72.8089 413.417 73.9436 413.212 75.0539 412.808C76.9563 412.116 78.7337 410.342 79.692 408.18C80.5073 406.338 80.6181 404.5 80.005 403.001C78.5366 399.535 75.5111 397.458 71.9138 397.458Z" fill="#70BADB"></path><path d="M702.195 325.727C699.785 325.727 697.546 324.546 696.202 322.569L683.293 303.563C682.213 301.973 681.818 300.05 682.182 298.149C682.544 296.247 683.62 294.606 685.21 293.526L704.219 280.614C705.414 279.803 706.811 279.375 708.26 279.375C710.67 279.375 712.911 280.556 714.256 282.535L727.167 301.54C729.402 304.837 728.541 309.34 725.248 311.578L706.245 324.486C705.044 325.298 703.645 325.727 702.195 325.727ZM708.258 280.663C707.068 280.663 705.92 281.014 704.941 281.68L685.933 294.592C684.627 295.478 683.745 296.827 683.444 298.391C683.147 299.953 683.471 301.532 684.358 302.838L697.267 321.844C698.37 323.469 700.212 324.439 702.194 324.439C703.385 324.439 704.533 324.088 705.516 323.419L724.519 310.512C727.227 308.671 727.933 304.971 726.097 302.262L713.187 283.259C712.084 281.634 710.24 280.663 708.258 280.663Z" fill="#70BADB"></path><path d="M135.824 493.028C133.185 493.028 131.248 490.929 130.769 487.551L127.034 461.164C126.719 458.946 127.13 457.111 128.221 455.856C129.677 454.178 132.197 453.828 134.974 454.946L159.692 464.901C162.129 465.882 163.621 467.481 163.892 469.4C164.164 471.319 163.176 473.269 161.108 474.888L140.125 491.319C138.698 492.434 137.21 493.028 135.824 493.028ZM131.893 455.577C130.764 455.577 129.83 455.965 129.192 456.699C128.366 457.651 128.051 459.172 128.309 460.981L132.044 487.369C132.432 490.104 133.845 491.739 135.823 491.739C136.918 491.739 138.131 491.242 139.33 490.303L160.313 473.872C162.002 472.549 162.821 471.023 162.616 469.579C162.411 468.134 161.202 466.896 159.209 466.093L134.491 456.138C133.565 455.766 132.692 455.577 131.893 455.577Z" fill="#189AB4"></path><path d="M336.082 52.1778C334.921 52.1778 333.682 51.8211 332.401 51.1165L309.049 38.2752C306.747 37.0104 305.458 35.2458 305.416 33.3074C305.377 31.3689 306.591 29.5528 308.837 28.1927L331.636 14.3905C332.973 13.5816 334.273 13.1708 335.5 13.1708C338.445 13.1708 340.397 15.5561 340.473 19.2488L341.03 45.8911C341.073 47.997 340.514 49.7062 339.412 50.8306C338.548 51.7116 337.398 52.1778 336.082 52.1778ZM335.499 14.4588C334.524 14.4588 333.419 14.8155 332.301 15.4917L309.502 29.2939C307.667 30.4055 306.672 31.821 306.703 33.2803C306.734 34.7396 307.786 36.1126 309.668 37.1469L333.021 49.9882C335.218 51.1951 337.271 51.1732 338.49 49.929C339.345 49.0557 339.776 47.6686 339.74 45.9169L339.184 19.2746C339.122 16.3045 337.711 14.4588 335.499 14.4588Z" fill="#189AB4"></path><path d="M427.753 526.484C427.743 526.484 427.742 526.484 427.731 526.484C374.455 526.483 328.222 522.481 297.551 515.216C262.643 506.949 239.394 492.616 228.447 472.615C219.195 455.712 218.769 434.952 227.182 410.91C227.499 410.007 227.824 409.066 228.162 408.084C234.731 389.048 246.958 353.614 305.127 283.013C347.421 231.681 401.701 203.411 457.97 203.411C478.73 203.411 499.369 207.235 519.31 214.776C569.023 233.577 610.594 263.8 639.53 302.177C663.881 334.475 679.06 372.239 682.27 408.513C685.737 447.707 674.588 479.993 653.173 492.774C614.151 516.059 511.84 526.484 427.753 526.484ZM457.97 204.698C402.093 204.698 348.165 232.802 306.12 283.832C248.099 354.254 235.921 389.544 229.378 408.504C229.038 409.488 228.714 410.431 228.397 411.335C220.108 435.019 220.505 455.427 229.575 471.998C240.34 491.665 263.309 505.783 297.847 513.964C328.424 521.206 374.551 525.196 427.731 525.197C427.737 525.197 427.748 525.197 427.753 525.197C511.667 525.197 613.699 514.83 652.513 491.667C673.5 479.142 684.411 447.323 680.986 408.627C675.44 345.945 629.651 257.882 518.854 215.981C499.058 208.492 478.574 204.698 457.97 204.698Z" fill="#05445E"></path><mask id="mask0_201_719" style="mask-type:luminance" maskUnits="userSpaceOnUse" x="1" y="80" width="332" height="297"><path d="M7.63994 201.586C1.15357 229.921 -7.25449 308.709 21.6418 339.004C50.5381 369.299 72.4431 373.494 121.846 374.425C171.248 375.356 195.951 378.149 232.303 375.82C268.657 373.493 325.514 372.208 331.575 290.066C342.52 141.694 231.077 73.2341 141.592 81.1579C52.1081 89.0803 19.8759 148.134 7.63994 201.586Z" fill="white"></path></mask><g mask="url(#mask0_201_719)"><path d="M174.742 151.648C177.304 155.843 179.399 163.3 180.568 171.456C181.386 177.164 182.899 177.749 188.491 180.311C194.084 182.874 195.367 187.767 192.337 190.563C188.02 194.547 188.026 192.37 187.443 196.856C187.053 199.847 187.865 202.236 183.84 200.948C182.259 200.442 178.992 198.497 178.527 198.855C177.133 199.932 177.561 204.007 182.874 207.066C184.811 208.182 186.416 208.032 184.704 216.898C183.212 224.619 173.868 225.811 164.605 224.063C155.341 222.316 157.264 229.306 153.594 239.269C149.923 249.232 149.398 254.824 154.467 259.019C159.536 263.214 163.556 283.312 163.031 288.206C162.506 293.1 145.028 303.236 130.173 286.808C122.134 275.621 113.045 254.125 113.045 254.125C113.045 254.125 122.482 241.017 122.307 228.258C122.133 215.5 116.714 167.436 134.366 153.804C152.022 140.17 172.995 148.27 174.742 151.648Z" fill="white"></path><path d="M148.409 296.451C143.675 296.451 136.584 294.852 129.699 287.237C121.664 276.064 112.546 254.588 112.455 254.373C112.367 254.166 112.394 253.929 112.526 253.746C112.618 253.616 121.837 240.657 121.667 228.264C121.643 226.502 121.515 224.002 121.368 221.108C120.44 202.972 118.512 165.236 133.977 153.292C142.293 146.87 150.979 145.522 156.802 145.522C166.262 145.522 174.086 148.975 175.317 151.351C177.818 155.445 179.974 162.753 181.208 171.364C181.959 176.612 183.202 177.181 188.434 179.575L188.762 179.726C192.002 181.211 194.097 183.551 194.511 186.147C194.806 187.996 194.19 189.734 192.777 191.037C191.244 192.453 190.232 193.116 189.561 193.556C188.449 194.285 188.429 194.3 188.085 196.939C188.014 197.485 187.984 198.009 187.957 198.493C187.84 200.526 187.651 202.844 183.646 201.56C182.978 201.346 182.06 200.907 181.171 200.481C180.396 200.11 179.26 199.566 178.813 199.468C178.579 199.738 178.464 200.206 178.501 200.763C178.605 202.292 179.893 204.604 183.198 206.506C183.368 206.604 183.537 206.693 183.701 206.778C185.797 207.876 186.909 208.894 185.339 217.017C184.294 222.428 179.426 225.409 171.631 225.409C169.408 225.409 167.004 225.168 164.489 224.693C163.585 224.523 162.772 224.436 162.072 224.436C158.274 224.436 157.558 226.791 156.302 232.114C155.788 234.293 155.205 236.764 154.201 239.488C150.303 250.07 150.474 254.872 154.88 258.519C160.165 262.892 164.229 283.103 163.675 288.272C163.321 291.566 156.756 296.451 148.409 296.451ZM113.78 254.199C114.959 256.944 123.331 276.179 130.698 286.429C137.223 293.639 143.935 295.163 148.409 295.163C156.184 295.163 162.128 290.603 162.393 288.134C162.899 283.406 158.842 263.47 154.059 259.512C148.514 254.922 149.406 248.777 152.992 239.043C153.968 236.393 154.542 233.964 155.048 231.819C156.235 226.786 157.093 223.148 162.071 223.148C162.862 223.148 163.73 223.24 164.726 223.428C167.163 223.888 169.486 224.121 171.629 224.121C176.659 224.121 182.901 222.846 184.073 216.774C185.536 209.195 184.567 208.688 183.1 207.92C182.923 207.827 182.74 207.731 182.553 207.624C179.373 205.794 177.376 203.262 177.214 200.852C177.141 199.767 177.476 198.854 178.134 198.345C178.693 197.912 179.665 198.335 181.725 199.32C182.575 199.727 183.453 200.147 184.037 200.335C184.713 200.552 185.258 200.661 185.654 200.661C186.417 200.661 186.559 200.347 186.669 198.42C186.698 197.907 186.731 197.351 186.806 196.773C187.194 193.788 187.346 193.468 188.851 192.478C189.486 192.061 190.446 191.431 191.9 190.089C192.986 189.087 193.46 187.758 193.236 186.348C192.897 184.217 191.023 182.178 188.223 180.895L187.896 180.746C182.575 178.309 180.782 177.49 179.931 171.546C178.721 163.102 176.629 155.97 174.194 151.982C173.377 150.407 166.508 146.808 156.801 146.808C151.179 146.808 142.792 148.111 134.764 154.31C119.832 165.841 121.737 203.124 122.653 221.041C122.801 223.948 122.93 226.46 122.955 228.245C123.117 240.158 115.22 252.121 113.78 254.199Z" fill="#05445E"></path><path d="M121.846 374.426C125.108 375.826 155.868 377.456 155.868 377.456C155.868 377.456 169.384 334.348 163.792 284.944C152.606 294.731 140.022 292.399 127.438 282.146C135.361 306.381 131.635 356.248 121.846 374.426Z" fill="#05445E"></path><path d="M169.172 183.166C169.852 185.345 171.412 186.8 172.655 186.413C173.898 186.024 174.351 183.942 173.672 181.761C172.992 179.582 171.431 178.128 170.192 178.516C168.949 178.905 168.491 180.986 169.172 183.166Z" fill="#05445E"></path><path d="M171.265 179.561C171.206 179.561 171.144 179.553 171.083 179.535C170.742 179.435 170.546 179.077 170.648 178.735L171.814 174.774C171.914 174.434 172.271 174.235 172.613 174.338C172.955 174.439 173.149 174.797 173.049 175.138L171.883 179.1C171.801 179.379 171.544 179.561 171.265 179.561Z" fill="#05445E"></path><path d="M140.255 311.041C136.658 284.509 124.795 266.954 114.302 250.692C112.692 248.196 111.204 248.553 110.518 248.689C105.5 249.684 99.902 252.039 101.337 255.113C101.641 255.763 102.108 256.431 102.69 257.176C100.514 257.615 97.9081 258.161 94.8131 258.843C83.1592 261.404 75.949 266.013 68.7246 273.237C61.5002 280.46 24.5591 325.253 14.3066 336.671C27.8242 362.771 51.0159 366.616 51.0159 366.616C51.0159 366.616 72.21 345.296 85.4918 328.983C85.0256 332.244 83.3962 362.541 78.735 374.425C86.9679 379.201 109.848 378.972 122.573 378.427C124.662 380.344 132.799 378.619 132.799 378.619C132.799 378.619 143.982 338.539 140.255 311.041Z" fill="#189AB4"></path><path d="M100.988 158.871C94.8709 161.143 88.0548 166.734 84.384 190.679C82.6092 202.257 78.3124 214.69 79.1213 226.498C79.8786 237.551 89.451 240.565 99.2089 242.516C107.805 244.235 141.216 252.202 143.323 237.816C145.78 221.033 119.327 212.606 123.122 197.029C123.893 193.863 127.074 189.928 130.348 189.195C134.526 188.26 135.769 191.832 139.017 194.021C142.975 196.69 145.345 195.13 147.723 191.125C149.97 187.339 149.128 181.274 148.772 177.024C148.306 171.454 147.645 169.443 152.477 167.848C159.009 165.694 164.605 161.269 158.315 153.801C166.704 163.761 170.899 162.19 177.715 157.82C184.531 153.449 184.88 149.43 182.259 141.915C179.637 134.4 171.598 122.865 157.441 124.612C143.284 126.36 144.682 130.205 127.729 133.701C110.775 137.199 99.9392 142.267 100.988 158.871Z" fill="#05445E"></path><path d="M164.257 171.923C164.185 171.923 164.113 171.912 164.041 171.886C163.706 171.766 163.53 171.399 163.65 171.063C164.107 169.781 166.692 163.326 172.689 162.085C173.037 162.016 173.379 162.237 173.451 162.586C173.523 162.934 173.299 163.276 172.95 163.348C167.628 164.448 165.28 170.329 164.862 171.497C164.77 171.758 164.521 171.923 164.257 171.923Z" fill="#05445E"></path><path d="M122.079 377.865C122.066 377.865 122.052 377.865 122.039 377.864C121.683 377.841 121.414 377.536 121.436 377.181C121.471 376.621 121.589 375.096 121.762 372.876C122.77 359.92 125.451 325.504 124.468 317.645C123.439 309.416 125.668 307.355 129.044 304.234C129.467 303.844 129.91 303.434 130.371 302.99C128.709 301.931 124.346 299.158 121.043 297.141C117.594 295.034 116.834 292.173 114.807 284.524C114.201 282.243 113.515 279.655 112.604 276.497C109.836 266.885 105.894 262.097 103.284 258.929C102.644 258.151 102.092 257.48 101.631 256.836C101.423 256.546 101.49 256.144 101.78 255.937C102.071 255.729 102.473 255.798 102.679 256.086C103.114 256.695 103.654 257.351 104.279 258.11C106.955 261.361 111.001 266.272 113.842 276.14C114.757 279.313 115.474 282.019 116.051 284.196C117.983 291.479 118.707 294.206 121.714 296.043C125.867 298.581 131.689 302.304 131.747 302.342C131.91 302.447 132.018 302.622 132.04 302.815C132.061 303.008 131.993 303.201 131.856 303.339C131.175 304.02 130.526 304.621 129.92 305.181C126.619 308.232 124.8 309.913 125.747 317.485C126.747 325.475 124.06 359.985 123.047 372.976C122.875 375.188 122.756 376.706 122.723 377.263C122.7 377.603 122.418 377.865 122.079 377.865Z" fill="white"></path><path d="M212.029 293.562L207.134 308.009C207.134 308.009 195.483 286.805 188.026 277.484C181.056 268.772 171.037 263.318 163.098 260.359C157.742 251.495 150.175 250.214 150.175 250.214C150.175 250.214 149.575 252.314 150.684 254.968C151.792 257.623 163.789 278.415 160.994 311.506C158.199 344.596 148.644 377.455 148.644 377.455H155.868C155.868 377.455 155.924 377.272 156.027 376.934C161.462 377.634 172.528 378.748 172.879 376.29C173.344 373.028 179.638 346.928 183.366 338.771C194.552 359.51 204.929 363.741 219.945 357.434C230.679 352.926 239.526 316.867 240.691 302.651C240.924 302.417 212.029 293.562 212.029 293.562Z" fill="#189AB4"></path><path d="M155.868 378.099C155.806 378.099 155.743 378.09 155.68 378.072C155.34 377.967 155.148 377.608 155.253 377.267C155.397 376.795 169.717 329.882 171.785 320.918C173.912 311.698 173.845 310.592 172.458 307.882C170.714 304.478 169.218 301.487 169.218 301.487C169.069 301.188 169.172 300.826 169.457 300.651C171.029 299.68 174.963 296.584 174.294 293.956C172.807 288.12 167.139 268.781 162.997 261.431L162.863 261.196C162.687 260.887 162.794 260.494 163.103 260.317C163.411 260.138 163.805 260.248 163.981 260.557L164.119 260.8C168.326 268.262 174.044 287.761 175.542 293.641C176.422 297.092 172.129 300.392 170.627 301.424C171.127 302.418 172.295 304.741 173.605 307.298C175.226 310.462 175.161 312.022 173.042 321.21C170.964 330.218 156.629 377.172 156.485 377.646C156.4 377.919 156.145 378.099 155.868 378.099Z" fill="white"></path><path d="M183.364 339.415C183.276 339.415 183.184 339.395 183.097 339.357C182.773 339.209 182.632 338.826 182.778 338.503C193.254 315.573 189.35 307.319 187.016 302.387C186.61 301.529 186.26 300.788 186.016 300.057C185.904 299.72 186.087 299.355 186.423 299.242C186.765 299.129 187.127 299.314 187.239 299.649C187.458 300.306 187.793 301.016 188.18 301.835C190.609 306.969 194.674 315.561 183.949 339.037C183.842 339.274 183.609 339.415 183.364 339.415Z" fill="#05445E"></path><path d="M210.924 317.392C210.683 317.392 210.452 317.259 210.341 317.027C210.316 316.973 207.742 311.587 205.434 306.045C205.298 305.717 205.452 305.339 205.781 305.203C206.108 305.071 206.485 305.221 206.623 305.551C208.92 311.063 211.477 316.42 211.505 316.473C211.658 316.794 211.523 317.179 211.202 317.332C211.11 317.373 211.016 317.392 210.924 317.392Z" fill="#05445E"></path><path d="M213.893 288.027C216.514 279.814 220.36 257.618 221.233 249.403C222.106 241.189 217.213 229.654 222.979 222.314C228.747 214.973 232.418 211.303 233.991 207.633C235.564 203.962 239.234 203.438 241.157 207.109C243.08 210.78 240.107 217.247 235.74 221.789C246.4 214.973 247.274 217.419 250.594 212.177C253.916 206.934 260.383 193.475 264.578 193.826C268.074 189.106 272.092 191.728 272.792 198.196C274.89 198.021 276.811 202.915 275.414 210.254C280.482 213.227 279.957 224.061 272.792 232.276C265.626 240.491 251.994 245.384 249.023 252.027C246.051 258.667 241.158 297.642 241.158 297.642L213.893 288.027Z" fill="white"></path><path d="M241.157 298.285C241.085 298.285 241.013 298.272 240.942 298.249L213.677 288.635C213.349 288.519 213.173 288.164 213.278 287.832C215.92 279.556 219.752 257.234 220.593 249.335C220.886 246.567 220.51 243.415 220.111 240.079C219.337 233.613 218.536 226.927 222.474 221.916C224.249 219.658 225.817 217.755 227.2 216.078C230.299 212.32 232.346 209.838 233.399 207.379C234.316 205.237 235.937 203.96 237.732 203.96C239.323 203.96 240.778 204.998 241.727 206.809C243.447 210.091 241.694 215.057 238.692 219.242C241.443 217.664 243.359 216.82 244.753 216.206C247.303 215.083 248.258 214.663 250.051 211.831C250.759 210.713 251.636 209.172 252.567 207.542C256.983 199.799 260.913 193.371 264.261 193.178C265.821 191.198 267.301 190.772 268.283 190.772C270.823 190.772 272.788 193.433 273.367 197.601C273.784 197.703 274.284 197.964 274.776 198.558C276.064 200.115 277.167 204.015 276.125 209.941C277.755 211.067 278.826 212.968 279.234 215.47C280.101 220.791 277.762 227.553 273.277 232.696C269.896 236.573 265.227 239.639 260.711 242.603C255.782 245.84 251.127 248.897 249.611 252.287C246.713 258.765 241.846 297.332 241.797 297.72C241.773 297.912 241.663 298.084 241.497 298.187C241.393 298.253 241.275 298.285 241.157 298.285ZM214.691 287.627L240.618 296.769C241.349 291.043 245.66 257.967 248.434 251.764C250.105 248.03 254.913 244.873 260.003 241.531C264.445 238.613 269.04 235.597 272.305 231.854C276.549 226.988 278.77 220.641 277.961 215.682C277.585 213.377 276.592 211.693 275.087 210.811C274.851 210.673 274.729 210.402 274.78 210.134C275.8 204.772 275.016 200.871 273.783 199.383C273.577 199.133 273.256 198.836 272.9 198.836C272.571 198.836 272.186 198.593 272.151 198.265C271.751 194.556 270.195 192.064 268.283 192.064C267.239 192.064 266.136 192.806 265.096 194.211C264.963 194.39 264.75 194.493 264.525 194.47H264.522C261.507 194.47 256.801 202.722 253.687 208.183C252.749 209.828 251.863 211.381 251.139 212.524C249.135 215.687 247.924 216.22 245.272 217.388C243.305 218.254 240.611 219.441 236.087 222.333C235.812 222.507 235.448 222.449 235.242 222.199C235.035 221.947 235.05 221.579 235.276 221.345C239.234 217.229 242.441 210.946 240.588 207.409C239.859 206.017 238.845 205.25 237.733 205.25C236.47 205.25 235.293 206.237 234.584 207.888C233.457 210.517 231.364 213.057 228.194 216.9C226.815 218.572 225.253 220.468 223.487 222.714C219.879 227.307 220.647 233.723 221.389 239.928C221.797 243.339 222.182 246.562 221.873 249.474C221.047 257.231 217.344 278.856 214.691 287.627Z" fill="#05445E"></path><path d="M242.03 233.794C241.739 233.794 241.475 233.595 241.404 233.299C240.521 229.59 237.199 223.537 235.382 222.325C235.085 222.128 235.006 221.728 235.203 221.433C235.4 221.136 235.799 221.057 236.095 221.254C238.357 222.762 241.764 229.256 242.656 233.001C242.739 233.348 242.525 233.694 242.178 233.777C242.131 233.788 242.08 233.794 242.03 233.794Z" fill="#05445E"></path><path d="M263.354 230.298C263.117 230.298 262.891 230.168 262.777 229.942C262.127 228.64 254.389 219.364 251.439 218.38C251.102 218.268 250.92 217.904 251.032 217.566C251.144 217.229 251.507 217.046 251.846 217.159C255.228 218.287 263.222 227.954 263.929 229.367C264.089 229.685 263.958 230.071 263.64 230.231C263.549 230.276 263.451 230.298 263.354 230.298Z" fill="#05445E"></path><path d="M261.78 231.172C261.537 231.172 261.304 231.035 261.194 230.799C261.045 230.476 261.187 230.093 261.51 229.944C263.533 229.01 267.985 223.303 269.186 216.779C269.802 213.435 270.83 211.358 272.329 210.429C273.717 209.569 275.253 209.864 276.287 210.159C276.63 210.257 276.827 210.613 276.73 210.955C276.631 211.296 276.275 211.489 275.934 211.398C274.646 211.028 273.743 211.069 273.009 211.524C271.851 212.241 270.992 214.088 270.454 217.014C269.216 223.729 264.575 229.948 262.051 231.113C261.962 231.153 261.87 231.172 261.78 231.172Z" fill="#05445E"></path><path d="M259.508 225.404C259.328 225.404 259.15 225.329 259.023 225.182C258.79 224.913 258.818 224.507 259.086 224.273C262.896 220.96 264.457 216.13 265.867 208.907C267.164 202.258 269.693 198.559 273.379 197.91C273.727 197.845 274.063 198.081 274.125 198.432C274.187 198.782 273.953 199.115 273.603 199.177C270.494 199.725 268.317 203.081 267.132 209.153C265.669 216.652 264.022 221.689 259.932 225.245C259.809 225.352 259.659 225.404 259.508 225.404Z" fill="#05445E"></path><path d="M255.487 220.861C255.359 220.861 255.23 220.823 255.118 220.744C254.827 220.539 254.757 220.137 254.962 219.847C256.858 217.151 259.238 209.448 261.151 203.259C262.582 198.63 263.817 194.632 264.709 192.994C264.881 192.681 265.271 192.566 265.583 192.736C265.896 192.906 266.01 193.298 265.84 193.609C265.008 195.134 263.733 199.265 262.381 203.638C260.339 210.241 258.027 217.726 256.014 220.588C255.89 220.765 255.691 220.861 255.487 220.861Z" fill="#05445E"></path><path d="M84.093 331.026C83.9461 331.026 83.7967 330.976 83.6769 330.873C83.4064 330.642 83.373 330.236 83.6035 329.965C87.5306 325.346 95.4312 316.975 95.5111 316.891C95.7545 316.635 96.1615 316.621 96.4204 316.866C96.6793 317.11 96.6909 317.517 96.4462 317.776C96.3676 317.859 88.4902 326.205 84.5837 330.799C84.4575 330.95 84.2758 331.026 84.093 331.026Z" fill="#05445E"></path><path d="M212.754 285.95C210.178 290.78 208.688 298.613 209.212 299.313C209.736 300.012 228.854 301.567 241.895 310.905C244.866 312.302 245.816 298.535 245.352 296.942C244.128 292.747 214.328 284.202 212.754 285.95Z" fill="#05445E"></path><path d="M140.022 310.52C139.871 310.52 139.722 310.468 139.6 310.361C139.54 310.311 133.668 305.213 130.936 303.393C130.641 303.196 130.56 302.796 130.757 302.501C130.954 302.206 131.352 302.125 131.65 302.322C134.449 304.187 140.2 309.178 140.443 309.39C140.711 309.623 140.739 310.029 140.506 310.298C140.38 310.445 140.201 310.52 140.022 310.52Z" fill="white"></path><path d="M161.248 307.9C161.083 307.9 160.918 307.837 160.792 307.712C160.541 307.461 160.541 307.052 160.792 306.801C163.253 304.341 166.398 302.453 168.479 301.204C168.995 300.894 169.438 300.629 169.776 300.41C170.075 300.217 170.474 300.301 170.667 300.598C170.86 300.896 170.775 301.295 170.478 301.488C170.13 301.715 169.674 301.988 169.142 302.307C167.115 303.523 164.052 305.363 161.704 307.711C161.578 307.837 161.413 307.9 161.248 307.9Z" fill="white"></path><path d="M142.53 216.367C141.85 210.013 136.841 203.501 130.894 207.299C125.723 210.602 124.149 219.493 128.881 223.709C130.895 225.503 134.156 226.341 136.882 225.807C141.461 224.909 142.991 220.674 142.53 216.367Z" fill="#67E6FF"></path></g><path d="M203.587 377.369H203.585C191.018 377.369 178.711 376.906 164.463 376.367C152.224 375.906 138.351 375.381 121.835 375.07C73.5856 374.161 50.9709 370.686 21.1782 339.449C-6.70185 310.22 -0.403536 233.849 7.01406 201.443C23.9165 127.61 69.1755 86.9242 141.537 80.5177C146.171 80.1081 150.922 79.8995 155.656 79.8995C203.514 79.8995 251.581 100.886 284.235 136.038C309.318 163.04 338.004 211.689 332.217 290.115C326.278 370.61 271.54 374.019 235.317 376.277L232.344 376.465C222.694 377.081 213.555 377.369 203.587 377.369ZM155.656 81.1862C150.96 81.1862 146.247 81.3923 141.649 81.7993C69.9071 88.1517 25.0306 128.502 8.26728 201.729C0.89992 233.915 -5.41257 309.708 22.1081 338.56C51.5647 369.442 73.9888 372.88 121.857 373.781C138.386 374.093 152.264 374.616 164.511 375.079C178.747 375.617 191.041 376.08 203.583 376.08H203.586C213.527 376.08 222.638 375.793 232.262 375.177L235.236 374.991C271.012 372.762 325.075 369.394 330.932 290.019C335.484 228.308 319.01 175.365 283.29 136.913C250.875 102.018 203.161 81.1862 155.656 81.1862Z" fill="#05445E"></path><path d="M221.487 112.147C230.214 109.87 258.112 104.556 272.725 101.52C287.338 98.4827 303.28 96.3949 305.366 97.3454C307.453 98.2934 284.301 127.519 273.483 139.095C269.878 141.561 264.944 137.008 264.944 137.008C254.697 147.635 243.12 151.62 241.223 152C239.324 152.379 238.375 140.614 238.186 133.591C237.996 126.57 239.242 125.202 233.442 122.396C215.413 113.663 221.487 112.147 221.487 112.147Z" fill="#70BADB"></path><path d="M241.222 152.643C240.938 152.643 240.679 152.455 240.601 152.169C240.507 151.825 240.709 151.471 241.052 151.378C242.003 151.032 245.467 145.423 247.995 141.327C250.713 136.926 253.28 132.767 254.809 131.238C257.69 128.357 284.236 110.236 295.503 102.609L240.32 124.511C239.99 124.641 239.616 124.48 239.483 124.15C239.351 123.819 239.514 123.445 239.844 123.314L300.57 99.213C300.888 99.0842 301.254 99.2336 301.396 99.5492C301.536 99.8635 301.403 100.234 301.096 100.388C299.22 101.382 258.731 129.136 255.717 132.148C254.294 133.572 251.647 137.858 249.087 142.003C244.692 149.123 242.635 152.28 241.388 152.62C241.335 152.635 241.278 152.643 241.222 152.643Z" fill="#05445E"></path><path d="M266.081 138.411C265.949 138.411 265.816 138.371 265.701 138.287L265.424 138.084C261.533 135.238 256.689 131.689 255.553 132.268C255.235 132.427 254.85 132.298 254.689 131.98C254.529 131.662 254.659 131.275 254.977 131.116C256.73 130.241 260.202 132.669 266.184 137.043L266.461 137.245C266.748 137.455 266.812 137.858 266.602 138.145C266.475 138.319 266.28 138.411 266.081 138.411Z" fill="#05445E"></path><path d="M315.609 242.265C308.31 242.933 304.166 247.467 304.898 260.368C305.627 273.272 302.705 286.589 307.819 291.58C312.932 296.576 325.832 296.578 337.764 296.785C349.693 296.991 365.143 296.642 369.716 296.576C380.488 296.42 384.322 294.549 385.784 286.119C386.644 281.157 384.58 253.168 384.506 250.225C384.322 242.889 379.576 241.953 369.169 241.484C359.189 241.035 322.426 241.64 315.609 242.265Z" fill="#189AB4"></path><path d="M344.913 276.423C344.864 276.423 344.817 276.421 344.769 276.421C339.634 276.344 335.459 272.024 332.395 268.268C326.734 261.325 313.997 247.087 310.901 244.441C310.631 244.211 310.598 243.804 310.83 243.533C311.061 243.262 311.468 243.232 311.738 243.463C314.875 246.143 327.704 260.477 333.395 267.453C336.281 270.992 340.185 275.064 344.788 275.133C348.082 275.155 351.523 273.157 355.027 269.114C364.67 257.989 378.981 243.974 379.124 243.834C379.38 243.585 379.788 243.59 380.034 243.844C380.283 244.098 380.279 244.506 380.024 244.754C379.881 244.895 365.609 258.872 356 269.957C352.233 274.305 348.603 276.423 344.913 276.423Z" fill="#05445E"></path><path d="M307.819 292.224C307.582 292.224 307.354 292.092 307.242 291.867C307.083 291.549 307.212 291.162 307.532 291.004C309.206 290.171 317.745 282.11 323.979 276.225C329.144 271.35 332.1 268.571 332.801 268.143C333.105 267.956 333.5 268.053 333.687 268.357C333.872 268.66 333.777 269.056 333.473 269.243C332.855 269.622 328.973 273.285 324.864 277.163C316.415 285.137 309.816 291.305 308.106 292.157C308.013 292.203 307.915 292.224 307.819 292.224Z" fill="#05445E"></path><path d="M380.613 294.306C380.392 294.306 380.177 294.193 380.056 293.988C379.647 293.29 374.849 288.093 370.209 283.067C364.085 276.434 357.753 269.574 356.795 268.053C356.606 267.753 356.696 267.354 356.996 267.166C357.3 266.975 357.695 267.069 357.883 267.367C358.778 268.789 365.354 275.911 371.155 282.195C377.064 288.597 380.709 292.559 381.166 293.338C381.347 293.644 381.244 294.038 380.936 294.22C380.837 294.278 380.725 294.306 380.613 294.306Z" fill="#05445E"></path><mask id="mask1_201_719" style="mask-type:luminance" maskUnits="userSpaceOnUse" x="377" y="1" width="330" height="288"><path d="M490.115 9.59012C445.12 19.075 374.687 38.6577 377.927 124.498C381.168 210.338 414.172 254.581 469.276 271.748C524.381 288.916 659.594 306.549 688.302 249.478C717.011 192.406 707.546 110.927 692.73 77.0543C677.913 43.1812 641.997 -22.4244 490.115 9.59012Z" fill="white"></path></mask><g mask="url(#mask1_201_719)"><path d="M611.832 79.6071C608.29 64.5813 575.66 45.2613 561.707 50.6284C547.754 55.9942 565.571 62.2191 565.571 62.2191C544.105 58.3551 533.801 60.9298 531.654 66.2982C529.507 71.6653 538.523 73.8111 538.523 73.8111C523.926 74.2413 507.612 85.6182 509.973 93.5613C512.334 101.503 521.994 98.6051 521.994 98.6051C508.255 109.661 510.496 120.903 524.831 119.575C509.758 130.913 507.613 151.735 513.408 159.249C519.203 166.763 524.829 155.39 524.829 155.39C518.774 172.129 527.789 183.077 536.376 169.124C534.445 188.229 551.403 190.805 556.77 181.36C561.922 199.607 574.158 196.815 576.305 187.8C582.96 196.172 596.054 193.381 598.63 184.365C605.929 192.952 612.369 185.116 611.725 178.462C619.238 187.263 631.045 188.336 633.406 172.344C644.139 180.287 649.506 180.072 646.608 161.074C664.533 167.621 673.978 147.657 653.37 130.484C667.109 134.133 665.606 119.965 645.964 111.486C659.81 111.164 661.527 101.718 654.658 94.7424C647.789 87.7653 636.197 74.24 611.832 79.6071Z" fill="#05445E"></path><path d="M543.605 116.275C541.509 128.859 545.237 132.589 548.965 141.444C552.695 150.299 547.481 159.631 557.414 170.688C566.676 181 580.659 180.36 580.659 180.36L584.619 196.439L618.876 187.583L611.42 155.308C611.42 155.308 618.411 151.465 616.313 137.714C614.216 123.965 613.983 89.9433 580.659 95.0695C547.334 100.194 546.636 106.253 543.605 116.275Z" fill="white"></path><path d="M584.619 197.083C584.503 197.083 584.39 197.052 584.289 196.992C584.141 196.904 584.036 196.76 583.994 196.592L580.156 181.01C577.722 181.009 565.375 180.513 556.936 171.117C550.554 164.011 550.267 157.44 550.014 151.641C549.862 148.169 549.719 144.888 548.373 141.691C547.652 139.976 546.937 138.47 546.246 137.013C543.456 131.135 541.252 126.493 542.973 116.167L543.291 115.088C546.203 105.334 547.96 99.4449 580.563 94.4307C582.845 94.0803 585.047 93.9013 587.106 93.9013C611.641 93.9013 614.578 118.279 616.332 132.844C616.543 134.603 616.737 136.215 616.95 137.615C618.816 149.84 613.7 154.494 612.149 155.599L619.505 187.435C619.582 187.775 619.376 188.116 619.038 188.204L584.781 197.06C584.727 197.077 584.673 197.083 584.619 197.083ZM580.659 179.716C580.953 179.716 581.214 179.917 581.283 180.205L585.088 195.652L618.107 187.115L610.791 155.452C610.727 155.171 610.857 154.882 611.108 154.743C611.173 154.706 617.672 150.89 615.675 137.809C615.46 136.398 615.264 134.773 615.051 133C613.348 118.859 610.496 95.1906 587.104 95.1906C585.109 95.1906 582.973 95.3632 580.756 95.7045C548.958 100.595 547.29 106.189 544.522 115.456L544.222 116.459C542.588 126.306 544.609 130.567 547.407 136.462C548.106 137.932 548.827 139.45 549.56 141.193C550.995 144.601 551.143 147.993 551.301 151.586C551.556 157.44 551.82 163.495 557.894 170.257C565.987 179.266 577.873 179.722 580.173 179.722C580.791 179.722 580.639 179.716 580.659 179.716Z" fill="#05445E"></path><path d="M624.224 125.97C623.061 118.948 621.634 112.306 618.004 106.048C615.766 102.19 613.745 98.22 609.961 95.6478C599.331 88.4235 585.016 88.8562 572.919 91.3665C563.312 93.3604 552.617 96.7633 545.173 103.386C542.699 105.586 532.679 115.574 539.168 118.461C542.968 120.151 547.155 116.565 550.021 114.144C550.151 114.508 550.355 114.9 550.652 115.348C552.584 118.246 557.414 118.568 560.634 117.924C569.006 116.636 577.056 111.162 583.174 105.044C581.886 106.976 580.276 109.552 580.92 112.128C582.208 115.026 585.106 115.348 587.682 115.348C593.156 115.026 598.308 110.518 602.172 106.976C598.952 113.094 595.41 119.212 595.088 126.296C594.766 129.516 595.088 133.058 596.376 135.956C597.986 139.82 601.528 139.82 604.748 137.566C603.138 142.718 602.172 147.548 604.426 152.699C605.769 155.77 610.007 160.964 615.911 159.891C620.626 159.034 621.5 147.973 623.209 144.113C626.399 136.909 625.522 133.814 624.224 125.97Z" fill="#05445E"></path><path d="M537.15 120.774C534.267 120.774 531.479 119.749 530.701 116.826C530.247 115.128 530.516 113.068 530.92 111.707C531.7 109.056 534.11 105.304 536.288 103.344C536.549 103.105 536.956 103.126 537.197 103.391C537.436 103.655 537.414 104.062 537.148 104.301C535.155 106.095 532.868 109.654 532.155 112.071C531.802 113.264 531.561 115.052 531.946 116.494C532.913 120.128 538.045 119.494 539.065 119.329C542.119 118.838 544.383 118.138 546.19 117.128C546.499 116.957 546.893 117.066 547.067 117.375C547.241 117.686 547.13 118.078 546.82 118.252C544.876 119.338 542.478 120.085 539.27 120.602C538.576 120.712 537.859 120.774 537.15 120.774Z" fill="white"></path><path d="M571.139 158.601C571.127 158.601 571.114 158.601 571.104 158.6C566.866 158.366 564.218 157.387 563.008 155.606C561.503 153.393 562.464 150.505 563.395 147.713C563.577 147.168 563.757 146.624 563.917 146.092C565.344 141.332 562.075 135.586 558.434 132.262C555.56 129.638 551.896 129.146 549.542 129.818C548.205 130.201 547.286 130.954 547.024 131.888C546.927 132.231 546.577 132.429 546.229 132.334C545.886 132.237 545.688 131.882 545.783 131.539C546.171 130.166 547.411 129.088 549.189 128.581C551.89 127.808 556.064 128.354 559.302 131.311C563.363 135.018 566.745 141.141 565.15 146.463C564.987 147.007 564.802 147.563 564.616 148.121C563.786 150.617 562.926 153.197 564.073 154.883C565.028 156.291 567.419 157.109 571.175 157.317C571.53 157.337 571.802 157.641 571.783 157.996C571.763 158.336 571.479 158.601 571.139 158.601Z" fill="#05445E"></path><path d="M569.168 130.133C569.028 130.133 568.886 130.088 568.768 129.994C568.488 129.772 568.442 129.368 568.663 129.088C570.912 126.248 577.426 120.372 589.291 127.127C589.6 127.303 589.708 127.696 589.533 128.005C589.356 128.314 588.964 128.421 588.654 128.246C578.053 122.213 572.213 126.685 569.673 129.888C569.546 130.05 569.359 130.133 569.168 130.133Z" fill="#05445E"></path><path d="M584.298 140.089C585.376 142.102 585.325 144.234 584.177 144.848C583.031 145.465 581.224 144.332 580.143 142.317C579.061 140.307 579.119 138.175 580.263 137.563C581.412 136.948 583.216 138.077 584.298 140.089Z" fill="#05445E"></path><path d="M581.052 138.522C580.949 138.522 580.846 138.497 580.75 138.446L577.103 136.503C576.791 136.336 576.671 135.945 576.838 135.633C577.007 135.318 577.398 135.204 577.71 135.367L581.356 137.309C581.669 137.477 581.789 137.867 581.622 138.18C581.506 138.398 581.283 138.522 581.052 138.522Z" fill="#05445E"></path><path d="M560.005 142.187C561.082 144.2 561.031 146.331 559.883 146.946C558.738 147.562 556.93 146.429 555.85 144.414C554.768 142.404 554.825 140.272 555.97 139.66C557.118 139.044 558.923 140.173 560.005 142.187Z" fill="#05445E"></path><path d="M556.76 140.618C556.657 140.618 556.553 140.594 556.457 140.542L552.811 138.6C552.498 138.433 552.378 138.042 552.545 137.729C552.713 137.414 553.105 137.298 553.417 137.463L557.064 139.405C557.376 139.572 557.496 139.963 557.329 140.276C557.213 140.495 556.99 140.618 556.76 140.618Z" fill="#05445E"></path><path d="M575.466 169.557C572.393 169.557 569.375 166.704 566.967 161.523C566.869 161.313 566.891 161.067 567.026 160.879C567.159 160.691 567.38 160.589 567.615 160.611C568.274 160.676 568.956 160.745 569.625 160.745C572.111 160.745 575.056 159.767 582.754 154.77C582.961 154.634 583.225 154.632 583.438 154.758C583.649 154.886 583.769 155.123 583.746 155.369C582.941 164.121 579.768 169.557 575.466 169.557ZM568.631 161.994C570.691 165.998 573.149 168.269 575.466 168.269C578.788 168.269 581.42 163.728 582.319 156.579C574.245 161.717 571.543 162.2 568.631 161.994Z" fill="#05445E"></path><path d="M573.667 169.06C573.612 169.06 573.554 169.054 573.497 169.037C573.153 168.943 572.952 168.589 573.045 168.246C574.18 164.084 578.804 160.975 581.845 161.154C582.199 161.176 582.469 161.481 582.447 161.837C582.426 162.191 582.151 162.462 581.765 162.44C579.175 162.275 575.244 165.084 574.288 168.585C574.211 168.872 573.95 169.06 573.667 169.06Z" fill="#05445E"></path><path d="M496.243 278.522C502.36 272.582 531.547 233.956 542.907 220.148C554.266 206.341 567.375 205.992 585.203 205.817C580.813 188.228 581.979 187.839 582.853 188.013C583.726 188.188 600.38 191.82 616.985 180.285C621.385 179.105 621.206 196.729 625.401 199.001C629.595 201.274 657.558 195.505 671.367 209.314C685.174 223.12 694.787 255.803 694.787 255.803C687.271 267.862 636.237 305.788 572.096 288.311C570.872 282.892 562.133 274.502 559.511 263.843C548.675 277.999 540.984 288.485 540.984 288.485C540.984 288.485 506.555 286.213 496.243 278.522Z" fill="#189AB4"></path><path d="M598.577 211.114C591.555 211.114 586.662 208.274 584.738 206.263C584.493 206.005 584.501 205.598 584.758 205.352C585.014 205.106 585.423 205.116 585.669 205.373C589.28 209.149 604.096 215.932 624.1 198.171C624.367 197.934 624.774 197.959 625.009 198.225C625.246 198.492 625.221 198.898 624.955 199.135C614.613 208.317 605.545 211.114 598.577 211.114Z" fill="#05445E"></path><path d="M594.874 210.95C594.597 210.95 594.342 210.771 594.257 210.494C594.024 209.727 588.533 191.682 587.954 189.126C587.875 188.779 588.093 188.434 588.439 188.356C588.788 188.277 589.13 188.495 589.21 188.841C589.779 191.351 595.432 209.931 595.49 210.119C595.593 210.459 595.402 210.82 595.061 210.923C594.999 210.941 594.936 210.95 594.874 210.95Z" fill="#05445E"></path><path d="M602.446 210.832C602.172 210.832 601.918 210.656 601.831 210.38L595.074 188.826C594.968 188.487 595.156 188.125 595.496 188.019C595.835 187.916 596.197 188.102 596.304 188.442L603.061 209.996C603.166 210.335 602.978 210.697 602.638 210.803C602.575 210.822 602.511 210.832 602.446 210.832Z" fill="#05445E"></path><path d="M610.37 208.501C610.1 208.501 609.847 208.329 609.757 208.058L602.999 187.435C602.888 187.096 603.074 186.733 603.411 186.622C603.742 186.511 604.112 186.695 604.224 187.033L610.982 207.656C611.093 207.995 610.907 208.358 610.57 208.469C610.504 208.491 610.437 208.501 610.37 208.501Z" fill="#05445E"></path><path d="M617.596 204.774C617.318 204.774 617.061 204.592 616.979 204.313L611.268 184.971C611.167 184.629 611.362 184.271 611.703 184.171C612.043 184.068 612.403 184.265 612.503 184.606L618.214 203.948C618.314 204.289 618.12 204.647 617.779 204.748C617.717 204.765 617.656 204.774 617.596 204.774Z" fill="#05445E"></path><path d="M580.844 181.123C580.774 181.123 580.707 181.122 580.64 181.121C580.286 181.112 580.004 180.817 580.013 180.461C580.022 180.106 580.281 179.832 580.674 179.833C585.237 179.993 597.502 175.986 605.326 166.322C605.55 166.045 605.955 166.004 606.232 166.226C606.509 166.45 606.551 166.856 606.327 167.132C598.336 177 585.754 181.123 580.844 181.123Z" fill="#05445E"></path><path d="M561.957 270.954C561.709 270.954 561.474 270.811 561.367 270.569C557.101 260.871 556.77 251.196 556.77 248.463C556.77 248.107 557.059 247.819 557.414 247.819C557.77 247.819 558.058 248.107 558.058 248.463C558.058 250.364 558.274 260.338 562.547 270.051C562.69 270.377 562.542 270.757 562.216 270.9C562.132 270.936 562.044 270.954 561.957 270.954Z" fill="#05445E"></path><path d="M655.811 283.187C655.531 283.187 655.275 283.004 655.194 282.725C655.136 282.528 649.4 262.899 646.984 255.48C646.875 255.141 647.06 254.779 647.396 254.668C647.741 254.56 648.098 254.744 648.209 255.082C650.632 262.519 656.372 282.166 656.429 282.363C656.529 282.705 656.334 283.062 655.992 283.161C655.932 283.178 655.87 283.187 655.811 283.187Z" fill="#05445E"></path><path d="M613.584 161.024C611.586 161.024 609.28 160.362 606.81 159.068C606.496 158.903 606.373 158.514 606.538 158.198C606.704 157.881 607.097 157.763 607.409 157.926C610.348 159.467 612.986 160.043 615.018 159.587C619.81 158.498 621.8 150.104 621.8 145.851C621.8 145.576 621.976 145.331 622.236 145.241C622.497 145.153 622.786 145.24 622.955 145.459C625.146 148.308 627.723 149.636 631.067 149.636C634.329 149.417 637.481 145.806 637.887 142.965C637.938 142.613 638.272 142.364 638.616 142.419C638.967 142.469 639.213 142.796 639.163 143.148C638.682 146.528 635.058 150.661 631.111 150.924H631.107C627.883 150.924 625.232 149.802 623.018 147.505C622.575 152.776 620.093 159.755 615.304 160.844C614.761 160.964 614.186 161.024 613.584 161.024Z" fill="white"></path></g><path d="M584.475 289.123C584.468 289.123 584.467 289.123 584.461 289.123C539.003 289.122 493.897 280.093 469.085 272.363C410.377 254.072 380.349 205.713 377.285 124.522C375.861 86.7877 388.735 57.6415 415.552 37.8926C437.75 21.5453 465.635 14.093 489.982 8.96029C516.989 3.26862 541.838 0.38092 563.84 0.38092C603.515 0.38092 635.277 9.74597 658.246 28.2133C677.145 43.4078 686.918 62.1573 693.32 76.7954C701.474 95.4366 706.901 125.231 707.483 154.553C707.99 180.11 705.173 217.373 688.878 249.766C672.515 282.292 623.074 289.123 584.475 289.123ZM563.838 1.66892C541.926 1.66892 517.166 4.54631 490.247 10.22C433.343 22.2164 375.577 45.1711 378.571 124.473C381.612 205.052 411.344 253.025 469.467 271.133C496.148 279.445 542.051 287.834 584.459 287.835C584.464 287.835 584.47 287.835 584.473 287.835C622.712 287.835 671.657 281.13 687.726 249.188C703.903 217.03 706.698 179.989 706.193 154.579C705.615 125.415 700.229 95.8076 692.139 77.3119C683.089 56.624 659.05 1.66892 563.838 1.66892Z" fill="#05445E"></path><path d="M434.885 67.0916H384.396C375.618 67.0916 368.912 74.6406 369.45 83.7673L370.811 106.964C371.306 115.419 378.388 122.048 386.601 121.923L423.132 121.373C425.038 127.042 426.435 132.557 430.089 132.289C432.703 132.031 433.824 126.502 434.568 121.166C442.231 120.69 448.541 114.16 448.828 106.11L449.649 83.4028C449.971 74.4718 443.38 67.0916 434.885 67.0916Z" fill="white"></path><path d="M429.833 132.942C426.255 132.942 424.782 128.454 423.077 123.259C422.943 122.85 422.807 122.438 422.67 122.025L386.37 122.57C377.794 122.57 370.677 115.732 370.167 107.002L368.805 83.8047C368.53 79.1138 370.144 74.544 373.235 71.2673C376.165 68.1594 380.13 66.4476 384.395 66.4476H434.885C438.972 66.4476 442.808 68.0911 445.687 71.0767C448.781 74.2838 450.46 78.7853 450.292 83.4247L449.47 106.132C449.179 114.243 442.927 121.007 435.131 121.766C434.312 127.455 433.114 132.637 430.15 132.929C430.034 132.938 429.933 132.942 429.833 132.942ZM423.131 120.729C423.408 120.729 423.652 120.906 423.741 121.168C423.932 121.734 424.117 122.299 424.302 122.857C425.891 127.698 427.288 131.86 430.041 131.646C432.488 131.405 433.535 123.901 433.931 121.077C433.973 120.774 434.223 120.542 434.528 120.523C441.912 120.066 447.912 113.725 448.185 106.087L449.007 83.3796C449.162 79.088 447.616 74.9291 444.763 71.9718C442.129 69.2413 438.623 67.7369 434.888 67.7369H384.398C380.49 67.7369 376.859 69.3044 374.174 72.1521C371.326 75.1725 369.84 79.392 370.093 83.7313L371.455 106.928C371.917 114.844 378.61 121.283 386.373 121.283L386.591 121.28L423.123 120.73C423.123 120.73 423.127 120.729 423.131 120.729Z" fill="#05445E"></path><path d="M394.121 95.2164C394.121 98.0152 391.904 100.285 389.171 100.285C386.437 100.285 384.22 98.0152 384.22 95.2164C384.22 92.4163 386.437 90.1468 389.171 90.1468C391.904 90.1481 394.121 92.4163 394.121 95.2164Z" fill="#70BADB"></path><path d="M413.69 95.2164C413.69 98.0152 411.473 100.285 408.739 100.285C406.006 100.285 403.788 98.0152 403.788 95.2164C403.788 92.4163 406.006 90.1468 408.739 90.1468C411.473 90.1481 413.69 92.4163 413.69 95.2164Z" fill="#70BADB"></path><path d="M433.257 95.2164C433.257 98.0152 431.04 100.285 428.307 100.285C425.572 100.285 423.355 98.0152 423.355 95.2164C423.355 92.4163 425.572 90.1468 428.307 90.1468C431.042 90.1481 433.257 92.4163 433.257 95.2164Z" fill="#70BADB"></path><path d="M597.271 503.296H547.141C546.785 503.296 546.497 503.007 546.497 502.652C546.497 502.297 546.785 502.008 547.141 502.008H597.272C597.628 502.008 597.916 502.297 597.916 502.652C597.915 503.009 597.628 503.296 597.271 503.296Z" fill="#05445E"></path><path d="M449.113 320.821C434.258 313.656 431.461 297.577 453.133 291.46C437.927 272.758 453.307 261.922 463.62 259.824C473.932 257.727 494.38 262.971 514.129 279.923C533.879 296.876 542.443 297.751 548.386 311.032C554.328 324.316 551.531 334.627 545.588 348.086C539.647 361.543 538.948 365.738 550.483 376.574C562.018 387.409 571.455 398.245 563.417 418.694C555.377 439.142 459.251 431.627 454.707 417.644C450.163 403.663 460.999 352.453 460.999 352.453L449.113 320.821Z" fill="#05445E"></path><path d="M438.103 404.539C435.829 394.577 438.468 371.704 458.376 360.32C472.895 352.018 480.572 363.642 480.572 363.642L482.844 401.917C482.844 401.917 442.996 404.714 438.103 404.539Z" fill="#05445E"></path><path d="M326.246 347.038C324.5 344.592 321.881 341.244 319.435 342.991C316.989 344.738 320.884 358.931 331.84 357.175C329.042 352.981 326.246 347.038 326.246 347.038Z" fill="white"></path><path d="M330.004 357.968C323.865 357.968 320.076 352.95 318.701 348.656C317.987 346.429 317.654 343.473 319.062 342.467C319.623 342.067 320.232 341.862 320.869 341.862C323.043 341.862 324.99 344.17 326.77 346.662C326.857 346.822 329.639 352.712 332.376 356.817C332.497 357 332.517 357.23 332.43 357.431C332.342 357.632 332.158 357.775 331.942 357.81C331.287 357.916 330.636 357.968 330.004 357.968ZM320.869 343.15C320.5 343.15 320.155 343.27 319.81 343.516C319.331 343.857 319.107 345.696 319.928 348.263C321.232 352.332 324.563 356.68 330.004 356.68C330.004 356.68 330.004 356.68 330.006 356.68C330.245 356.68 330.49 356.671 330.735 356.655C328.142 352.56 325.69 347.367 325.664 347.311C324.811 346.137 322.678 343.15 320.869 343.15Z" fill="#05445E"></path><path d="M357.181 348.612C351.24 346.689 347.394 341.971 349.318 338.124C351.24 334.281 357.532 339.348 361.902 342.843C366.272 346.339 370.466 347.038 370.466 347.038C370.466 347.038 363.997 350.359 357.181 348.612Z" fill="white"></path><path d="M361.34 349.764C359.842 349.764 358.389 349.586 357.021 349.236C353.038 347.948 349.855 345.407 348.675 342.596C347.985 340.95 348.008 339.304 348.741 337.837C349.308 336.704 350.268 336.105 351.518 336.105C354.506 336.105 358.782 339.526 362.219 342.274C366.475 345.68 370.531 346.397 370.571 346.403C370.844 346.45 371.058 346.666 371.101 346.941C371.142 347.215 371.005 347.485 370.758 347.612C370.588 347.699 366.506 349.764 361.34 349.764ZM351.519 337.391C350.758 337.391 350.241 337.716 349.894 338.411C349.326 339.549 349.314 340.789 349.863 342.096C350.901 344.572 353.781 346.834 357.38 347.998C358.604 348.31 359.949 348.475 361.34 348.475C364.264 348.475 366.862 347.749 368.47 347.17C366.786 346.611 364.181 345.49 361.499 343.344C358.308 340.794 354.055 337.391 351.519 337.391Z" fill="#05445E"></path><path d="M363.416 402.269C362.951 392.014 361.786 371.508 360.155 364.984C358.523 358.459 348.268 360.32 347.57 360.088C346.872 359.855 334.113 364.69 327.821 351.933C321.528 339.174 326.598 334.455 330.093 335.678C331.317 331.483 334.813 332.707 336.734 334.804C338.482 331.133 343.55 334.98 344.774 339.698C345.998 344.417 347.22 348.612 357.007 347.389C366.796 346.165 378.854 343.369 383.574 357.525C388.293 371.682 392.138 393.704 392.138 393.704C392.138 393.704 390.274 407.688 363.416 402.269Z" fill="white"></path><path d="M374.617 404.16C371.246 404.16 367.435 403.736 363.289 402.899C362.999 402.84 362.785 402.592 362.772 402.296C362.458 395.363 361.294 372.196 359.529 365.137C358.784 362.162 355.839 360.653 350.776 360.653C349.953 360.653 349.224 360.69 348.671 360.72C348.034 360.752 347.68 360.766 347.463 360.725C347.324 360.735 347.078 360.79 346.742 360.857C345.65 361.076 343.821 361.441 341.611 361.441C335.186 361.441 330.218 358.25 327.242 352.216C322.862 343.337 324.135 338.914 325.284 337.067C326.296 335.439 327.999 334.614 329.672 334.904C330.56 332.597 332.14 332.234 333.047 332.234C334.212 332.234 335.502 332.801 336.612 333.781C337.172 333.076 337.931 332.697 338.812 332.697C341.375 332.697 344.453 335.893 345.397 339.535C346.43 343.518 347.323 346.959 353.854 346.959C354.779 346.959 355.813 346.888 356.928 346.749C357.645 346.66 358.375 346.561 359.113 346.461C361.988 346.074 364.961 345.674 367.878 345.674C373.212 345.674 380.705 346.883 384.185 357.32C388.866 371.36 392.735 393.37 392.773 393.592C392.784 393.656 392.785 393.723 392.776 393.788C392.761 393.892 391.199 404.16 374.617 404.16ZM364.036 401.736C367.908 402.491 371.465 402.873 374.617 402.873C389.272 402.873 391.3 394.648 391.483 393.705C391.183 392.009 387.442 371.169 382.962 357.729C379.78 348.187 373.228 346.964 367.877 346.964C365.047 346.964 362.117 347.358 359.285 347.739C358.543 347.84 357.809 347.937 357.087 348.029C355.92 348.174 354.833 348.249 353.854 348.249C346.326 348.249 345.171 343.793 344.151 339.862C343.293 336.554 340.576 333.987 338.812 333.987C338.156 333.987 337.667 334.345 337.315 335.082C337.224 335.275 337.041 335.41 336.83 335.441C336.613 335.475 336.403 335.399 336.259 335.24C335.289 334.183 334.059 333.525 333.047 333.525C331.948 333.525 331.162 334.31 330.71 335.86C330.66 336.03 330.544 336.172 330.387 336.253C330.23 336.335 330.044 336.344 329.881 336.287C328.619 335.848 327.202 336.425 326.38 337.749C325.57 339.054 324.143 343.019 328.4 351.651C331.183 357.295 335.629 360.155 341.613 360.155C343.696 360.155 345.446 359.806 346.492 359.596C346.988 359.497 347.288 359.437 347.499 359.437C347.569 359.437 347.709 359.457 347.775 359.478C348.013 359.466 348.279 359.452 348.607 359.435C349.176 359.407 349.929 359.367 350.779 359.367C356.509 359.367 359.876 361.205 360.781 364.828C362.532 371.836 363.69 394.218 364.036 401.736Z" fill="#05445E"></path><path d="M332.798 358.769C332.662 358.769 332.523 358.726 332.405 358.636C328.449 355.578 325.822 351.008 324.601 345.054C324.529 344.706 324.755 344.364 325.102 344.292C325.455 344.222 325.791 344.446 325.862 344.795C327.02 350.439 329.485 354.754 333.192 357.617C333.474 357.834 333.526 358.238 333.308 358.52C333.182 358.684 332.991 358.769 332.798 358.769Z" fill="#05445E"></path><path d="M349.318 356.421C349.309 356.421 349.299 356.421 349.29 356.421C345.69 356.264 342.708 354.725 340.428 351.844C336.067 346.334 335.571 337.456 336.101 334.683C336.166 334.334 336.5 334.102 336.854 334.171C337.203 334.238 337.432 334.574 337.365 334.925C336.885 337.441 337.392 345.935 341.438 351.045C343.474 353.62 346.135 354.996 349.345 355.135C349.701 355.152 349.976 355.452 349.961 355.806C349.945 356.151 349.661 356.421 349.318 356.421Z" fill="#05445E"></path><path d="M342.502 361.139C342.484 361.139 342.466 361.138 342.448 361.137C339.084 360.856 336.276 359.287 334.103 356.476C328.961 349.819 328.991 338.248 329.457 335.567C329.518 335.217 329.85 334.976 330.203 335.045C330.553 335.105 330.788 335.439 330.727 335.789C330.281 338.346 330.245 349.374 335.123 355.689C337.065 358.203 339.567 359.605 342.556 359.854C342.91 359.882 343.173 360.195 343.143 360.55C343.115 360.886 342.833 361.139 342.502 361.139Z" fill="#05445E"></path><path d="M463.62 413.802C469.388 416.423 486.166 422.366 516.576 414.676C515.527 435.649 513.431 479.867 513.431 479.867C513.431 479.867 488.088 494.199 471.135 488.257C466.417 480.216 463.62 413.802 463.62 413.802Z" fill="#05445E"></path><path d="M468.811 397.206C473.879 396.507 479.349 394.577 478.824 386.187C478.298 377.797 476.902 366.786 476.902 366.786C463.794 366.612 450.86 359.795 444.919 346.338C438.976 332.881 446.84 325.889 451.21 311.908C455.579 297.927 463.795 286.392 482.144 287.615C500.496 288.838 510.283 297.577 510.283 297.577C507.138 314.005 503.991 337.251 510.807 338.65C517.624 340.047 519.373 327.989 519.373 327.989C529.684 322.919 540.486 329.089 536.325 338.124C531.257 349.135 519.197 343.543 519.197 343.543C516.752 349.835 506.44 356.826 506.44 356.826C508.012 369.76 509.579 391.154 519.365 392.377C515.345 412.827 513.256 420.27 513.256 420.27C513.256 420.27 478.127 428.833 465.367 416.25C465.891 411.88 468.811 397.206 468.811 397.206Z" fill="white"></path><path d="M489.249 423.758C477.845 423.758 469.658 421.386 464.913 416.708C464.773 416.567 464.703 416.369 464.727 416.172C465.247 411.827 468.059 397.68 468.178 397.08C468.231 396.811 468.45 396.606 468.722 396.568C473.677 395.885 478.674 394.123 478.181 386.228C477.73 379.017 476.619 369.755 476.331 367.42C462.073 367.031 449.845 359.093 444.329 346.599C439.956 336.7 442.822 330.289 446.45 322.171C447.882 318.965 449.365 315.649 450.593 311.716C456.133 293.99 466.44 285.922 482.185 286.973C500.547 288.196 510.304 296.734 510.711 297.096C510.88 297.247 510.957 297.476 510.914 297.698C506.194 322.351 506.201 337.047 510.936 338.019C511.258 338.086 511.576 338.119 511.882 338.119C517.189 338.119 518.72 327.999 518.732 327.897C518.765 327.686 518.896 327.505 519.087 327.412C521.605 326.174 524.311 325.52 526.912 325.52C531.186 325.52 534.834 327.23 536.67 330.097C538.193 332.475 538.277 335.422 536.909 338.393C534.165 344.356 529.432 345.607 525.945 345.607C523.101 345.607 520.643 344.806 519.539 344.383C516.94 350.045 508.877 355.906 507.122 357.134C507.241 358.12 507.359 359.152 507.483 360.218C508.962 373.075 510.989 390.681 519.441 391.738C519.619 391.762 519.78 391.856 519.884 392C519.988 392.144 520.028 392.326 519.993 392.502C516.015 412.743 513.895 420.371 513.873 420.444C513.81 420.668 513.631 420.842 513.405 420.896C513.291 420.923 501.517 423.758 489.249 423.758ZM466.045 416.011C470.577 420.299 478.379 422.471 489.249 422.471C500.147 422.471 510.658 420.205 512.734 419.731C513.188 418.023 515.196 410.185 518.605 392.899C509.725 390.949 507.697 373.323 506.205 360.365C506.068 359.162 505.934 358.002 505.801 356.903C505.773 356.662 505.879 356.428 506.079 356.291C506.18 356.223 516.252 349.34 518.598 343.308C518.663 343.143 518.793 343.012 518.958 342.945C519.123 342.878 519.308 342.885 519.468 342.958C519.496 342.972 522.455 344.319 525.947 344.319C530.471 344.319 533.766 342.144 535.74 337.855C536.937 335.257 536.884 332.815 535.587 330.792C533.99 328.298 530.747 326.808 526.915 326.808C524.611 326.808 522.211 327.365 519.956 328.424C519.621 330.351 517.738 339.407 511.884 339.407C511.491 339.407 511.087 339.364 510.68 339.281C504.938 338.102 504.568 324.156 509.581 297.828C507.878 296.453 498.336 289.339 482.103 288.257C466.856 287.243 457.237 294.782 451.826 312.1C450.573 316.105 449.008 319.607 447.628 322.696C444.13 330.522 441.369 336.703 445.508 346.078C450.892 358.268 462.923 365.958 476.912 366.142C477.233 366.146 477.502 366.385 477.542 366.706C477.556 366.816 478.949 377.833 479.468 386.147C480.019 394.961 474.098 397.053 469.354 397.778C468.875 400.204 466.593 411.834 466.045 416.011Z" fill="#05445E"></path><path d="M464.667 338.594C464.559 338.594 464.45 338.567 464.349 338.511C460.662 336.41 458.729 334.35 458.439 332.216C458.081 329.565 460.229 327.412 462.307 325.328C462.712 324.921 463.118 324.514 463.499 324.109C466.901 320.486 466.54 313.885 464.765 309.285C464.004 307.313 462.72 306.143 460.949 305.813C458.61 305.384 456.087 306.541 454.892 307.856C454.652 308.12 454.246 308.14 453.982 307.9C453.718 307.66 453.699 307.253 453.938 306.991C455.404 305.378 458.361 304.028 461.186 304.547C462.725 304.836 464.807 305.81 465.968 308.822C467.947 313.951 468.242 320.941 464.437 324.992C464.048 325.405 463.634 325.821 463.218 326.239C461.362 328.1 459.442 330.025 459.715 332.045C459.944 333.731 461.717 335.529 464.986 337.391C465.295 337.568 465.403 337.961 465.228 338.27C465.108 338.477 464.892 338.594 464.667 338.594Z" fill="#05445E"></path><path d="M496.244 316.806C496.037 316.806 495.835 316.706 495.71 316.521C488.915 306.385 481.692 307.781 477.991 309.52C477.672 309.671 477.287 309.533 477.134 309.21C476.983 308.888 477.122 308.504 477.444 308.353C480.726 306.818 489.177 304.462 496.779 315.803C496.977 316.098 496.898 316.499 496.602 316.696C496.493 316.772 496.368 316.806 496.244 316.806Z" fill="#05445E"></path><path d="M485.868 325.971C485.186 328.149 483.627 329.604 482.384 329.218C481.142 328.829 480.687 326.746 481.368 324.565C482.046 322.386 483.607 320.932 484.848 321.322C486.091 321.71 486.548 323.789 485.868 325.971Z" fill="#05445E"></path><path d="M485.175 322.748C484.897 322.748 484.639 322.566 484.558 322.287L483.392 318.325C483.292 317.982 483.486 317.626 483.828 317.525C484.174 317.426 484.528 317.618 484.628 317.96L485.793 321.922C485.894 322.265 485.699 322.622 485.358 322.722C485.296 322.74 485.236 322.748 485.175 322.748Z" fill="#05445E"></path><path d="M460.409 321.193C459.729 323.371 458.17 324.826 456.927 324.44C455.684 324.053 455.23 321.969 455.909 319.789C456.589 317.609 458.15 316.156 459.391 316.545C460.631 316.933 461.091 319.012 460.409 321.193Z" fill="#05445E"></path><path d="M459.716 317.971C459.438 317.971 459.18 317.789 459.099 317.51L457.934 313.547C457.833 313.204 458.028 312.847 458.37 312.747C458.709 312.645 459.07 312.839 459.169 313.182L460.335 317.147C460.435 317.488 460.24 317.845 459.899 317.945C459.837 317.963 459.777 317.971 459.716 317.971Z" fill="#05445E"></path><path d="M464.411 351.523C463.054 351.523 461.916 351.056 461.031 350.131C459.467 348.495 458.768 345.466 458.958 341.128C458.969 340.878 459.124 340.656 459.356 340.561C459.586 340.466 459.852 340.512 460.036 340.681C460.959 341.524 463.667 342.51 468.262 342.51C471.129 342.51 474.286 342.107 477.392 341.347C477.67 341.28 477.952 341.398 478.096 341.639C478.242 341.88 478.215 342.186 478.029 342.398C472.93 348.196 467.967 351.523 464.411 351.523ZM460.216 342.345C460.202 345.654 460.8 348.025 461.961 349.24C464.412 351.796 469.868 349.183 475.699 343.035C469.463 344.258 463.191 343.901 460.216 342.345Z" fill="#05445E"></path><path d="M461.697 350.363C461.588 350.363 461.477 350.336 461.377 350.278C461.069 350.1 460.962 349.707 461.138 349.398C462.653 346.763 468.804 345.119 472.478 346.365C472.815 346.479 472.996 346.845 472.881 347.181C472.768 347.519 472.399 347.697 472.064 347.585C468.74 346.456 463.378 348.087 462.255 350.039C462.137 350.247 461.92 350.363 461.697 350.363Z" fill="#05445E"></path><path d="M476.628 367.491C476.251 367.487 475.908 367.225 475.909 366.844C475.91 366.49 476.199 366.203 476.553 366.203C476.582 366.2 476.605 366.203 476.63 366.203C483.156 366.203 493.673 362.439 500.719 358.706C501.033 358.538 501.424 358.659 501.589 358.973C501.757 359.287 501.637 359.678 501.323 359.844C494.136 363.651 483.365 367.491 476.628 367.491Z" fill="#05445E"></path><path d="M362.95 399.296C365.922 400.345 380.427 400.345 392.138 393.703C394.059 404.363 401.226 436.173 401.226 436.173C411.187 425.337 424.994 412.58 431.288 407.161C437.579 401.744 447.192 396.5 456.629 396.849C466.067 397.198 470.961 396.674 470.961 396.674C470.961 396.674 463.446 409.957 467.291 446.834C471.134 483.712 472.359 488.605 472.359 488.605L459.427 487.383C459.427 487.383 462.048 479.168 454.183 469.731C446.319 460.292 444.047 454.351 442.997 447.359C434.608 455.923 412.237 479.692 393.536 479.867C374.836 480.042 368.194 463.264 365.573 442.29C362.95 421.317 362.95 399.296 362.95 399.296Z" fill="#189AB4"></path><path d="M506.968 479.638C501.724 481.211 479.174 487.907 468.862 487.208C458.551 486.508 447.89 481.439 439.5 483.537C431.111 485.634 416.72 496.208 417.74 500.402C418.526 503.636 422.372 501.888 422.372 501.888C423.771 504.86 426.567 503.286 426.567 503.286C427.966 506.258 434.433 504.509 438.278 501.189C442.122 497.868 446.84 496.121 452.784 498.217C458.726 500.314 467.989 503.286 478.825 503.81C489.661 504.334 515.18 503.143 515.18 503.143C515.18 503.143 519.026 488.027 506.968 479.638Z" fill="white"></path><path d="M429.658 505.452C427.825 505.452 426.839 504.799 426.308 504.097C425.954 504.222 425.462 504.346 424.918 504.346C424.062 504.346 422.913 504.043 422.073 502.687C421.617 502.834 420.94 503.004 420.228 503.004C418.605 503.004 417.5 502.133 417.115 500.554C415.897 495.544 431.29 484.925 439.344 482.912C440.756 482.56 442.261 482.388 443.949 482.388C448.002 482.388 452.308 483.382 456.866 484.436C460.822 485.35 464.911 486.294 468.906 486.565C477.979 487.191 496.781 482.021 506.782 479.022C506.971 478.966 507.175 478.998 507.335 479.11C519.619 487.655 515.842 503.148 515.802 503.302C515.733 503.578 515.492 503.774 515.209 503.787C515.036 503.796 497.915 504.588 485.889 504.588H485.887C483.018 504.588 480.631 504.543 478.792 504.454C468.238 503.943 459.233 501.179 452.569 498.827C447.511 497.043 442.997 497.962 438.698 501.678C436.124 503.9 432.407 505.452 429.658 505.452ZM426.567 502.643C426.634 502.643 426.701 502.653 426.764 502.674C426.934 502.728 427.073 502.85 427.149 503.011C427.598 503.963 428.761 504.164 429.657 504.164C432.125 504.164 435.496 502.741 437.855 500.701C442.509 496.682 447.497 495.67 452.997 497.611C459.58 499.934 468.468 502.665 478.855 503.167C480.673 503.255 483.039 503.3 485.887 503.3C496.735 503.3 511.749 502.653 514.652 502.523C515.148 499.982 516.951 487.593 506.851 480.345C496.685 483.384 478.006 488.478 468.817 487.85C464.72 487.572 460.579 486.615 456.576 485.69C452.09 484.653 447.854 483.676 443.947 483.676C442.366 483.676 440.963 483.836 439.655 484.163C431.217 486.271 417.488 496.645 418.365 500.25C418.609 501.249 419.2 501.717 420.226 501.717C421.173 501.717 422.096 501.307 422.106 501.302C422.428 501.162 422.805 501.298 422.953 501.615C423.41 502.586 424.054 503.059 424.916 503.059C425.635 503.059 426.245 502.727 426.252 502.724C426.351 502.67 426.458 502.643 426.567 502.643Z" fill="#05445E"></path><path d="M586.136 467.282C578.445 446.659 571.804 424.289 565.513 414.151C559.221 404.014 551.705 394.577 537.724 393.178C527.587 392.479 518.498 392.13 518.498 392.13C515.178 400.869 504.517 443.164 510.109 478.644C507.662 478.644 505.914 480.042 505.914 480.042C511.507 484.587 514.652 492.8 513.255 503.811C537.548 505.733 563.241 501.89 571.628 499.791C580.019 497.694 593.825 487.907 586.136 467.282ZM536.849 473.749L538.073 459.07L542.093 472.702L536.849 473.749Z" fill="#70BADB"></path><path d="M353.567 348.143C353.23 348.143 352.946 347.881 352.924 347.539C352.902 347.185 353.172 346.879 353.527 346.857C354.728 346.781 356.173 346.646 357.747 346.497C363.029 345.998 369.601 345.381 373.531 346.393C373.876 346.482 374.082 346.834 373.993 347.177C373.905 347.521 373.554 347.729 373.209 347.64C369.492 346.68 363.047 347.29 357.868 347.778C356.278 347.927 354.819 348.066 353.607 348.141C353.594 348.143 353.58 348.143 353.567 348.143Z" fill="#05445E"></path><path d="M443.518 450.974C443.218 450.974 442.95 450.762 442.889 450.456C441.72 444.608 443.026 437.112 444.841 432.277C444.966 431.943 445.34 431.771 445.671 431.901C446.004 432.026 446.173 432.397 446.047 432.73C444.742 436.211 442.873 443.807 444.152 450.205C444.222 450.554 443.996 450.892 443.646 450.962C443.603 450.97 443.561 450.974 443.518 450.974Z" fill="#05445E"></path><path d="M506.303 480.218C506.017 480.218 505.757 480.027 505.681 479.738C505.591 479.395 505.796 479.042 506.138 478.952C511.791 477.455 547.204 470.507 559.69 469.437C560.039 469.406 560.355 469.669 560.386 470.023C560.416 470.377 560.153 470.69 559.8 470.72C547.367 471.786 512.099 478.706 506.468 480.196C506.413 480.211 506.357 480.218 506.303 480.218Z" fill="#05445E"></path><path d="M538.946 461.985C538.673 461.985 538.421 461.81 538.332 461.536C537.067 457.584 533.958 445.113 532.464 439.12L532.028 437.379C531.943 437.034 532.152 436.685 532.497 436.597C532.837 436.511 533.192 436.721 533.278 437.066L533.713 438.808C535.203 444.789 538.306 457.232 539.558 461.145C539.666 461.484 539.48 461.847 539.141 461.955C539.078 461.974 539.012 461.985 538.946 461.985Z" fill="#05445E"></path><path d="M426.568 503.93C426.548 503.93 426.529 503.928 426.509 503.927C426.155 503.895 425.892 503.581 425.926 503.228C426.138 500.887 435.55 493.034 444.041 490.608C444.388 490.505 444.741 490.708 444.837 491.05C444.935 491.392 444.738 491.749 444.396 491.846C435.85 494.288 427.345 501.829 427.207 503.344C427.179 503.679 426.897 503.93 426.568 503.93Z" fill="#05445E"></path><path d="M422.372 502.532C422.017 502.532 421.728 502.244 421.728 501.888C421.728 498.529 428.781 491.444 439.832 487.989C440.177 487.882 440.533 488.073 440.64 488.412C440.745 488.752 440.557 489.113 440.217 489.219C428.87 492.765 423.017 499.706 423.017 501.888C423.016 502.245 422.729 502.532 422.372 502.532Z" fill="#05445E"></path><path d="M467.981 501.386H412.789L390.579 436.517C388.641 430.86 382.163 426.232 376.184 426.232H281.931C275.954 426.232 272.647 430.861 274.583 436.517L297.463 503.341C299.966 509.829 300.259 515.169 306.764 515.169H467.983C471.786 515.169 474.874 512.084 474.874 508.275C474.872 504.469 471.786 501.386 467.981 501.386Z" fill="#75E6DA"></path><path d="M407.923 503.228H298.304C297.949 503.228 297.66 502.939 297.66 502.584C297.66 502.228 297.949 501.94 298.304 501.94H407.923C408.279 501.94 408.567 502.228 408.567 502.584C408.567 502.939 408.279 503.228 407.923 503.228Z" fill="#05445E"></path><path d="M342.136 480.086C337.373 480.086 332.135 475.361 330.458 469.55C329.496 466.225 329.843 463.122 331.412 461.035C332.564 459.504 334.306 458.66 336.32 458.66C341.085 458.66 346.322 463.387 347.995 469.196C348.957 472.519 348.61 475.623 347.04 477.711C345.888 479.243 344.148 480.086 342.136 480.086ZM336.32 459.948C334.698 459.948 333.357 460.591 332.443 461.808C331.12 463.568 330.848 466.26 331.696 469.192C333.224 474.489 337.909 478.797 342.137 478.797C343.756 478.797 345.096 478.154 346.01 476.937C347.334 475.175 347.608 472.484 346.759 469.553C345.233 464.257 340.549 459.948 336.32 459.948Z" fill="#05445E"></path></svg>