<svg xmlns="http://www.w3.org/2000/svg" width="787" height="599" viewBox="0 0 787 599" fill="none"><path d="M642.194 79.7711C642.194 79.7711 561.254 -3.86148 433.104 0.139081C304.953 4.13964 195.667 85.1368 105.285 148.539C14.9028 211.941 -9.36596 310.457 43.248 387.34C95.862 464.223 179.495 431.858 286.05 481.761C392.605 531.664 412.778 560.009 531.563 547.875C650.347 535.74 740.673 411.628 727.173 279.42C713.674 147.212 642.194 79.7711 642.194 79.7711Z" fill="white"></path><path opacity="0.7" d="M642.194 79.7711C642.194 79.7711 561.254 -3.86148 433.104 0.139081C304.953 4.13964 195.667 85.1368 105.285 148.539C14.9028 211.941 -9.36596 310.457 43.248 387.34C95.862 464.223 179.495 431.858 286.05 481.761C392.605 531.664 412.778 560.009 531.563 547.875C650.347 535.74 740.673 411.628 727.173 279.42C713.674 147.212 642.194 79.7711 642.194 79.7711Z" fill="white"></path><path d="M673.213 588.733C673.213 594.308 548.077 598.801 393.875 598.801C239.674 598.801 114.519 594.308 114.519 588.733C114.519 583.159 239.655 578.685 393.875 578.685C548.096 578.685 673.213 583.178 673.213 588.733Z" fill="#189AB4"></path><path opacity="0.6" d="M673.213 588.733C673.213 594.308 548.077 598.801 393.875 598.801C239.674 598.801 114.519 594.308 114.519 588.733C114.519 583.159 239.655 578.685 393.875 578.685C548.096 578.685 673.213 583.178 673.213 588.733Z" fill="white"></path><path d="M129.649 274.907C129.762 274.907 128.34 267.835 128.189 267.323C126.558 262.28 120.434 253.483 114.481 253.483C113.493 253.513 112.523 253.751 111.633 254.181C110.743 254.611 109.954 255.223 109.316 255.977C108.678 256.731 108.205 257.611 107.929 258.56C107.652 259.509 107.579 260.505 107.712 261.484C108.148 265.655 111.902 269.219 115.296 271.267C119.277 273.751 129.649 274.907 129.649 274.907Z" fill="#189AB4"></path><path d="M141.157 227.28C135.564 229.29 132.796 239.642 132.966 244.951C132.966 245.406 134.028 252.535 134.142 252.535H134.256C133.801 254.165 133.327 255.909 132.853 257.843C132.018 261.408 131.108 265.427 130.407 269.902C129.593 274.695 129.062 279.532 128.814 284.387C128.521 289.828 128.705 295.284 129.364 300.693C129.371 300.756 129.371 300.82 129.364 300.883C128.644 299.309 126.444 294.967 126.236 294.645C123.316 290.208 115.087 283.269 109.342 284.918C108.401 285.208 107.531 285.693 106.788 286.341C106.046 286.989 105.448 287.786 105.034 288.68C104.619 289.573 104.397 290.544 104.381 291.529C104.366 292.514 104.557 293.492 104.944 294.398C106.46 298.323 111.011 300.75 114.822 301.85C119.126 303.063 128.719 301.622 129.478 301.508C130.3 306.989 131.478 312.41 133.004 317.738C133.896 320.847 134.9 323.957 135.886 327.047C135.223 325.701 134.597 324.507 134.502 324.355C131.582 319.918 123.354 312.979 117.609 314.629C116.667 314.919 115.797 315.404 115.055 316.052C114.313 316.7 113.715 317.496 113.3 318.39C112.886 319.284 112.663 320.255 112.648 321.24C112.632 322.225 112.824 323.202 113.21 324.109C114.727 328.014 119.277 330.46 123.088 331.541C126.899 332.622 135.166 331.541 137.327 331.275C137.725 332.451 138.124 333.645 138.541 334.821C140.437 340.509 142.484 346.197 144.229 351.771C144.854 353.667 145.385 355.715 145.935 357.687C145.347 356.492 144.816 355.487 144.722 355.355C141.821 350.899 133.573 343.979 127.847 345.628C126.904 345.916 126.032 346.4 125.288 347.047C124.543 347.694 123.943 348.49 123.527 349.384C123.11 350.278 122.886 351.25 122.87 352.236C122.853 353.222 123.044 354.201 123.43 355.108C124.946 359.014 129.516 361.46 133.327 362.54C137.138 363.621 144.589 362.673 147.168 362.313C147.679 364.342 148.191 366.389 148.59 368.38C148.817 369.745 149.139 371.035 149.31 372.438L149.879 376.495C150.144 379.093 150.448 381.766 150.637 384.307C150.789 386.089 150.903 387.776 151.016 389.464C150.429 387.568 149.12 383.643 149.12 383.34C147.021 379.168 143.888 375.604 140.02 372.987C139.804 372.513 139.551 372.056 139.261 371.622C138.721 370.796 138.012 370.092 137.182 369.557C136.353 369.021 135.419 368.666 134.444 368.514C133.468 368.362 132.471 368.417 131.517 368.675C130.564 368.932 129.675 369.388 128.909 370.011C124.416 373.898 125.534 384.553 127.601 389.445C127.715 389.729 129.497 392.725 130.483 394.583L128.075 391.587C126.406 389.559 124.7 387.587 122.88 385.463C121.944 384.477 121.015 383.472 120.093 382.448C119.183 381.425 118.102 380.458 117.097 379.434C114.708 377.14 112.186 374.921 109.513 372.76C111.295 371.3 117.495 366.067 119.277 362.503C121.06 358.938 122.33 353.952 120.472 350.179C120.063 349.281 119.471 348.479 118.733 347.826C117.994 347.172 117.127 346.681 116.186 346.384C115.246 346.087 114.254 345.991 113.274 346.103C112.294 346.214 111.349 346.531 110.499 347.031C105.456 350.179 104.944 360.891 106.252 365.991C106.252 366.314 107.693 369.916 108.47 371.869C106.896 370.561 105.342 369.271 103.711 368.077C99.0091 364.455 94.2312 360.929 89.3016 357.383L84.8839 354.103C85.5096 353.591 93.0178 347.524 95.0275 343.524C96.8098 339.978 98.0801 334.973 96.222 331.219C95.8157 330.317 95.2237 329.511 94.4848 328.853C93.7458 328.196 92.8765 327.701 91.9336 327.403C90.9907 327.104 89.9953 327.007 89.0125 327.119C88.0298 327.231 87.0816 327.549 86.2301 328.052C81.2057 331.219 80.6938 341.912 82.002 347.012C82.0968 347.391 84.0497 352.549 84.6185 353.838C81.3763 351.43 78.1721 349.003 75.1385 346.481C70.9893 343.084 67.0628 339.424 63.3833 335.522C63.6677 335.295 71.5361 328.981 73.5837 324.905C75.366 321.359 76.6363 316.354 74.7782 312.581C74.3677 311.688 73.7745 310.89 73.0369 310.24C72.2992 309.59 71.4335 309.102 70.4956 308.807C69.5577 308.513 68.5684 308.418 67.5915 308.529C66.6147 308.64 65.672 308.955 64.8242 309.452C59.7809 312.619 59.2879 323.331 60.5772 328.412C60.672 328.754 62.1509 332.697 62.9093 334.537L62.6249 334.726C59.0231 330.699 55.7871 326.359 52.9553 321.758C51.3816 319.255 49.9975 316.752 48.7082 314.306C50.3009 313.282 57.4867 308.618 59.743 305.054C61.9992 301.489 63.7245 296.882 62.2836 292.938C61.9751 292.012 61.4772 291.16 60.8215 290.436C60.1657 289.713 59.3666 289.134 58.4748 288.736C57.5831 288.339 56.6183 288.131 55.6419 288.126C54.6656 288.122 53.6989 288.321 52.8036 288.71C47.4569 291.289 45.7694 301.982 46.5089 307.139C46.5089 307.424 47.2673 310.287 47.8361 312.353C47.2673 311.254 46.6605 310.097 46.1486 309.016C44.2526 304.978 42.641 301.148 41.3138 297.754C40.5744 295.858 39.9297 293.962 39.4178 292.37C40.4417 290.568 44.5181 283.193 44.8973 279.098C45.2765 275.002 44.6697 270.016 41.5793 267.172C40.8739 266.479 40.0308 265.942 39.1045 265.596C38.1783 265.25 37.1896 265.102 36.2027 265.163C35.2158 265.224 34.2528 265.492 33.376 265.949C32.4992 266.406 31.7283 267.042 31.1133 267.816C27.5678 272.575 30.9617 282.757 34.0332 287.08C34.2986 287.459 39.1145 292.768 39.1713 292.768V292.654C39.7022 294.266 40.271 295.972 40.9536 297.849C42.2239 301.281 43.6838 305.149 45.5609 309.225C47.5304 313.674 49.7589 318.005 52.2348 322.194C54.9957 326.89 58.1681 331.331 61.7148 335.466L61.8475 335.598C60.3686 334.688 56.1595 332.28 55.7993 332.129C50.9265 330.024 40.2521 328.849 36.3463 333.323C35.7186 334.086 35.2585 334.972 34.9961 335.925C34.7337 336.877 34.6748 337.874 34.8232 338.85C34.9717 339.827 35.3242 340.761 35.8577 341.593C36.3913 342.424 37.094 343.134 37.92 343.675C41.3328 346.102 46.4899 345.571 50.2629 344.434C54.5289 343.088 61.639 336.584 62.3026 336.072C66.0111 340.193 69.9888 344.063 74.2094 347.657C76.6553 349.761 79.1769 351.809 81.7934 353.838C80.4852 353.098 79.3097 352.435 79.139 352.359C74.2663 350.254 63.6108 349.079 59.705 353.553C59.0735 354.314 58.6098 355.199 58.3442 356.151C58.0786 357.103 58.0173 358.1 58.164 359.078C58.3108 360.055 58.6625 360.99 59.196 361.822C59.7295 362.654 60.4328 363.364 61.2597 363.906C64.6915 366.332 69.8297 365.802 73.6217 364.664C77.4137 363.526 83.6894 358.028 85.339 356.568L88.2967 358.881C93.0746 362.541 97.7767 366.162 102.422 369.859C104.034 371.167 105.569 372.494 107.124 373.841C105.967 373.177 104.982 372.627 104.811 372.551C99.9381 370.466 89.2826 369.271 85.3769 373.765C84.7454 374.525 84.2816 375.41 84.0161 376.362C83.7505 377.314 83.6891 378.312 83.8359 379.289C83.9827 380.266 84.3343 381.202 84.8678 382.034C85.4013 382.866 86.1046 383.576 86.9316 384.117C90.3633 386.544 95.5015 386.013 99.2935 384.856C103.086 383.7 108.774 378.751 110.67 377.045C112.205 378.448 113.76 379.87 115.201 381.311C116.149 382.316 117.097 383.207 118.045 384.288L120.756 387.378C122.425 389.388 124.131 391.454 125.705 393.464C126.804 394.867 127.828 396.213 128.871 397.56C127.278 396.251 124.112 393.768 123.809 393.559C119.315 390.734 108.963 387.966 104.413 391.796C103.678 392.455 103.091 393.262 102.689 394.164C102.287 395.065 102.079 396.042 102.079 397.029C102.079 398.016 102.287 398.992 102.689 399.894C103.091 400.795 103.678 401.602 104.413 402.262C107.427 405.182 112.584 405.485 116.509 404.878C120.813 404.215 128.625 399.19 129.592 398.489C131.298 400.726 132.929 402.925 134.445 405.011C139.697 412.273 143.793 418.529 146.599 422.928L146.883 423.383L150.523 421.62L149.955 420.748C147.016 416.368 142.75 410.149 137.27 402.925C135.564 400.631 133.668 398.242 131.715 395.777C133.744 393.563 135.643 391.233 137.403 388.8C141.574 390.431 150.277 390.488 151.396 390.488C151.585 393.313 151.737 396.043 151.832 398.621C152.211 407.589 152.173 415.06 152.097 420.274C152.097 420.482 152.097 420.672 152.097 420.88L156.098 418.984C156.098 413.789 155.889 406.774 155.377 398.47C155.188 395.626 154.941 392.573 154.676 389.445C155.775 389.179 164.819 386.847 168.232 384.117C171.342 381.652 174.603 377.633 174.489 373.442C174.496 372.455 174.296 371.477 173.901 370.572C173.505 369.667 172.924 368.856 172.194 368.191C171.465 367.525 170.603 367.021 169.665 366.711C168.728 366.4 167.736 366.291 166.753 366.389C160.838 367.148 155.908 376.647 154.941 381.88C154.941 382.183 154.619 385.672 154.505 387.738C154.391 386.468 154.278 385.236 154.145 383.946C153.879 381.349 153.538 378.77 153.197 375.983C152.969 374.656 152.742 373.291 152.533 371.926C152.325 370.561 151.964 369.158 151.68 367.773C150.96 364.531 150.087 361.289 149.12 358.047C151.396 357.819 159.473 356.871 162.923 354.881C166.374 352.89 170.185 349.439 170.716 345.268C170.871 344.294 170.82 343.298 170.566 342.344C170.311 341.391 169.859 340.502 169.239 339.735C168.618 338.968 167.843 338.34 166.964 337.892C166.085 337.444 165.122 337.186 164.137 337.134C158.183 336.982 151.851 345.628 150.106 350.653C149.993 350.956 149.139 354.691 148.722 356.758C148.116 354.862 147.547 352.871 146.826 350.918C144.93 345.23 142.788 339.675 140.702 334.044L138.806 328.868C139.621 328.868 149.234 327.882 153.102 325.644C156.534 323.748 160.364 320.203 160.895 316.032C161.053 315.057 161.004 314.06 160.751 313.105C160.498 312.151 160.046 311.261 159.425 310.493C158.804 309.725 158.028 309.097 157.147 308.65C156.267 308.203 155.302 307.946 154.315 307.898C148.362 307.746 142.029 316.411 140.285 321.416C140.152 321.795 138.939 327.104 138.692 328.564C137.327 324.772 136 320.98 134.9 317.188C133.317 312.063 132.05 306.846 131.108 301.565C131.488 301.565 141.536 300.617 145.499 298.342C148.931 296.351 152.761 292.881 153.292 288.71C153.447 287.734 153.396 286.737 153.14 285.782C152.884 284.828 152.431 283.938 151.808 283.171C151.186 282.403 150.408 281.776 149.527 281.329C148.646 280.882 147.68 280.625 146.694 280.576C140.759 280.425 134.426 289.089 132.682 294.095C132.568 294.417 131.639 298.532 131.241 300.484H130.9C130.117 295.144 129.812 289.744 129.99 284.349C129.99 281.392 130.274 278.548 130.559 275.798C132.455 275.798 141.081 275.798 144.873 274.168C148.665 272.537 152.685 269.542 153.671 265.465C153.934 264.51 153.992 263.511 153.842 262.532C153.692 261.553 153.337 260.616 152.8 259.784C152.263 258.952 151.556 258.242 150.726 257.702C149.896 257.162 148.961 256.803 147.983 256.649C142.086 255.853 134.844 263.759 132.568 268.537C132.436 268.802 131.469 271.589 130.786 273.637C130.919 272.386 131.052 271.115 131.222 269.845C131.829 265.389 132.644 261.351 133.403 257.768C133.858 255.739 134.294 253.976 134.73 252.212C136.626 251.264 144.058 247.377 146.618 244.211C149.177 241.045 151.415 236.513 150.41 232.437C150.201 231.456 149.784 230.53 149.188 229.723C148.592 228.916 147.831 228.246 146.954 227.758C146.078 227.269 145.107 226.974 144.107 226.891C143.108 226.809 142.102 226.941 141.157 227.28Z" fill="#189AB4"></path><path d="M33.6919 318.933C38.3371 318.743 47.6275 313.965 47.6465 313.965C47.6654 313.965 42.641 308.808 42.2808 308.505C38.1285 305.205 28.1556 301.243 23.207 304.542C22.4005 305.111 21.7227 305.842 21.2176 306.69C20.7125 307.538 20.3914 308.482 20.2752 309.462C20.1589 310.442 20.2502 311.436 20.543 312.378C20.8358 313.32 21.3235 314.19 21.9746 314.932C24.648 318.174 29.7861 319.084 33.6919 318.933Z" fill="#189AB4"></path><g opacity="0.5"><path d="M129.648 274.907C129.762 274.907 128.34 267.835 128.188 267.323C126.558 262.28 120.434 253.483 114.48 253.483C113.493 253.513 112.523 253.751 111.633 254.181C110.743 254.611 109.954 255.223 109.316 255.977C108.677 256.731 108.205 257.611 107.929 258.56C107.652 259.509 107.578 260.505 107.712 261.484C108.148 265.655 111.902 269.219 115.296 271.267C119.277 273.751 129.648 274.907 129.648 274.907Z" fill="white"></path><path d="M141.157 227.28C135.564 229.29 132.796 239.642 132.966 244.951C132.966 245.406 134.028 252.535 134.142 252.535H134.256C133.801 254.165 133.327 255.909 132.853 257.843C132.018 261.408 131.108 265.427 130.407 269.902C129.593 274.695 129.062 279.532 128.814 284.387C128.521 289.828 128.705 295.284 129.364 300.693C129.371 300.756 129.371 300.82 129.364 300.883C128.644 299.309 126.444 294.967 126.236 294.645C123.316 290.208 115.087 283.269 109.342 284.918C108.401 285.208 107.531 285.693 106.788 286.341C106.046 286.989 105.448 287.786 105.034 288.68C104.619 289.573 104.397 290.544 104.381 291.529C104.366 292.514 104.557 293.492 104.944 294.398C106.46 298.323 111.011 300.75 114.822 301.85C119.126 303.063 128.719 301.622 129.478 301.508C130.3 306.989 131.478 312.41 133.004 317.738C133.896 320.847 134.9 323.957 135.886 327.047C135.223 325.701 134.597 324.507 134.502 324.355C131.582 319.918 123.354 312.979 117.609 314.629C116.667 314.919 115.797 315.404 115.055 316.052C114.313 316.7 113.715 317.496 113.3 318.39C112.886 319.284 112.663 320.255 112.648 321.24C112.632 322.225 112.824 323.202 113.21 324.109C114.727 328.014 119.277 330.46 123.088 331.541C126.899 332.622 135.166 331.541 137.327 331.275C137.725 332.451 138.124 333.645 138.541 334.821C140.437 340.509 142.484 346.197 144.229 351.771C144.854 353.667 145.385 355.715 145.935 357.687C145.347 356.492 144.816 355.487 144.722 355.355C141.821 350.899 133.573 343.979 127.847 345.628C126.904 345.916 126.032 346.4 125.288 347.047C124.543 347.694 123.943 348.49 123.527 349.384C123.11 350.278 122.886 351.25 122.87 352.236C122.853 353.222 123.044 354.201 123.43 355.108C124.946 359.014 129.516 361.46 133.327 362.54C137.138 363.621 144.589 362.673 147.168 362.313C147.679 364.342 148.191 366.389 148.59 368.38C148.817 369.745 149.139 371.035 149.31 372.438L149.879 376.495C150.144 379.093 150.448 381.766 150.637 384.307C150.789 386.089 150.903 387.776 151.016 389.464C150.429 387.568 149.12 383.643 149.12 383.34C147.021 379.168 143.888 375.604 140.02 372.987C139.804 372.513 139.551 372.056 139.261 371.622C138.721 370.796 138.012 370.092 137.182 369.557C136.353 369.021 135.419 368.666 134.444 368.514C133.468 368.362 132.471 368.417 131.517 368.675C130.564 368.932 129.675 369.388 128.909 370.011C124.416 373.898 125.534 384.553 127.601 389.445C127.715 389.729 129.497 392.725 130.483 394.583L128.075 391.587C126.406 389.559 124.7 387.587 122.88 385.463C121.944 384.477 121.015 383.472 120.093 382.448C119.183 381.425 118.102 380.458 117.097 379.434C114.708 377.14 112.186 374.921 109.513 372.76C111.295 371.3 117.495 366.067 119.277 362.503C121.06 358.938 122.33 353.952 120.472 350.179C120.063 349.281 119.471 348.479 118.733 347.826C117.994 347.172 117.127 346.681 116.186 346.384C115.246 346.087 114.254 345.991 113.274 346.103C112.294 346.214 111.349 346.531 110.499 347.031C105.456 350.179 104.944 360.891 106.252 365.991C106.252 366.314 107.693 369.916 108.47 371.869C106.896 370.561 105.342 369.271 103.711 368.077C99.0091 364.455 94.2312 360.929 89.3016 357.383L84.8839 354.103C85.5096 353.591 93.0178 347.524 95.0275 343.524C96.8098 339.978 98.0801 334.973 96.222 331.219C95.8157 330.317 95.2237 329.511 94.4848 328.853C93.7458 328.196 92.8765 327.701 91.9336 327.403C90.9907 327.104 89.9953 327.007 89.0125 327.119C88.0298 327.231 87.0816 327.549 86.2301 328.052C81.2057 331.219 80.6938 341.912 82.002 347.012C82.0968 347.391 84.0497 352.549 84.6185 353.838C81.3763 351.43 78.1721 349.003 75.1385 346.481C70.9893 343.084 67.0628 339.424 63.3833 335.522C63.6677 335.295 71.5361 328.981 73.5837 324.905C75.366 321.359 76.6363 316.354 74.7782 312.581C74.3677 311.688 73.7745 310.89 73.0369 310.24C72.2992 309.59 71.4335 309.102 70.4956 308.807C69.5577 308.513 68.5684 308.418 67.5915 308.529C66.6147 308.64 65.672 308.955 64.8242 309.452C59.7809 312.619 59.2879 323.331 60.5772 328.412C60.672 328.754 62.1509 332.697 62.9093 334.537L62.6249 334.726C59.0231 330.699 55.7871 326.359 52.9553 321.758C51.3816 319.255 49.9975 316.752 48.7082 314.306C50.3009 313.282 57.4867 308.618 59.743 305.054C61.9992 301.489 63.7245 296.882 62.2836 292.938C61.9751 292.012 61.4772 291.16 60.8215 290.436C60.1657 289.713 59.3666 289.134 58.4748 288.736C57.5831 288.339 56.6183 288.131 55.6419 288.126C54.6656 288.122 53.6989 288.321 52.8036 288.71C47.4569 291.289 45.7694 301.982 46.5089 307.139C46.5089 307.424 47.2673 310.287 47.8361 312.353C47.2673 311.254 46.6605 310.097 46.1486 309.016C44.2526 304.978 42.641 301.148 41.3138 297.754C40.5744 295.858 39.9297 293.962 39.4178 292.37C40.4417 290.568 44.5181 283.193 44.8973 279.098C45.2765 275.002 44.6697 270.016 41.5793 267.172C40.8739 266.479 40.0308 265.942 39.1045 265.596C38.1783 265.25 37.1896 265.102 36.2027 265.163C35.2158 265.224 34.2528 265.492 33.376 265.949C32.4992 266.406 31.7283 267.042 31.1133 267.816C27.5678 272.575 30.9617 282.757 34.0332 287.08C34.2986 287.459 39.1145 292.768 39.1713 292.768V292.654C39.7022 294.266 40.271 295.972 40.9536 297.849C42.2239 301.281 43.6838 305.149 45.5609 309.225C47.5304 313.674 49.7589 318.005 52.2348 322.194C54.9957 326.89 58.1681 331.331 61.7148 335.466L61.8475 335.598C60.3686 334.688 56.1595 332.28 55.7993 332.129C50.9265 330.024 40.2521 328.849 36.3463 333.323C35.7186 334.086 35.2585 334.972 34.9961 335.925C34.7337 336.877 34.6748 337.874 34.8232 338.85C34.9717 339.827 35.3242 340.761 35.8577 341.593C36.3913 342.424 37.094 343.134 37.92 343.675C41.3328 346.102 46.4899 345.571 50.2629 344.434C54.5289 343.088 61.639 336.584 62.3026 336.072C66.0111 340.193 69.9888 344.063 74.2094 347.657C76.6553 349.761 79.1769 351.809 81.7934 353.838C80.4852 353.098 79.3097 352.435 79.139 352.359C74.2663 350.254 63.6108 349.079 59.705 353.553C59.0735 354.314 58.6098 355.199 58.3442 356.151C58.0786 357.103 58.0173 358.1 58.164 359.078C58.3108 360.055 58.6625 360.99 59.196 361.822C59.7295 362.654 60.4328 363.364 61.2597 363.906C64.6915 366.332 69.8297 365.802 73.6217 364.664C77.4137 363.526 83.6894 358.028 85.339 356.568L88.2967 358.881C93.0746 362.541 97.7767 366.162 102.422 369.859C104.034 371.167 105.569 372.494 107.124 373.841C105.967 373.177 104.982 372.627 104.811 372.551C99.9381 370.466 89.2826 369.271 85.3769 373.765C84.7454 374.525 84.2816 375.41 84.0161 376.362C83.7505 377.314 83.6891 378.312 83.8359 379.289C83.9827 380.266 84.3343 381.202 84.8678 382.034C85.4013 382.866 86.1046 383.576 86.9316 384.117C90.3633 386.544 95.5015 386.013 99.2935 384.856C103.086 383.7 108.774 378.751 110.67 377.045C112.205 378.448 113.76 379.87 115.201 381.311C116.149 382.316 117.097 383.207 118.045 384.288L120.756 387.378C122.425 389.388 124.131 391.454 125.705 393.464C126.804 394.867 127.828 396.213 128.871 397.56C127.278 396.251 124.112 393.768 123.809 393.559C119.315 390.734 108.963 387.966 104.413 391.796C103.678 392.455 103.091 393.262 102.689 394.164C102.287 395.065 102.079 396.042 102.079 397.029C102.079 398.016 102.287 398.992 102.689 399.894C103.091 400.795 103.678 401.602 104.413 402.262C107.427 405.182 112.584 405.485 116.509 404.878C120.813 404.215 128.625 399.19 129.592 398.489C131.298 400.726 132.929 402.925 134.445 405.011C139.697 412.273 143.793 418.529 146.599 422.928L146.883 423.383L150.523 421.62L149.955 420.748C147.016 416.368 142.75 410.149 137.27 402.925C135.564 400.631 133.668 398.242 131.715 395.777C133.744 393.563 135.643 391.233 137.403 388.8C141.574 390.431 150.277 390.488 151.396 390.488C151.585 393.313 151.737 396.043 151.832 398.621C152.211 407.589 152.173 415.06 152.097 420.274C152.097 420.482 152.097 420.672 152.097 420.88L156.098 418.984C156.098 413.789 155.889 406.774 155.377 398.47C155.188 395.626 154.941 392.573 154.676 389.445C155.775 389.179 164.819 386.847 168.232 384.117C171.342 381.652 174.603 377.633 174.489 373.442C174.496 372.455 174.296 371.477 173.901 370.572C173.505 369.667 172.924 368.856 172.194 368.191C171.465 367.525 170.603 367.021 169.665 366.711C168.728 366.4 167.736 366.291 166.753 366.389C160.838 367.148 155.908 376.647 154.941 381.88C154.941 382.183 154.619 385.672 154.505 387.738C154.391 386.468 154.278 385.236 154.145 383.946C153.879 381.349 153.538 378.77 153.197 375.983C152.969 374.656 152.742 373.291 152.533 371.926C152.325 370.561 151.964 369.158 151.68 367.773C150.96 364.531 150.087 361.289 149.12 358.047C151.396 357.819 159.473 356.871 162.923 354.881C166.374 352.89 170.185 349.439 170.716 345.268C170.871 344.294 170.82 343.298 170.566 342.344C170.311 341.391 169.859 340.502 169.239 339.735C168.618 338.968 167.843 338.34 166.964 337.892C166.085 337.444 165.122 337.186 164.137 337.134C158.183 336.982 151.851 345.628 150.106 350.653C149.993 350.956 149.139 354.691 148.722 356.758C148.116 354.862 147.547 352.871 146.826 350.918C144.93 345.23 142.788 339.675 140.702 334.044L138.806 328.868C139.621 328.868 149.234 327.882 153.102 325.644C156.534 323.748 160.364 320.203 160.895 316.032C161.053 315.057 161.004 314.06 160.751 313.105C160.498 312.151 160.046 311.261 159.425 310.493C158.804 309.725 158.028 309.097 157.147 308.65C156.267 308.203 155.302 307.946 154.315 307.898C148.362 307.746 142.029 316.411 140.285 321.416C140.152 321.795 138.939 327.104 138.692 328.564C137.327 324.772 136 320.98 134.9 317.188C133.317 312.063 132.05 306.846 131.108 301.565C131.488 301.565 141.536 300.617 145.499 298.342C148.931 296.351 152.761 292.881 153.292 288.71C153.447 287.734 153.396 286.737 153.14 285.782C152.884 284.828 152.431 283.938 151.808 283.171C151.186 282.403 150.408 281.776 149.527 281.329C148.646 280.882 147.68 280.625 146.694 280.576C140.759 280.425 134.426 289.089 132.682 294.095C132.568 294.417 131.639 298.532 131.241 300.484H130.9C130.117 295.144 129.812 289.744 129.99 284.349C129.99 281.392 130.274 278.548 130.559 275.798C132.455 275.798 141.081 275.798 144.873 274.168C148.665 272.537 152.685 269.542 153.671 265.465C153.934 264.51 153.992 263.511 153.842 262.532C153.692 261.553 153.337 260.616 152.8 259.784C152.263 258.952 151.556 258.242 150.726 257.702C149.896 257.162 148.961 256.803 147.983 256.649C142.086 255.853 134.844 263.759 132.568 268.537C132.436 268.802 131.469 271.589 130.786 273.637C130.919 272.386 131.052 271.115 131.222 269.845C131.829 265.389 132.644 261.351 133.403 257.768C133.858 255.739 134.294 253.976 134.73 252.212C136.626 251.264 144.058 247.377 146.618 244.211C149.177 241.045 151.415 236.513 150.41 232.437C150.201 231.456 149.784 230.53 149.188 229.723C148.592 228.916 147.831 228.246 146.954 227.758C146.078 227.269 145.107 226.974 144.107 226.891C143.108 226.809 142.102 226.941 141.157 227.28Z" fill="white"></path><path d="M33.6919 318.933C38.3371 318.743 47.6275 313.965 47.6465 313.965C47.6654 313.965 42.641 308.808 42.2808 308.505C38.1285 305.205 28.1556 301.243 23.207 304.542C22.4005 305.111 21.7227 305.842 21.2176 306.69C20.7125 307.538 20.3914 308.482 20.2752 309.462C20.1589 310.442 20.2502 311.436 20.543 312.378C20.8358 313.32 21.3235 314.19 21.9746 314.932C24.648 318.174 29.7861 319.084 33.6919 318.933Z" fill="white"></path></g><path d="M87.9365 435.252C87.9365 435.252 116.13 367.3 131.905 370.257C147.679 373.215 104.849 478.595 104.849 478.595C104.849 478.595 154.448 385.027 188.273 385.027C222.097 385.027 175.873 488.435 133.042 522.904C133.042 522.904 200.673 450.022 240.147 465.797C279.622 481.571 161.217 555.421 161.217 555.421C161.217 555.421 229.985 533.749 222.097 550.491C214.21 567.233 192.842 570.19 192.842 570.19L270.578 574.134H0L60.8806 568.219C60.8806 568.219 -2.25624 536.707 14.6182 523.89C31.4926 511.073 68.73 538.66 68.73 538.66C68.73 538.66 4.47456 467.75 16.8744 441.168C29.2742 414.586 84.5237 489.421 84.5237 489.421C84.5237 489.421 39.4178 393.9 48.4997 377.14C57.5815 360.379 87.9365 435.252 87.9365 435.252Z" fill="#189AB4"></path><path opacity="0.4" d="M87.9365 435.252C87.9365 435.252 116.13 367.3 131.905 370.257C147.679 373.215 104.849 478.595 104.849 478.595C104.849 478.595 154.448 385.027 188.273 385.027C222.097 385.027 175.873 488.435 133.042 522.904C133.042 522.904 200.673 450.022 240.147 465.797C279.622 481.571 161.217 555.421 161.217 555.421C161.217 555.421 229.985 533.749 222.097 550.491C214.21 567.233 192.842 570.19 192.842 570.19L270.578 574.134H0L60.8806 568.219C60.8806 568.219 -2.25624 536.707 14.6182 523.89C31.4926 511.073 68.73 538.66 68.73 538.66C68.73 538.66 4.47456 467.75 16.8744 441.168C29.2742 414.586 84.5237 489.421 84.5237 489.421C84.5237 489.421 39.4178 393.9 48.4997 377.14C57.5815 360.379 87.9365 435.252 87.9365 435.252Z" fill="white"></path><path d="M78.9305 438.836C103.73 512.116 103.73 563.972 103.73 563.972C103.73 563.972 74.418 565.109 43.9683 542.566" stroke="#189AB4" stroke-linecap="round" stroke-linejoin="round"></path><path d="M91.3303 478.291C96.4346 456.384 103.217 434.902 111.618 414.036" stroke="#189AB4" stroke-linecap="round" stroke-linejoin="round"></path><path d="M164.611 435.461L101.474 529.028C101.474 529.028 58.6243 493.004 43.9683 472.66" stroke="#189AB4" stroke-linecap="round" stroke-linejoin="round"></path><path d="M102.593 551.572C102.593 551.572 169.104 520.003 196.179 501.972" stroke="#189AB4" stroke-linecap="round" stroke-linejoin="round"></path><path d="M656.642 274.907C656.528 274.907 657.969 267.835 658.102 267.323C659.732 262.28 665.875 253.483 671.81 253.483C672.797 253.513 673.767 253.751 674.657 254.181C675.547 254.611 676.336 255.223 676.974 255.977C677.613 256.731 678.085 257.611 678.361 258.56C678.638 259.509 678.712 260.505 678.578 261.484C678.142 265.655 674.388 269.219 670.994 271.267C667.013 273.751 656.642 274.907 656.642 274.907Z" fill="#189AB4"></path><path d="M645.133 227.28C650.726 229.29 653.513 239.642 653.324 244.951C653.324 245.406 652.262 252.535 652.167 252.535H652.053C652.489 254.165 652.963 255.909 653.437 257.843C654.272 261.408 655.182 265.427 655.883 269.902C656.697 274.695 657.228 279.532 657.476 284.387C657.778 289.828 657.594 295.285 656.926 300.693C656.919 300.756 656.919 300.82 656.926 300.883C657.665 299.309 659.865 294.967 660.054 294.645C662.974 290.208 671.203 283.269 676.948 284.918C677.891 285.206 678.763 285.689 679.507 286.337C680.251 286.984 680.85 287.781 681.265 288.676C681.68 289.57 681.902 290.542 681.916 291.528C681.93 292.514 681.736 293.492 681.347 294.398C679.83 298.323 675.279 300.75 671.468 301.85C667.164 303.063 657.571 301.622 656.812 301.508C655.999 306.991 654.821 312.413 653.286 317.738C652.401 320.847 651.44 323.951 650.404 327.047C651.067 325.701 651.693 324.507 651.788 324.355C654.708 319.918 662.955 312.979 668.681 314.629C669.625 314.916 670.497 315.4 671.24 316.047C671.984 316.694 672.583 317.491 672.998 318.386C673.413 319.28 673.635 320.253 673.649 321.239C673.663 322.225 673.469 323.203 673.08 324.109C671.563 328.014 667.013 330.46 663.202 331.541C659.391 332.622 651.124 331.541 648.963 331.275L647.768 334.821C645.872 340.509 643.806 346.197 642.08 351.771C641.455 353.667 640.905 355.715 640.355 357.687C640.962 356.492 641.474 355.487 641.568 355.355C644.488 350.899 652.717 343.979 658.443 345.628C659.386 345.916 660.258 346.4 661.002 347.047C661.747 347.694 662.347 348.49 662.763 349.384C663.18 350.278 663.404 351.25 663.421 352.236C663.437 353.222 663.246 354.201 662.861 355.108C661.344 359.014 656.774 361.46 652.963 362.541C649.152 363.621 641.701 362.673 639.123 362.313C638.611 364.342 638.118 366.389 637.72 368.38C637.473 369.745 637.151 371.035 636.98 372.438L636.411 376.495C636.146 379.093 635.843 381.766 635.653 384.307C635.501 386.089 635.388 387.776 635.274 389.464C635.88 387.568 637.17 383.643 637.265 383.34C639.37 379.172 642.502 375.609 646.365 372.987C646.58 372.508 646.84 372.051 647.143 371.622C647.679 370.794 648.385 370.088 649.213 369.551C650.041 369.014 650.974 368.658 651.949 368.506C652.924 368.354 653.921 368.409 654.873 368.668C655.825 368.928 656.712 369.385 657.476 370.011C661.988 373.898 660.851 384.553 658.784 389.445C658.67 389.729 656.983 392.725 655.902 394.583C656.718 393.578 657.476 392.687 658.329 391.587C659.979 389.559 661.685 387.587 663.505 385.463L666.292 382.449C667.202 381.425 668.302 380.458 669.307 379.434C671.677 377.14 674.199 374.921 676.796 372.76C675.033 371.3 668.814 366.067 667.032 362.503C665.25 358.938 663.979 353.952 665.837 350.179C666.245 349.278 666.839 348.474 667.578 347.819C668.318 347.163 669.188 346.671 670.13 346.374C671.073 346.077 672.068 345.982 673.05 346.095C674.032 346.208 674.979 346.527 675.829 347.031C680.854 350.179 681.365 360.891 680.057 365.991C680.057 366.314 678.616 369.916 677.839 371.869C679.413 370.561 680.967 369.271 682.598 368.077C687.3 364.455 692.173 360.929 697.007 357.383L701.425 354.103C700.799 353.591 693.291 347.524 691.282 343.524C689.518 339.978 688.229 334.973 690.087 331.219C690.493 330.317 691.085 329.511 691.824 328.853C692.563 328.196 693.433 327.701 694.376 327.403C695.318 327.104 696.314 327.007 697.297 327.119C698.279 327.231 699.227 327.549 700.079 328.052C705.122 331.219 705.615 341.912 704.307 347.012C704.212 347.391 702.259 352.549 701.71 353.838C704.933 351.43 708.137 349.003 711.19 346.481C715.339 343.084 719.265 339.424 722.945 335.522C722.66 335.295 714.792 328.981 712.744 324.905C710.962 321.359 709.692 316.354 711.55 312.581C711.956 311.682 712.548 310.878 713.285 310.222C714.023 309.567 714.89 309.073 715.831 308.775C716.771 308.476 717.764 308.379 718.745 308.489C719.725 308.599 720.672 308.915 721.523 309.415C726.566 312.581 727.078 323.293 725.77 328.375C725.675 328.716 724.196 332.66 723.457 334.499C723.544 334.573 723.639 334.636 723.741 334.688C727.337 330.661 730.567 326.321 733.392 321.72C734.984 319.217 736.349 316.714 737.639 314.268C736.046 313.244 728.86 308.58 726.604 305.016C724.348 301.451 722.641 296.844 724.063 292.9C724.37 291.962 724.871 291.099 725.533 290.367C726.196 289.635 727.005 289.05 727.908 288.651C728.811 288.252 729.788 288.048 730.775 288.052C731.763 288.055 732.738 288.267 733.638 288.672C739.004 291.251 740.672 301.944 739.933 307.101C739.933 307.386 739.175 310.249 738.625 312.315C739.175 311.216 739.781 310.059 740.293 308.979C742.189 304.94 743.801 301.11 745.128 297.716C745.886 295.82 746.512 293.924 747.024 292.332C745.981 290.53 741.924 283.155 741.526 279.06C741.127 274.964 741.772 269.978 744.863 267.134C745.566 266.441 746.408 265.905 747.333 265.559C748.257 265.213 749.244 265.066 750.23 265.126C751.215 265.187 752.177 265.455 753.052 265.912C753.927 266.369 754.696 267.005 755.309 267.778C758.874 272.537 755.48 282.719 752.409 287.042C752.143 287.421 747.308 292.73 747.251 292.73V292.616C746.721 294.228 746.152 295.934 745.469 297.811C744.218 301.243 742.758 305.111 740.881 309.187C738.897 313.633 736.662 317.963 734.188 322.156C731.427 326.852 728.255 331.293 724.708 335.428L724.575 335.56C726.054 334.65 730.263 332.242 730.624 332.091C735.515 329.986 746.171 328.811 750.077 333.285C750.705 334.047 751.166 334.932 751.43 335.884C751.694 336.835 751.755 337.832 751.608 338.808C751.462 339.785 751.111 340.719 750.579 341.551C750.047 342.383 749.346 343.094 748.522 343.637C745.09 346.064 739.952 345.533 736.16 344.396C731.894 343.05 724.784 336.546 724.139 336.034C720.431 340.155 716.453 344.025 712.232 347.619C709.787 349.724 707.246 351.771 704.648 353.8C705.957 353.061 707.132 352.397 707.303 352.321C712.175 350.216 722.831 349.041 726.737 353.516C727.368 354.276 727.832 355.161 728.098 356.113C728.363 357.065 728.425 358.062 728.278 359.04C728.131 360.017 727.779 360.953 727.246 361.785C726.712 362.617 726.009 363.326 725.182 363.868C721.769 366.295 716.612 365.764 712.839 364.626C709.066 363.489 702.752 357.99 701.122 356.53C700.117 357.308 699.226 358.085 698.145 358.843C693.386 362.503 688.665 366.124 684.02 369.821C682.408 371.129 680.873 372.457 679.318 373.803L681.631 372.513C686.504 370.428 697.159 369.233 701.065 373.727C701.696 374.487 702.16 375.372 702.426 376.324C702.691 377.276 702.753 378.274 702.606 379.251C702.459 380.229 702.107 381.164 701.574 381.996C701.04 382.828 700.337 383.538 699.51 384.079C696.078 386.506 690.94 385.975 687.167 384.819C683.394 383.662 677.687 378.713 675.791 377.007C674.255 378.41 672.701 379.832 671.279 381.273C670.312 382.278 669.383 383.169 668.435 384.25L665.705 387.34C664.055 389.35 662.33 391.417 660.756 393.426C659.656 394.829 658.632 396.176 657.609 397.522C659.182 396.213 662.368 393.73 662.652 393.521C667.146 390.696 677.517 387.928 682.048 391.758C682.782 392.418 683.37 393.224 683.772 394.126C684.174 395.028 684.382 396.004 684.382 396.991C684.382 397.978 684.174 398.954 683.772 399.856C683.37 400.757 682.782 401.564 682.048 402.224C679.014 405.144 673.857 405.447 669.952 404.84C665.629 404.177 657.817 399.152 656.85 398.451C655.144 400.688 653.513 402.887 651.996 404.973C646.745 412.235 642.649 418.491 639.843 422.89C639.843 423.061 639.653 423.194 639.559 423.345L635.918 421.582L636.487 420.71C639.426 416.33 643.711 410.111 649.171 402.887C650.897 400.593 652.774 398.204 654.727 395.739C652.694 393.528 650.795 391.198 649.039 388.762C644.849 390.393 636.165 390.45 635.027 390.45C634.857 393.275 634.705 396.005 634.591 398.583C634.212 407.552 634.25 415.022 634.345 420.236V420.843L630.344 418.947C630.344 413.751 630.553 406.736 631.084 398.432C631.254 395.588 631.501 392.535 631.785 389.407C630.666 389.141 621.623 386.809 618.21 384.079C615.119 381.614 611.858 377.595 611.972 373.405C611.961 372.416 612.16 371.437 612.554 370.531C612.948 369.624 613.53 368.812 614.26 368.146C614.991 367.48 615.853 366.976 616.792 366.666C617.731 366.357 618.724 366.25 619.708 366.351C625.604 367.11 630.553 376.609 631.52 381.842C631.52 382.145 631.823 385.634 631.937 387.7C632.069 386.43 632.164 385.198 632.316 383.908C632.562 381.311 632.904 378.732 633.264 375.945C633.473 374.618 633.7 373.253 633.909 371.888C634.117 370.523 634.477 369.12 634.762 367.736C635.482 364.493 636.354 361.251 637.321 358.009C635.046 357.782 626.988 356.834 623.519 354.843C620.049 352.852 616.257 349.401 615.745 345.23C615.586 344.255 615.635 343.258 615.888 342.304C616.142 341.349 616.594 340.459 617.215 339.691C617.836 338.923 618.612 338.295 619.492 337.848C620.373 337.401 621.338 337.145 622.324 337.096C628.259 336.944 634.591 345.59 636.335 350.615C636.449 350.918 637.302 354.653 637.72 356.72C638.326 354.824 638.895 352.833 639.616 350.88C641.512 345.192 643.654 339.637 645.74 334.006C646.384 332.28 646.991 330.555 647.636 328.83C646.82 328.83 637.208 327.844 633.34 325.606C629.908 323.71 626.078 320.165 625.547 315.994C625.392 315.019 625.443 314.023 625.697 313.07C625.952 312.117 626.404 311.228 627.024 310.461C627.645 309.694 628.42 309.066 629.299 308.618C630.178 308.17 631.141 307.911 632.126 307.86C638.08 307.708 644.412 316.373 646.157 321.378C646.289 321.758 647.503 327.066 647.749 328.526C649.115 324.734 650.461 320.942 651.541 317.15C653.143 312.03 654.409 306.812 655.333 301.527C654.954 301.527 644.924 300.579 640.962 298.304C637.511 296.313 633.681 292.844 633.169 288.672C633.01 287.698 633.059 286.7 633.313 285.746C633.566 284.792 634.018 283.901 634.639 283.133C635.26 282.366 636.036 281.738 636.917 281.29C637.797 280.843 638.762 280.587 639.748 280.539C645.683 280.387 652.015 289.052 653.76 294.057C653.874 294.379 654.821 298.494 655.22 300.446H655.542C656.325 295.106 656.63 289.706 656.452 284.312C656.452 281.354 656.168 278.51 655.883 275.761C653.987 275.761 645.379 275.761 641.587 274.13C637.795 272.499 633.757 269.504 632.771 265.427C632.508 264.472 632.45 263.473 632.6 262.494C632.75 261.515 633.105 260.578 633.642 259.746C634.179 258.914 634.886 258.204 635.716 257.664C636.546 257.124 637.481 256.765 638.459 256.611C644.356 255.815 651.598 263.721 653.892 268.499C654.006 268.764 654.992 271.551 655.656 273.599C655.523 272.348 655.39 271.077 655.22 269.807C654.632 265.352 653.798 261.313 653.039 257.73C652.584 255.701 652.148 253.938 651.712 252.174C649.816 251.226 642.384 247.34 639.843 244.173C637.302 241.007 635.027 236.475 636.051 232.399C636.268 231.441 636.683 230.54 637.27 229.752C637.857 228.964 638.602 228.308 639.457 227.826C640.313 227.344 641.26 227.046 642.237 226.952C643.215 226.858 644.201 226.97 645.133 227.28Z" fill="#189AB4"></path><path d="M752.598 318.933C747.953 318.743 738.663 313.965 738.663 313.965C738.663 313.965 743.649 308.808 744.009 308.505C748.162 305.205 758.135 301.243 763.083 304.542C763.892 305.109 764.572 305.84 765.079 306.687C765.586 307.535 765.908 308.48 766.024 309.461C766.141 310.442 766.049 311.436 765.754 312.379C765.46 313.322 764.969 314.192 764.315 314.932C761.642 318.174 756.561 319.084 752.598 318.933Z" fill="#189AB4"></path><g opacity="0.5"><path d="M656.642 274.907C656.528 274.907 657.969 267.835 658.102 267.323C659.732 262.28 665.875 253.483 671.81 253.483C672.797 253.513 673.767 253.751 674.657 254.181C675.547 254.611 676.336 255.223 676.974 255.977C677.613 256.731 678.085 257.611 678.361 258.56C678.638 259.509 678.712 260.505 678.578 261.484C678.142 265.655 674.388 269.219 670.994 271.267C667.013 273.751 656.642 274.907 656.642 274.907Z" fill="white"></path><path d="M645.133 227.28C650.726 229.29 653.513 239.642 653.324 244.951C653.324 245.406 652.262 252.535 652.167 252.535H652.053C652.489 254.165 652.963 255.909 653.437 257.843C654.272 261.408 655.182 265.427 655.883 269.902C656.697 274.695 657.228 279.532 657.476 284.387C657.778 289.828 657.594 295.285 656.926 300.693C656.919 300.756 656.919 300.82 656.926 300.883C657.665 299.309 659.865 294.967 660.054 294.645C662.974 290.208 671.203 283.269 676.948 284.918C677.891 285.206 678.763 285.689 679.507 286.337C680.251 286.984 680.85 287.781 681.265 288.676C681.68 289.57 681.902 290.542 681.916 291.528C681.93 292.514 681.736 293.492 681.347 294.398C679.83 298.323 675.279 300.75 671.468 301.85C667.164 303.063 657.571 301.622 656.812 301.508C655.999 306.991 654.821 312.413 653.286 317.738C652.401 320.847 651.44 323.951 650.404 327.047C651.067 325.701 651.693 324.507 651.788 324.355C654.708 319.918 662.955 312.979 668.681 314.629C669.625 314.916 670.497 315.4 671.24 316.047C671.984 316.694 672.583 317.491 672.998 318.386C673.413 319.28 673.635 320.253 673.649 321.239C673.663 322.225 673.469 323.203 673.08 324.109C671.563 328.014 667.013 330.46 663.202 331.541C659.391 332.622 651.124 331.541 648.963 331.275L647.768 334.821C645.872 340.509 643.806 346.197 642.08 351.771C641.455 353.667 640.905 355.715 640.355 357.687C640.962 356.492 641.474 355.487 641.568 355.355C644.488 350.899 652.717 343.979 658.443 345.628C659.386 345.916 660.258 346.4 661.002 347.047C661.747 347.694 662.347 348.49 662.763 349.384C663.18 350.278 663.404 351.25 663.421 352.236C663.437 353.222 663.246 354.201 662.861 355.108C661.344 359.014 656.774 361.46 652.963 362.541C649.152 363.621 641.701 362.673 639.123 362.313C638.611 364.342 638.118 366.389 637.72 368.38C637.473 369.745 637.151 371.035 636.98 372.438L636.411 376.495C636.146 379.093 635.843 381.766 635.653 384.307C635.501 386.089 635.388 387.776 635.274 389.464C635.88 387.568 637.17 383.643 637.265 383.34C639.37 379.172 642.502 375.609 646.365 372.987C646.58 372.508 646.84 372.051 647.143 371.622C647.679 370.794 648.385 370.088 649.213 369.551C650.041 369.014 650.974 368.658 651.949 368.506C652.924 368.354 653.921 368.409 654.873 368.668C655.825 368.928 656.712 369.385 657.476 370.011C661.988 373.898 660.851 384.553 658.784 389.445C658.67 389.729 656.983 392.725 655.902 394.583C656.718 393.578 657.476 392.687 658.329 391.587C659.979 389.559 661.685 387.587 663.505 385.463L666.292 382.449C667.202 381.425 668.302 380.458 669.307 379.434C671.677 377.14 674.199 374.921 676.796 372.76C675.033 371.3 668.814 366.067 667.032 362.503C665.25 358.938 663.979 353.952 665.837 350.179C666.245 349.278 666.839 348.474 667.578 347.819C668.318 347.163 669.188 346.671 670.13 346.374C671.073 346.077 672.068 345.982 673.05 346.095C674.032 346.208 674.979 346.527 675.829 347.031C680.854 350.179 681.365 360.891 680.057 365.991C680.057 366.314 678.616 369.916 677.839 371.869C679.413 370.561 680.967 369.271 682.598 368.077C687.3 364.455 692.173 360.929 697.007 357.383L701.425 354.103C700.799 353.591 693.291 347.524 691.282 343.524C689.518 339.978 688.229 334.973 690.087 331.219C690.493 330.317 691.085 329.511 691.824 328.853C692.563 328.196 693.433 327.701 694.376 327.403C695.318 327.104 696.314 327.007 697.297 327.119C698.279 327.231 699.227 327.549 700.079 328.052C705.122 331.219 705.615 341.912 704.307 347.012C704.212 347.391 702.259 352.549 701.71 353.838C704.933 351.43 708.137 349.003 711.19 346.481C715.339 343.084 719.265 339.424 722.945 335.522C722.66 335.295 714.792 328.981 712.744 324.905C710.962 321.359 709.692 316.354 711.55 312.581C711.956 311.682 712.548 310.878 713.285 310.222C714.023 309.567 714.89 309.073 715.831 308.775C716.771 308.476 717.764 308.379 718.745 308.489C719.725 308.599 720.672 308.915 721.523 309.415C726.566 312.581 727.078 323.293 725.77 328.375C725.675 328.716 724.196 332.66 723.457 334.499C723.544 334.573 723.639 334.636 723.741 334.688C727.337 330.661 730.567 326.321 733.392 321.72C734.984 319.217 736.349 316.714 737.639 314.268C736.046 313.244 728.86 308.58 726.604 305.016C724.348 301.451 722.641 296.844 724.063 292.9C724.37 291.962 724.871 291.099 725.533 290.367C726.196 289.635 727.005 289.05 727.908 288.651C728.811 288.252 729.788 288.048 730.775 288.052C731.763 288.055 732.738 288.267 733.638 288.672C739.004 291.251 740.672 301.944 739.933 307.101C739.933 307.386 739.175 310.249 738.625 312.315C739.175 311.216 739.781 310.059 740.293 308.979C742.189 304.94 743.801 301.11 745.128 297.716C745.886 295.82 746.512 293.924 747.024 292.332C745.981 290.53 741.924 283.155 741.526 279.06C741.127 274.964 741.772 269.978 744.863 267.134C745.566 266.441 746.408 265.905 747.333 265.559C748.257 265.213 749.244 265.066 750.23 265.126C751.215 265.187 752.177 265.455 753.052 265.912C753.927 266.369 754.696 267.005 755.309 267.778C758.874 272.537 755.48 282.719 752.409 287.042C752.143 287.421 747.308 292.73 747.251 292.73V292.616C746.721 294.228 746.152 295.934 745.469 297.811C744.218 301.243 742.758 305.111 740.881 309.187C738.897 313.633 736.662 317.963 734.188 322.156C731.427 326.852 728.255 331.293 724.708 335.428L724.575 335.56C726.054 334.65 730.263 332.242 730.624 332.091C735.515 329.986 746.171 328.811 750.077 333.285C750.705 334.047 751.166 334.932 751.43 335.884C751.694 336.835 751.755 337.832 751.608 338.808C751.462 339.785 751.111 340.719 750.579 341.551C750.047 342.383 749.346 343.094 748.522 343.637C745.09 346.064 739.952 345.533 736.16 344.396C731.894 343.05 724.784 336.546 724.139 336.034C720.431 340.155 716.453 344.025 712.232 347.619C709.787 349.724 707.246 351.771 704.648 353.8C705.957 353.061 707.132 352.397 707.303 352.321C712.175 350.216 722.831 349.041 726.737 353.516C727.368 354.276 727.832 355.161 728.098 356.113C728.363 357.065 728.425 358.062 728.278 359.04C728.131 360.017 727.779 360.953 727.246 361.785C726.712 362.617 726.009 363.326 725.182 363.868C721.769 366.295 716.612 365.764 712.839 364.626C709.066 363.489 702.752 357.99 701.122 356.53C700.117 357.308 699.226 358.085 698.145 358.843C693.386 362.503 688.665 366.124 684.02 369.821C682.408 371.129 680.873 372.457 679.318 373.803L681.631 372.513C686.504 370.428 697.159 369.233 701.065 373.727C701.696 374.487 702.16 375.372 702.426 376.324C702.691 377.276 702.753 378.274 702.606 379.251C702.459 380.229 702.107 381.164 701.574 381.996C701.04 382.828 700.337 383.538 699.51 384.079C696.078 386.506 690.94 385.975 687.167 384.819C683.394 383.662 677.687 378.713 675.791 377.007C674.255 378.41 672.701 379.832 671.279 381.273C670.312 382.278 669.383 383.169 668.435 384.25L665.705 387.34C664.055 389.35 662.33 391.417 660.756 393.426C659.656 394.829 658.632 396.176 657.609 397.522C659.182 396.213 662.368 393.73 662.652 393.521C667.146 390.696 677.517 387.928 682.048 391.758C682.782 392.418 683.37 393.224 683.772 394.126C684.174 395.028 684.382 396.004 684.382 396.991C684.382 397.978 684.174 398.954 683.772 399.856C683.37 400.757 682.782 401.564 682.048 402.224C679.014 405.144 673.857 405.447 669.952 404.84C665.629 404.177 657.817 399.152 656.85 398.451C655.144 400.688 653.513 402.887 651.996 404.973C646.745 412.235 642.649 418.491 639.843 422.89C639.843 423.061 639.653 423.194 639.559 423.345L635.918 421.582L636.487 420.71C639.426 416.33 643.711 410.111 649.171 402.887C650.897 400.593 652.774 398.204 654.727 395.739C652.694 393.528 650.795 391.198 649.039 388.762C644.849 390.393 636.165 390.45 635.027 390.45C634.857 393.275 634.705 396.005 634.591 398.583C634.212 407.552 634.25 415.022 634.345 420.236V420.843L630.344 418.947C630.344 413.751 630.553 406.736 631.084 398.432C631.254 395.588 631.501 392.535 631.785 389.407C630.666 389.141 621.623 386.809 618.21 384.079C615.119 381.614 611.858 377.595 611.972 373.405C611.961 372.416 612.16 371.437 612.554 370.531C612.948 369.624 613.53 368.812 614.26 368.146C614.991 367.48 615.853 366.976 616.792 366.666C617.731 366.357 618.724 366.25 619.708 366.351C625.604 367.11 630.553 376.609 631.52 381.842C631.52 382.145 631.823 385.634 631.937 387.7C632.069 386.43 632.164 385.198 632.316 383.908C632.562 381.311 632.904 378.732 633.264 375.945C633.473 374.618 633.7 373.253 633.909 371.888C634.117 370.523 634.477 369.12 634.762 367.736C635.482 364.493 636.354 361.251 637.321 358.009C635.046 357.782 626.988 356.834 623.519 354.843C620.049 352.852 616.257 349.401 615.745 345.23C615.586 344.255 615.635 343.258 615.888 342.304C616.142 341.349 616.594 340.459 617.215 339.691C617.836 338.923 618.612 338.295 619.492 337.848C620.373 337.401 621.338 337.145 622.324 337.096C628.259 336.944 634.591 345.59 636.335 350.615C636.449 350.918 637.302 354.653 637.72 356.72C638.326 354.824 638.895 352.833 639.616 350.88C641.512 345.192 643.654 339.637 645.74 334.006C646.384 332.28 646.991 330.555 647.636 328.83C646.82 328.83 637.208 327.844 633.34 325.606C629.908 323.71 626.078 320.165 625.547 315.994C625.392 315.019 625.443 314.023 625.697 313.07C625.952 312.117 626.404 311.228 627.024 310.461C627.645 309.694 628.42 309.066 629.299 308.618C630.178 308.17 631.141 307.911 632.126 307.86C638.08 307.708 644.412 316.373 646.157 321.378C646.289 321.758 647.503 327.066 647.749 328.526C649.115 324.734 650.461 320.942 651.541 317.15C653.143 312.03 654.409 306.812 655.333 301.527C654.954 301.527 644.924 300.579 640.962 298.304C637.511 296.313 633.681 292.844 633.169 288.672C633.01 287.698 633.059 286.7 633.313 285.746C633.566 284.792 634.018 283.901 634.639 283.133C635.26 282.366 636.036 281.738 636.917 281.29C637.797 280.843 638.762 280.587 639.748 280.539C645.683 280.387 652.015 289.052 653.76 294.057C653.874 294.379 654.821 298.494 655.22 300.446H655.542C656.325 295.106 656.63 289.706 656.452 284.312C656.452 281.354 656.168 278.51 655.883 275.761C653.987 275.761 645.379 275.761 641.587 274.13C637.795 272.499 633.757 269.504 632.771 265.427C632.508 264.472 632.45 263.473 632.6 262.494C632.75 261.515 633.105 260.578 633.642 259.746C634.179 258.914 634.886 258.204 635.716 257.664C636.546 257.124 637.481 256.765 638.459 256.611C644.356 255.815 651.598 263.721 653.892 268.499C654.006 268.764 654.992 271.551 655.656 273.599C655.523 272.348 655.39 271.077 655.22 269.807C654.632 265.352 653.798 261.313 653.039 257.73C652.584 255.701 652.148 253.938 651.712 252.174C649.816 251.226 642.384 247.34 639.843 244.173C637.302 241.007 635.027 236.475 636.051 232.399C636.268 231.441 636.683 230.54 637.27 229.752C637.857 228.964 638.602 228.308 639.457 227.826C640.313 227.344 641.26 227.046 642.237 226.952C643.215 226.858 644.201 226.97 645.133 227.28Z" fill="white"></path><path d="M752.598 318.933C747.953 318.743 738.663 313.965 738.663 313.965C738.663 313.965 743.649 308.808 744.009 308.505C748.162 305.205 758.135 301.243 763.083 304.542C763.892 305.109 764.572 305.84 765.079 306.687C765.586 307.535 765.908 308.48 766.024 309.461C766.141 310.442 766.049 311.436 765.754 312.379C765.46 313.322 764.969 314.192 764.315 314.932C761.642 318.174 756.561 319.084 752.598 318.933Z" fill="white"></path></g><path d="M698.354 435.252C698.354 435.252 670.16 367.3 654.385 370.257C638.611 373.215 681.441 478.595 681.441 478.595C681.441 478.595 631.842 385.027 598.017 385.027C564.193 385.027 610.417 488.435 653.267 522.904C653.267 522.904 585.617 450.022 546.162 465.797C506.706 481.571 625.13 555.421 625.13 555.421C625.13 555.421 556.362 533.749 564.25 550.491C572.137 567.233 593.562 570.19 593.562 570.19L515.826 574.134H786.29L725.41 568.219C725.41 568.219 788.546 536.707 771.634 523.89C754.722 511.073 717.522 538.66 717.522 538.66C717.522 538.66 781.778 467.75 769.378 441.168C756.978 414.586 701.728 489.421 701.728 489.421C701.728 489.421 746.834 393.9 737.752 377.14C728.671 360.379 698.354 435.252 698.354 435.252Z" fill="#189AB4"></path><path opacity="0.4" d="M698.354 435.252C698.354 435.252 670.16 367.3 654.385 370.257C638.611 373.215 681.441 478.595 681.441 478.595C681.441 478.595 631.842 385.027 598.017 385.027C564.193 385.027 610.417 488.435 653.267 522.904C653.267 522.904 585.617 450.022 546.162 465.797C506.706 481.571 625.13 555.421 625.13 555.421C625.13 555.421 556.362 533.749 564.25 550.491C572.137 567.233 593.562 570.19 593.562 570.19L515.826 574.134H786.29L725.41 568.219C725.41 568.219 788.546 536.707 771.634 523.89C754.722 511.073 717.522 538.66 717.522 538.66C717.522 538.66 781.778 467.75 769.378 441.168C756.978 414.586 701.728 489.421 701.728 489.421C701.728 489.421 746.834 393.9 737.752 377.14C728.671 360.379 698.354 435.252 698.354 435.252Z" fill="white"></path><path d="M707.379 438.836C682.579 512.116 682.579 563.972 682.579 563.972C682.579 563.972 711.891 565.109 742.322 542.566" stroke="#189AB4" stroke-linecap="round" stroke-linejoin="round"></path><path d="M694.979 478.291C689.862 456.386 683.073 434.904 674.673 414.036" stroke="#189AB4" stroke-linecap="round" stroke-linejoin="round"></path><path d="M621.698 435.461L684.816 529.028C684.816 529.028 727.666 493.004 742.322 472.66" stroke="#189AB4" stroke-linecap="round" stroke-linejoin="round"></path><path d="M683.698 551.572C683.698 551.572 617.186 520.003 590.13 501.972" stroke="#189AB4" stroke-linecap="round" stroke-linejoin="round"></path><path d="M262.425 95.2805L246.935 70.5566H110.499V95.2805V104.173V515.491H672.094V95.2805H262.425Z" fill="#05445E"></path><path d="M668.397 106.619H114.67V506.523H668.397V106.619Z" fill="white"></path><mask id="mask0_449_623" style="mask-type:luminance" maskUnits="userSpaceOnUse" x="114" y="106" width="555" height="401"><path d="M668.397 106.619H114.67V506.523H668.397V106.619Z" fill="white"></path></mask><g mask="url(#mask0_449_623)"><path opacity="0.17" d="M671.108 103.187H658.253V509.556H671.108V103.187Z" fill="#05445E"></path><path opacity="0.17" d="M671.108 348.889H658.253V506.257H671.108V348.889Z" fill="#05445E"></path><path d="M669.118 101.215H112.471V122.962H669.118V101.215Z" fill="#189AB4" stroke="#189AB4" stroke-miterlimit="10"></path></g><path d="M668.397 106.619H114.67V506.523H668.397V106.619Z" stroke="#189AB4" stroke-linecap="round" stroke-linejoin="round"></path><g opacity="0.17"><path d="M403.166 143.932H364.43C363.982 143.932 363.538 143.844 363.124 143.672C362.71 143.501 362.334 143.249 362.017 142.932C361.7 142.615 361.449 142.239 361.277 141.825C361.106 141.411 361.018 140.967 361.018 140.519C361.015 140.069 361.101 139.623 361.272 139.207C361.442 138.791 361.693 138.412 362.01 138.094C362.328 137.775 362.705 137.522 363.12 137.349C363.535 137.176 363.981 137.087 364.43 137.087H403.166C403.615 137.087 404.061 137.176 404.476 137.349C404.891 137.522 405.268 137.775 405.586 138.094C405.903 138.412 406.154 138.791 406.324 139.207C406.494 139.623 406.581 140.069 406.578 140.519C406.578 140.967 406.49 141.411 406.319 141.825C406.147 142.239 405.896 142.615 405.579 142.932C405.262 143.249 404.886 143.501 404.472 143.672C404.058 143.844 403.614 143.932 403.166 143.932Z" fill="#05445E"></path><path d="M480.636 143.932H441.901C440.997 143.927 440.132 143.566 439.493 142.927C438.854 142.288 438.493 141.423 438.488 140.519C438.488 139.612 438.847 138.742 439.486 138.099C440.126 137.456 440.994 137.092 441.901 137.087H480.636C481.546 137.087 482.419 137.449 483.063 138.092C483.706 138.736 484.068 139.609 484.068 140.519C484.063 141.426 483.699 142.294 483.056 142.933C482.413 143.573 481.543 143.932 480.636 143.932Z" fill="#05445E"></path><path d="M558.126 143.932H519.39C518.483 143.932 517.613 143.573 516.97 142.933C516.327 142.294 515.964 141.426 515.959 140.519C515.959 139.609 516.32 138.736 516.964 138.092C517.607 137.449 518.48 137.087 519.39 137.087H558.126C559.033 137.092 559.901 137.456 560.54 138.099C561.18 138.742 561.538 139.612 561.538 140.519C561.533 141.423 561.172 142.288 560.533 142.927C559.894 143.566 559.029 143.927 558.126 143.932Z" fill="#05445E"></path><path d="M635.596 143.932H596.861C596.413 143.932 595.969 143.844 595.555 143.672C595.141 143.501 594.765 143.249 594.448 142.932C594.131 142.615 593.879 142.239 593.708 141.825C593.536 141.411 593.448 140.967 593.448 140.519C593.446 140.069 593.532 139.623 593.702 139.207C593.873 138.791 594.124 138.412 594.441 138.094C594.758 137.775 595.135 137.522 595.551 137.349C595.966 137.176 596.411 137.087 596.861 137.087H635.596C636.503 137.092 637.371 137.456 638.011 138.099C638.65 138.742 639.009 139.612 639.009 140.519C639.004 141.423 638.643 142.288 638.004 142.927C637.365 143.566 636.5 143.927 635.596 143.932Z" fill="#05445E"></path></g><path d="M167 307.158H225.529" stroke="#189AB4" stroke-width="3" stroke-linecap="round" stroke-linejoin="round"></path><path d="M224.487 316.278H230.876" stroke="#189AB4" stroke-linecap="round" stroke-linejoin="round"></path><path d="M187.837 316.278H220.619" stroke="#189AB4" stroke-linecap="round" stroke-linejoin="round"></path><path d="M162.525 316.278H184.367" stroke="#189AB4" stroke-linecap="round" stroke-linejoin="round"></path><path d="M204.029 325.398H230.876" stroke="#189AB4" stroke-linecap="round" stroke-linejoin="round"></path><path d="M189.373 325.398H199.801" stroke="#189AB4" stroke-linecap="round" stroke-linejoin="round"></path><path d="M162.525 325.398H184.746" stroke="#189AB4" stroke-linecap="round" stroke-linejoin="round"></path><path d="M177.03 334.499H230.876" stroke="#189AB4" stroke-linecap="round" stroke-linejoin="round"></path><path d="M162.525 334.499H172.024" stroke="#189AB4" stroke-linecap="round" stroke-linejoin="round"></path><path d="M217.547 343.619H230.876" stroke="#189AB4" stroke-linecap="round" stroke-linejoin="round"></path><path d="M192.084 343.619H212.902" stroke="#189AB4" stroke-linecap="round" stroke-linejoin="round"></path><path d="M162.525 343.619H187.837" stroke="#189AB4" stroke-linecap="round" stroke-linejoin="round"></path><path d="M184.746 352.738H230.876" stroke="#189AB4" stroke-linecap="round" stroke-linejoin="round"></path><path d="M162.525 352.738H180.499" stroke="#189AB4" stroke-linecap="round" stroke-linejoin="round"></path><path d="M300.478 307.158H359.008" stroke="#189AB4" stroke-width="3" stroke-linecap="round" stroke-linejoin="round"></path><path d="M357.965 316.278H364.355" stroke="#189AB4" stroke-linecap="round" stroke-linejoin="round"></path><path d="M321.315 316.278H354.097" stroke="#189AB4" stroke-linecap="round" stroke-linejoin="round"></path><path d="M296.004 316.278H317.846" stroke="#189AB4" stroke-linecap="round" stroke-linejoin="round"></path><path d="M337.507 325.398H364.354" stroke="#189AB4" stroke-linecap="round" stroke-linejoin="round"></path><path d="M322.851 325.398H333.279" stroke="#189AB4" stroke-linecap="round" stroke-linejoin="round"></path><path d="M296.004 325.398H318.225" stroke="#189AB4" stroke-linecap="round" stroke-linejoin="round"></path><path d="M310.508 334.499H364.354" stroke="#189AB4" stroke-linecap="round" stroke-linejoin="round"></path><path d="M296.004 334.499H305.503" stroke="#189AB4" stroke-linecap="round" stroke-linejoin="round"></path><path d="M351.026 343.619H364.355" stroke="#189AB4" stroke-linecap="round" stroke-linejoin="round"></path><path d="M325.562 343.619H346.38" stroke="#189AB4" stroke-linecap="round" stroke-linejoin="round"></path><path d="M296.004 343.619H321.315" stroke="#189AB4" stroke-linecap="round" stroke-linejoin="round"></path><path d="M318.225 352.738H364.355" stroke="#189AB4" stroke-linecap="round" stroke-linejoin="round"></path><path d="M296.004 352.738H313.978" stroke="#189AB4" stroke-linecap="round" stroke-linejoin="round"></path><path d="M433.957 307.158H492.486" stroke="#189AB4" stroke-width="3" stroke-linecap="round" stroke-linejoin="round"></path><path d="M491.443 316.278H497.833" stroke="#189AB4" stroke-linecap="round" stroke-linejoin="round"></path><path d="M454.794 316.278H487.576" stroke="#189AB4" stroke-linecap="round" stroke-linejoin="round"></path><path d="M429.482 316.278H451.324" stroke="#189AB4" stroke-linecap="round" stroke-linejoin="round"></path><path d="M470.986 325.398H497.833" stroke="#189AB4" stroke-linecap="round" stroke-linejoin="round"></path><path d="M456.329 325.398H466.757" stroke="#189AB4" stroke-linecap="round" stroke-linejoin="round"></path><path d="M429.482 325.398H451.703" stroke="#189AB4" stroke-linecap="round" stroke-linejoin="round"></path><path d="M443.986 334.499H497.833" stroke="#189AB4" stroke-linecap="round" stroke-linejoin="round"></path><path d="M429.482 334.499H438.981" stroke="#189AB4" stroke-linecap="round" stroke-linejoin="round"></path><path d="M484.504 343.619H497.833" stroke="#189AB4" stroke-linecap="round" stroke-linejoin="round"></path><path d="M459.041 343.619H479.859" stroke="#189AB4" stroke-linecap="round" stroke-linejoin="round"></path><path d="M429.482 343.619H454.794" stroke="#189AB4" stroke-linecap="round" stroke-linejoin="round"></path><path d="M451.703 352.738H497.833" stroke="#189AB4" stroke-linecap="round" stroke-linejoin="round"></path><path d="M429.482 352.738H447.456" stroke="#189AB4" stroke-linecap="round" stroke-linejoin="round"></path><path d="M567.435 307.158H625.965" stroke="#189AB4" stroke-width="3" stroke-linecap="round" stroke-linejoin="round"></path><path d="M624.922 316.278H631.311" stroke="#189AB4" stroke-linecap="round" stroke-linejoin="round"></path><path d="M588.272 316.278H621.054" stroke="#189AB4" stroke-linecap="round" stroke-linejoin="round"></path><path d="M562.96 316.278H584.802" stroke="#189AB4" stroke-linecap="round" stroke-linejoin="round"></path><path d="M604.464 325.398H631.311" stroke="#189AB4" stroke-linecap="round" stroke-linejoin="round"></path><path d="M589.808 325.398H600.236" stroke="#189AB4" stroke-linecap="round" stroke-linejoin="round"></path><path d="M562.96 325.398H585.182" stroke="#189AB4" stroke-linecap="round" stroke-linejoin="round"></path><path d="M577.465 334.499H631.311" stroke="#189AB4" stroke-linecap="round" stroke-linejoin="round"></path><path d="M562.96 334.499H572.459" stroke="#189AB4" stroke-linecap="round" stroke-linejoin="round"></path><path d="M617.982 343.619H631.311" stroke="#189AB4" stroke-linecap="round" stroke-linejoin="round"></path><path d="M592.519 343.619H613.337" stroke="#189AB4" stroke-linecap="round" stroke-linejoin="round"></path><path d="M562.96 343.619H588.272" stroke="#189AB4" stroke-linecap="round" stroke-linejoin="round"></path><path d="M585.182 352.738H631.311" stroke="#189AB4" stroke-linecap="round" stroke-linejoin="round"></path><path d="M562.96 352.738H580.935" stroke="#189AB4" stroke-linecap="round" stroke-linejoin="round"></path><path d="M649.342 277.789H133.63V171.405H649.342V277.789Z" fill="#189AB4"></path><path opacity="0.7" d="M649.342 277.789H133.63V171.405H649.342V277.789Z" fill="white"></path><path d="M518.841 277.789H264.227V171.405H518.841V277.789Z" fill="#189AB4"></path><path opacity="0.92" d="M518.841 277.789H264.227V171.405H518.841V277.789Z" fill="white"></path><path d="M466.814 202.234H484.163" stroke="#189AB4" stroke-linecap="round" stroke-linejoin="round"></path><path d="M367.502 202.234H456.367" stroke="#189AB4" stroke-linecap="round" stroke-linejoin="round"></path><path d="M298.905 202.234H358.079" stroke="#189AB4" stroke-linecap="round" stroke-linejoin="round"></path><path d="M411.413 211.354H484.163" stroke="#189AB4" stroke-linecap="round" stroke-linejoin="round"></path><path d="M371.673 211.354H399.905" stroke="#189AB4" stroke-linecap="round" stroke-linejoin="round"></path><path d="M298.905 211.354H359.14" stroke="#189AB4" stroke-linecap="round" stroke-linejoin="round"></path><path d="M338.228 220.473H484.163" stroke="#189AB4" stroke-linecap="round" stroke-linejoin="round"></path><path d="M298.905 220.473H324.633" stroke="#189AB4" stroke-linecap="round" stroke-linejoin="round"></path><path d="M448.006 229.593H484.163" stroke="#189AB4" stroke-linecap="round" stroke-linejoin="round"></path><path d="M378.992 229.593H435.454" stroke="#189AB4" stroke-linecap="round" stroke-linejoin="round"></path><path d="M298.905 229.593H367.502" stroke="#189AB4" stroke-linecap="round" stroke-linejoin="round"></path><path d="M359.141 238.694H484.163" stroke="#189AB4" stroke-linecap="round" stroke-linejoin="round"></path><path d="M298.905 238.694H347.632" stroke="#189AB4" stroke-linecap="round" stroke-linejoin="round"></path><path d="M649.342 505.196H133.63V398.811H649.342V505.196Z" fill="#189AB4"></path><path opacity="0.7" d="M649.342 505.196H133.63V398.811H649.342V505.196Z" fill="white"></path><mask id="mask1_449_623" style="mask-type:luminance" maskUnits="userSpaceOnUse" x="538" y="355" width="116" height="151"><path d="M653.324 355.62H538.824V505.859H653.324V355.62Z" fill="white"></path></mask><g mask="url(#mask1_449_623)"><path d="M588.31 439.291C588.31 439.291 558.107 451.425 553.367 452.923C548.627 454.421 548.342 456.468 548.342 462.972C548.342 469.475 549.233 498.806 549.233 501.176C549.233 503.546 548.93 507.983 548.93 507.983H647.882C647.882 507.983 641.36 481.439 637.511 468.906C633.662 456.374 635.444 455.274 628.638 451.141C621.831 447.007 603.99 441.073 600.198 440.182C596.266 439.565 592.29 439.267 588.31 439.291Z" fill="#05445E" stroke="#05445E" stroke-linecap="round" stroke-linejoin="round"></path><path d="M589.789 436.03C589.789 436.03 582.679 435.442 579.721 441.376C576.763 447.311 569.653 461.133 569.653 461.133L578.242 466.46L568.25 471.561C569.919 478.875 571.995 486.091 574.469 493.175C576.19 497.824 578.165 502.375 580.385 506.807C580.385 506.807 594.794 490.521 600.482 485.477C604.232 481.889 607.337 477.681 609.659 473.039L602.264 466.233L615.005 464.754C615.005 464.754 611.744 448.183 607.592 441.376C603.44 434.57 589.789 436.03 589.789 436.03Z" fill="#05445E" stroke="#05445E" stroke-linecap="round" stroke-linejoin="round"></path><path d="M575.246 493.365C575.777 494.843 576.346 496.246 576.896 497.479" stroke="white" stroke-width="0.5" stroke-linecap="round" stroke-linejoin="round"></path><path d="M576.327 448.752L569.653 461.132L578.242 466.46L569.047 471.674C569.047 471.674 571.189 481.022 573.881 489.402" stroke="white" stroke-width="0.5" stroke-linecap="round" stroke-linejoin="round"></path><path d="M609.962 443.14L614.949 464.754L602.207 466.233L609.602 473.039C609.602 473.039 595.382 489.705 589.485 496.436" stroke="white" stroke-width="0.5" stroke-linecap="round" stroke-linejoin="round"></path><path d="M628.581 476.301L623.253 509.177" stroke="white" stroke-width="0.5" stroke-linecap="round" stroke-linejoin="round"></path><path d="M555.452 470.385C555.452 470.385 554.864 490.217 555.149 496.436C555.384 500.378 556.182 504.267 557.519 507.983" stroke="white" stroke-width="0.5" stroke-linecap="round" stroke-linejoin="round"></path><path d="M610.228 484.302L615.252 477.495L619.404 484.302H610.228Z" fill="white" stroke="#05445E" stroke-miterlimit="10"></path><path d="M616.143 419.155C616.143 419.155 621.168 418.567 622.362 425.981C623.557 433.394 619.992 442.855 608.142 442.855C596.292 442.855 597.202 433.963 597.487 427.46C597.771 420.956 616.143 419.155 616.143 419.155Z" fill="#05445E" stroke="#05445E" stroke-miterlimit="10"></path><path d="M586.831 431.308C586.831 431.308 586.528 439.878 585.94 449.662C585.352 459.445 580.612 472.755 580.612 483.998C580.572 490.229 580.869 496.457 581.503 502.655C581.503 502.655 591.268 483.695 595.704 472.755C600.141 461.815 605.184 430.114 605.184 430.114L586.831 431.308Z" fill="white" stroke="#05445E" stroke-miterlimit="10"></path><path d="M615.84 411.837C618.045 407.519 619.262 402.766 619.404 397.92C619.404 390.526 617.925 380.458 609.337 376.002C600.748 371.547 584.158 374.523 580.024 383.112C577.234 388.602 575.927 394.727 576.232 400.878C576.531 404.203 577.225 407.481 578.299 410.642C578.299 410.642 579.494 404.954 587.476 402.072C595.458 399.19 604.066 396.138 608.199 398.28C612.332 400.423 615.84 411.837 615.84 411.837Z" fill="#05445E" stroke="#05445E" stroke-linecap="round" stroke-linejoin="round"></path><path d="M578.545 408.803C578.545 408.803 574.981 403.475 573.502 407.324C572.023 411.173 574.109 416.804 576.46 417.979C578.811 419.155 580.024 418.567 580.024 418.567L578.545 408.803Z" fill="white" stroke="#05445E" stroke-linecap="round" stroke-linejoin="round"></path><path d="M615.84 409.694C615.84 409.694 619.992 405.542 619.992 409.391C619.783 412.963 618.456 416.378 616.2 419.155C614.418 421.525 613.527 420.35 613.527 420.35L615.84 409.694Z" fill="white" stroke="#05445E" stroke-linecap="round" stroke-linejoin="round"></path><path d="M608.806 392.649L611.744 384.363C611.86 384.039 611.842 383.682 611.695 383.371C611.547 383.06 611.282 382.82 610.958 382.704C610.633 382.589 610.276 382.607 609.965 382.754C609.654 382.902 609.414 383.167 609.299 383.491L606.834 390.412C604.24 389.799 601.549 389.721 598.925 390.184C596.3 390.647 593.798 391.64 591.571 393.104C583.873 398.147 577.654 402.584 577.654 402.584C577.654 402.584 577.958 419.458 581.2 425.677C584.442 431.896 590.092 439.291 594.832 439.291C599.572 439.291 607.858 428.938 611.119 425.677C614.38 422.416 616.446 409.694 616.446 405.542C616.446 402.565 611.555 396.081 608.806 392.649Z" fill="white" stroke="#05445E" stroke-miterlimit="10"></path><path d="M597.145 468.717C592.336 469.152 587.49 468.504 582.963 466.821C581.607 472.498 580.819 478.297 580.612 484.131C580.572 490.361 580.869 496.589 581.503 502.788C581.503 502.788 591.268 483.828 595.704 472.888C596.178 471.598 596.69 470.176 597.145 468.717Z" fill="#F1F9FB" stroke="#05445E" stroke-miterlimit="10"></path></g><mask id="mask2_449_623" style="mask-type:luminance" maskUnits="userSpaceOnUse" x="404" y="355" width="116" height="151"><path d="M519.125 355.62H404.625V505.859H519.125V355.62Z" fill="white"></path></mask><g mask="url(#mask2_449_623)"><path d="M457.201 423.573C449.649 424.43 442.149 425.696 434.734 427.365C426.069 429.602 421.898 430.569 421.898 434.74C421.898 438.911 420.931 456.885 418.106 464.924C415.281 472.963 412.001 484.51 412.001 488.681C412.001 492.853 418.106 510.504 418.106 510.504H429.33C429.33 510.504 425.159 489.952 425.159 488.037C425.159 486.122 430.942 469.077 430.942 469.077L431.264 511.13H490.04L489.415 470.992C489.415 470.992 494.534 487.373 494.534 490.255C494.534 493.137 492.638 512.097 492.638 512.097H503.786C503.786 512.097 509.247 491.241 508.924 483.847C508.602 476.452 503.236 453.018 502.516 445.927C501.795 438.836 506.042 435.006 498.345 430.19C490.647 425.374 472.976 422.492 469.127 422.17C465.116 422.249 461.122 422.719 457.201 423.573Z" fill="#F1F9FB" stroke="#05445E" stroke-miterlimit="10"></path><path d="M430.885 469.172L431.852 453.112L428.307 440.921" stroke="#05445E" stroke-linecap="round" stroke-linejoin="round"></path><path d="M489.32 450.553V471.087" stroke="#05445E" stroke-linecap="round" stroke-linejoin="round"></path><path d="M489.623 456.336L494.761 448.619" stroke="#05445E" stroke-linecap="round" stroke-linejoin="round"></path><path d="M462.662 445.415L460.747 510.58" stroke="#05445E" stroke-linecap="round" stroke-linejoin="round"></path><path d="M461.695 415.875C458.838 416.032 456.121 417.162 453.997 419.079C450.471 422.302 449.181 434.816 449.181 434.816C449.181 434.816 460.425 431.612 462.34 431.024C464.255 430.436 481.3 434.228 481.3 434.228C481.3 434.228 479.707 423.004 475.213 418.188C470.72 413.372 461.695 415.875 461.695 415.875Z" fill="#05445E" stroke="#05445E" stroke-linecap="round" stroke-linejoin="round"></path><path d="M457.202 405.599C457.202 405.599 459.78 409.391 459.78 420.767C459.78 432.143 461.05 443.879 462.662 445.415C464.274 446.95 471.004 430.247 471.004 422.663C471.133 417.648 472.342 412.72 474.55 408.215C474.55 408.215 466.511 402.755 462.34 402.11C461.201 401.932 460.037 402.194 459.083 402.841C458.129 403.489 457.457 404.474 457.202 405.599Z" fill="white" stroke="#05445E" stroke-linecap="round" stroke-linejoin="round"></path><path d="M460.292 433.28C460.804 439.518 461.676 444.429 462.662 445.415C463.648 446.401 466.738 440.144 468.862 433.432C466.015 433.835 463.123 433.783 460.292 433.28Z" fill="#05445E" stroke="#05445E" stroke-linecap="round" stroke-linejoin="round"></path><path d="M476.787 374.789C476.787 374.789 478.683 375.433 482.248 372.21C485.812 368.987 484.144 362.901 482.57 364.19C481.565 365.01 480.695 365.983 479.991 367.072C479.369 365.193 478.223 363.531 476.688 362.282C475.153 361.032 473.293 360.247 471.327 360.019C464.596 359.374 456.557 368.683 456.557 368.683C456.557 368.683 441.806 379.604 443.399 388.269C444.991 396.934 453.353 404.632 457.201 405.599C461.05 406.566 468.122 399.512 466.833 393.407C465.544 387.302 464.596 378.239 466.833 377.348C470.1 376.308 473.424 375.454 476.787 374.789Z" fill="#05445E" stroke="#05445E" stroke-linecap="round" stroke-linejoin="round"></path><path d="M456.557 400.46C456.557 400.46 451.115 396.668 449.826 399.512C448.537 402.356 451.438 407.533 454.964 409.125C458.491 410.718 461.695 405.599 461.695 405.599C461.695 405.599 472.938 414.586 480.655 414.908C488.372 415.23 488.694 409.125 487.405 397.579C486.115 386.032 482.267 377.026 479.385 373.822C476.503 370.617 465.259 373.499 461.714 376.381C458.168 379.263 456.026 381.842 459.477 382.486C462.927 383.131 466.207 384.382 463.003 387.947C459.799 391.511 458.187 390.184 459.211 392.763C460.235 395.341 464.349 397.901 460.501 399.19L456.557 400.46Z" fill="white" stroke="#05445E" stroke-linecap="round" stroke-linejoin="round"></path></g><mask id="mask3_449_623" style="mask-type:luminance" maskUnits="userSpaceOnUse" x="254" y="354" width="115" height="152"><path d="M368.886 354.9H254.387V505.878H368.886V354.9Z" fill="white"></path></mask><g mask="url(#mask3_449_623)"><path d="M315.476 417.525C315.476 417.525 275.015 422.341 273.764 425.867C272.513 429.394 257.724 463.787 259.961 466.954C262.198 470.12 266.711 470.746 270.237 470.746C272.735 470.522 275.098 469.513 276.987 467.864L266.711 511.472H341.186L343.442 480.965C343.442 480.965 352.107 484.757 357.889 484.188C363.672 483.619 362.383 479.05 361.094 470.385C359.804 461.721 359.198 439.556 356.922 435.385C354.647 431.214 327.383 419.648 327.383 419.648L315.476 417.525Z" fill="#05445E" stroke="#05445E" stroke-linecap="round" stroke-linejoin="round"></path><path d="M344.049 469.816V449.908L345.641 446.06" stroke="white" stroke-linecap="round" stroke-linejoin="round"></path><path d="M279.186 453.113L282.41 439.632L281.765 436.75" stroke="white" stroke-linecap="round" stroke-linejoin="round"></path><path d="M287.643 512.837C287.643 512.837 293.729 486.501 296.63 470.139C299.531 453.776 311.608 417.525 311.608 417.525L330.246 422.663C330.246 422.663 317.713 459.256 314.509 474.993C311.305 490.729 308.612 513.026 308.612 513.026L287.643 512.837Z" fill="#F1F9FB" stroke="#05445E" stroke-miterlimit="10"></path><path d="M314.187 413.733C314.187 413.733 308.726 413.733 306.792 417.525C304.858 421.317 302.299 436.144 302.299 436.144C302.299 436.144 313.864 431.005 314.831 431.005C315.798 431.005 320.292 431.328 322.529 433.887C324.766 436.447 329.601 442.552 329.601 442.552C329.601 442.552 336.976 430.683 335.061 422.985C334.405 420.448 332.965 418.183 330.946 416.511C328.928 414.84 326.433 413.848 323.818 413.676L314.187 413.733Z" fill="#F1F9FB" stroke="#05445E" stroke-miterlimit="10"></path><path d="M312.291 405.277C312.291 405.277 311.646 427.763 312.291 434.172C312.935 440.58 313.902 442.192 313.902 442.192C313.902 442.192 319.363 433.205 320.955 430C322.548 426.796 327.383 423.251 329.639 420.369C331.895 417.487 333.431 406.566 333.431 406.566C333.431 406.566 325.089 412.993 320.595 411.382C317.416 409.975 314.581 407.892 312.291 405.277Z" fill="white" stroke="#05445E" stroke-linecap="round" stroke-linejoin="round"></path><path d="M325.563 364.645C320.102 365.442 314.774 368.172 313.239 373.5C311.949 377.993 311.343 392.763 311.001 400.138C310.66 407.514 314.528 416.842 317.732 417.809C320.407 418.758 323.286 418.981 326.075 418.454C327.686 417.809 335.08 407.855 336.995 405.921C338.91 403.987 344.693 386.013 344.693 379.605C344.835 376.444 343.941 373.323 342.148 370.715C340.355 368.108 337.761 366.157 334.758 365.157C331.763 364.343 328.63 364.169 325.563 364.645Z" fill="white" stroke="#05445E" stroke-linecap="round" stroke-linejoin="round"></path><path d="M341.47 394.773C341.47 394.773 346.608 390.26 345.262 396.043C344.849 397.771 344.06 399.387 342.953 400.776C341.845 402.165 340.446 403.294 338.854 404.082L341.47 394.773Z" fill="white" stroke="#05445E" stroke-linecap="round" stroke-linejoin="round"></path><path d="M311.608 388.592C311.608 388.592 307.816 385.065 307.816 389.881C307.963 393.034 309.089 396.063 311.039 398.546L311.608 388.592Z" fill="white" stroke="#05445E" stroke-linecap="round" stroke-linejoin="round"></path><path d="M341.47 394.773C343.136 389.862 344.211 384.77 344.674 379.605C344.816 376.444 343.922 373.323 342.129 370.715C340.336 368.108 337.742 366.157 334.739 365.157C331.744 364.343 328.611 364.169 325.544 364.645C320.083 365.442 314.755 368.172 313.22 373.5C312.232 378.813 311.655 384.195 311.494 389.597C313.125 388.326 316.519 385.217 315.798 381.52C314.831 376.704 312.897 374.467 316.424 372.21C319.95 369.954 324.141 373.177 329.923 375.111C335.706 377.045 341.47 374.467 343.082 376.059C344.693 377.652 337.943 384.421 338.91 386.98C339.877 389.54 342.115 392.441 341.47 394.697V394.773Z" fill="#05445E" stroke="#05445E" stroke-linecap="round" stroke-linejoin="round"></path><path d="M295.227 456.336C295.227 456.336 290.411 449.586 287.207 449.264C284.002 448.941 276.286 456.336 276.286 456.336H295.227Z" fill="white" stroke="#05445E" stroke-linecap="round" stroke-linejoin="round"></path><path d="M325.733 456.962H330.246L331.194 465.968L326.378 464.678L325.733 456.962Z" fill="white" stroke="#05445E" stroke-linecap="round" stroke-linejoin="round"></path><path d="M330.246 456.962L338.266 460.507L340.181 470.461L331.194 465.968L330.246 456.962Z" fill="white" stroke="#05445E" stroke-linecap="round" stroke-linejoin="round"></path><path d="M355.899 474.405L309.996 456.431C307.35 457.731 304.868 459.341 302.602 461.228C301.263 462.574 300.274 464.227 299.72 466.043C299.72 466.043 321.543 481.78 332.142 486.596C342.74 491.412 358.155 493.023 360.714 490.388C363.274 487.753 362.61 477.874 361.037 476.263C360.186 475.385 359.216 474.632 358.155 474.026" fill="#05445E"></path><path d="M355.899 474.405L309.996 456.431C307.35 457.731 304.868 459.341 302.602 461.228C301.263 462.574 300.274 464.227 299.72 466.043C299.72 466.043 321.543 481.78 332.142 486.596C342.74 491.412 358.155 493.023 360.714 490.388C363.274 487.753 362.61 477.874 361.037 476.263C360.186 475.385 359.216 474.632 358.155 474.026" stroke="#05445E" stroke-linecap="round" stroke-linejoin="round"></path><path d="M325.733 455.445L326.378 464.754C326.378 464.754 292.667 472.452 280.153 474.708C267.64 476.964 260.89 475.334 258.975 469.57C257.06 463.806 263.469 456.715 266.35 455.122C269.232 453.53 325.733 455.445 325.733 455.445Z" fill="#05445E" stroke="#05445E" stroke-linecap="round" stroke-linejoin="round"></path></g><mask id="mask4_449_623" style="mask-type:luminance" maskUnits="userSpaceOnUse" x="139" y="355" width="102" height="151"><path d="M240.527 355.62H139.147V505.859H240.527V355.62Z" fill="white"></path></mask><g mask="url(#mask4_449_623)"><path d="M201.735 433.432C201.735 433.432 214.589 436.636 219.728 438.248C224.866 439.859 226.458 441.774 226.458 445.623C226.458 449.472 223.576 466.479 223.576 469.058V486.406C223.576 491.222 228.392 508.874 228.392 508.874H165.824C165.824 508.874 158.771 481.913 153.955 467.162C149.14 452.411 148.495 447.254 153.311 444.998C164.758 440.803 176.438 437.27 188.292 434.418C192.744 433.776 197.236 433.446 201.735 433.432Z" fill="#F1F9FB" stroke="#05445E" stroke-miterlimit="10"></path><path d="M220.372 454.61C220.372 454.61 224.164 472.281 222.932 478.689C221.699 485.098 212.978 509.518 212.978 509.518" stroke="#05445E" stroke-linecap="round" stroke-linejoin="round"></path><path d="M153.273 444.979C153.273 444.979 147.585 445.946 149.102 453.34C150.618 460.734 143.319 508.533 143.319 508.533H157.444C157.444 508.533 167.076 483.164 168.668 477.078C170.261 470.992 171.569 466.157 168.668 461.019" fill="#F1F9FB"></path><path d="M153.273 444.979C153.273 444.979 147.585 445.946 149.102 453.34C150.618 460.734 143.319 508.533 143.319 508.533H157.444C157.444 508.533 167.076 483.164 168.668 477.078C170.261 470.992 171.569 466.157 168.668 461.019" stroke="#05445E" stroke-miterlimit="10"></path><path d="M213.092 402.167L215.196 467.56H196.217V407.798L213.092 402.167Z" fill="#05445E" stroke="#05445E" stroke-linecap="round" stroke-linejoin="round"></path><path d="M188.576 449.169C188.576 449.169 194.037 473.817 196.293 481.268C198.549 488.719 198.853 505.916 198.189 508.229C197.525 510.542 206.209 508.229 206.209 508.229C206.209 508.229 208.465 491.165 209.755 481.268C211.044 471.371 207.176 452.695 207.176 452.695L203.005 436.314L187.268 439.215L188.576 449.169Z" fill="white" stroke="#05445E" stroke-linecap="round" stroke-linejoin="round"></path><path d="M202.322 422.189C201.427 427.299 201.537 432.535 202.645 437.603C204.541 444.675 209.717 457.511 205.223 461.038C200.73 464.564 194.625 462.649 191.42 456.222C188.216 449.794 185.315 433.754 185.315 420.596C185.315 407.438 186.604 405.182 191.098 405.182C195.592 405.182 202.322 422.189 202.322 422.189Z" fill="white" stroke="#05445E" stroke-linecap="round" stroke-linejoin="round"></path><path d="M193.07 416.103C190.183 418.612 186.787 420.469 183.116 421.544C178.3 422.511 175.74 409.675 175.096 396.896C174.451 384.117 177.674 376.988 184.405 373.784C191.136 370.58 207.517 372.172 213.945 374.732C220.372 377.291 228.07 381.482 228.07 388.212C228.07 394.943 219.386 400.46 216.827 401.977C214.267 403.494 208.162 405.769 204.313 409.675C200.987 412.484 197.177 414.662 193.07 416.103Z" fill="#05445E" stroke="#05445E" stroke-linecap="round" stroke-linejoin="round"></path><path d="M193.07 416.103C193.07 416.103 196.862 425.734 203.991 426.038C211.12 426.341 219.159 409.997 219.405 402.925C219.652 395.853 212.333 383.662 212.333 383.662C212.333 383.662 199.819 412.235 193.07 416.103Z" fill="white" stroke="#05445E" stroke-linecap="round" stroke-linejoin="round"></path><path d="M191.155 401.655L191.781 470.992H170.28L175.096 390.412" fill="#05445E"></path><path d="M191.155 401.655L191.781 470.992H170.28L175.096 390.412" stroke="#05445E" stroke-linecap="round" stroke-linejoin="round"></path></g></svg>